<svg width="512" height="776" viewBox="0 0 512 776" xmlns="http://www.w3.org/2000/svg" preserveAspectRatio="xMinYMin meet"><linearGradient id="a" gradientUnits="userSpaceOnUse" x1="-386.419" y1="-1.385" x2="-386.419" y2="-3.024" gradientTransform="matrix(359.498 0 0 51.2998 139169.14 851.68)"><stop offset="0" stop-color="#E6E7E8"/><stop offset="1" stop-color="#A7A9AC"/></linearGradient><ellipse opacity=".39" fill="url(#a)" cx="252.2" cy="750.2" rx="180" ry="25.6"/><linearGradient id="b" gradientUnits="userSpaceOnUse" x1="-386.314" y1="-1.529" x2="-386.314" y2="-3.161" gradientTransform="matrix(327.5602 0 0 28.3446 126793.28 810.36)"><stop offset="0" stop-color="#E6E7E8"/><stop offset="1" stop-color="#A7A9AC"/></linearGradient><path opacity=".46" fill="url(#b)" d="M317.2 736.1c-24.9 0-47.6 1.3-65 3.5-17.4-2.2-40.1-3.5-65-3.5-54.7 0-99.1 6.3-99.1 14.2 0 7.8 44.4 14.2 99.1 14.2 24.9 0 47.6-1.3 65-3.5 17.4 2.2 40.1 3.5 65 3.5 54.7 0 99.1-6.3 99.1-14.2-.2-7.8-44.4-14.2-99.1-14.2z"/><radialGradient id="c" cx="-379.725" cy="-2.256" r=".438" gradientTransform="matrix(51.699 0 0 39.7224 20091.393 306.273)" gradientUnits="userSpaceOnUse"><stop offset="0" stop-color="#FF8B6C"/><stop offset="1" stop-color="#CE4920"/></radialGradient><ellipse fill="url(#c)" cx="446.8" cy="224.9" rx="25.8" ry="19.9"/><linearGradient id="d" gradientUnits="userSpaceOnUse" x1="450.998" y1="562.998" x2="456.565" y2="579.361" gradientTransform="matrix(1 0 0 -1 0 800)"><stop offset="0" stop-color="#B2251A" stop-opacity=".069"/><stop offset="0" stop-color="#B32000"/><stop offset="1" stop-color="#C7392E"/></linearGradient><path fill="url(#d)" d="M469.5 219.8s-14.5-12.9-26.9-1c0 0 10 2.6 9 8.7s-9.3 8.4-9.3 8.4 28.8 8.2 27.2-16.1z"/><path fill="#7F1E0B" d="M451.5 227.5c1-6.1-9-8.7-9-8.7 12.5-11.9 27 1 27 1l.1 1.2c-5.4-1.4-19-3.1-16.7 16.2-5.8.1-10.9-1.4-10.9-1.4s8.5-2.3 9.5-8.3z"/><radialGradient id="e" cx="-380.244" cy="-2.244" r=".429" gradientTransform="matrix(51.699 0 0 39.7224 19702.055 306.273)" gradientUnits="userSpaceOnUse"><stop offset="0" stop-color="#FF8B6C"/><stop offset="1" stop-color="#CE4920"/></radialGradient><ellipse fill="url(#e)" cx="56.9" cy="224.9" rx="25.8" ry="19.9"/><linearGradient id="f" gradientUnits="userSpaceOnUse" x1="47.787" y1="562.434" x2="47.564" y2="578.685" gradientTransform="matrix(1 0 0 -1 0 800)"><stop offset="0" stop-color="#B2251A" stop-opacity=".069"/><stop offset="0" stop-color="#B32000"/><stop offset="1" stop-color="#C7392E"/></linearGradient><path fill="url(#f)" d="M34.1 219.8s14.5-12.9 26.9-1c0 0-10 2.6-9 8.7s9.3 8.4 9.3 8.4-28.8 8.2-27.2-16.1z"/><path fill="#7F1E0B" d="M52.1 227.5c-1-6.1 9-8.7 9-8.7-12.5-11.9-27 1-27 1L34 221c5.4-1.4 19-3.1 16.7 16.2 5.8.1 10.9-1.4 10.9-1.4s-8.5-2.3-9.5-8.3z"/><radialGradient id="g" cx="-386.757" cy="-2.236" r=".517" gradientTransform="matrix(511.0235 0 0 725.8977 197889.078 1706.12)" gradientUnits="userSpaceOnUse"><stop offset="0" stop-color="#F28567"/><stop offset="1" stop-color="#BF441E"/></radialGradient><path fill="url(#g)" d="M249.4 26.4S111 13.2 75.3 205.6-39.1 447.3 23.5 533.5c0 0 0 112 94.2 207.1 0 0 36.1 29.4 61.6-7.1 25.5-36.7 60.1-57.5 89.5-49.9s56.5 44.8 67.7 57c11.2 12.2 58 50.4 117.1-110.5 0 0 111-61.1 26.9-234.1 0 0-32.1-73.8-48.9-179.2C414.8 111.5 362 27.9 249.4 26.4z"/><linearGradient id="h" gradientUnits="userSpaceOnUse" x1="255.969" y1="17.734" x2="255.969" y2="301.151"><stop offset="0" stop-color="#B11A0A" stop-opacity=".25"/><stop offset="1" stop-color="#B11A0A"/></linearGradient><path opacity=".7" fill="url(#h)" d="M480.5 396s-32.1-73.8-48.9-179.2c-13.1-82.3-48.4-151.4-117-178.4 27.2 20.5 23.1 49.5 23.1 49.5-61.9-5.8-79.3 62.5-79.3 62.5s7-57.8 4.7-57.2c-2.3.6-9.3 48.5-9.3 48.5l-2.9-22.8-1.2 22.8-10.5-43.8 7.6 55.5c-12.4-78-90.5-64.1-90.5-64.1-3.2-22.9 17.1-41.1 36.3-52.9-42.5 16.2-96.8 58.9-117.3 169.3C39.7 398-39.2 447.3 23.4 533.5c0 0 0 112 94.2 207.1 0 0 36.1 29.4 61.6-7.1 25.5-36.7 60.1-57.5 89.5-49.9 29.4 7.6 56.5 44.8 67.7 57 11.2 12.2 58 50.4 117.1-110.5 0 0 111-61.1 27-234.1z"/><path fill="#AD1813" d="M239.3 142.5S228 93 175.9 93s-63.4 70.4-63.4 70.4 0 40.5 49.5 49.9c0 0-24.1-8.7-36.7-27.6 0 0 11.9 9.6 40.5 10.9 0 0-44.4-9.6-50.5-33.1 0 0 11.6-64.7 60.8-66.6 49.4-1.9 63.2 45.6 63.2 45.6z"/><path fill="#AD1813" d="M239.6 169.3l-1 1.3s1-61.1-55.6-64c-56.6-2.9-65.3 56.6-65.3 56.6s1.6 15.4 55.6 18.3c33.7 1.8 50.7-2.9 58.8-6.7 5.2-1.6 5.2 2.2 5.2 2.2-16.7 16.1-55 21.2-55 21.2 31.5 1.6 50.2-9.6 50.2-9.6C222 206.9 193 214 193 214c40.8-.3 51.1-36.3 51.1-36.3l-4.5-8.4z"/><linearGradient id="i" gradientUnits="userSpaceOnUse" x1="-384.213" y1="-2.25" x2="-384.213" y2="-1.725" gradientTransform="matrix(118.1692 0 0 70.0185 45580.422 279.465)"><stop offset="0" stop-color="#FFF"/><stop offset="1" stop-color="#DDC48C"/></linearGradient><path fill="url(#i)" d="M119.1 163.5s11.9-58.5 64.7-55c52.8 3.5 53.7 62.1 53.7 62.1s-18.7 10.9-65.6 7.1c-47-3.9-52.8-14.2-52.8-14.2z"/><radialGradient id="j" cx="-383.454" cy="-2.123" r=".478" gradientTransform="matrix(92.12 0 0 59.9196 35499.41 266.416)" gradientUnits="userSpaceOnUse"><stop offset="0" stop-color="#6CAF11"/><stop offset=".33" stop-color="#6AAC10"/><stop offset=".61" stop-color="#64A10F"/><stop offset=".871" stop-color="#59900C"/><stop offset="1" stop-color="#52840A"/></radialGradient><path fill="url(#j)" d="M219 123.9c-6.9-3.5-14.7-5.4-22.9-5.4-28.1 0-51 22.8-51 51 0 1.6.1 3.1.2 4.7 6.9 1.4 15.6 2.6 26.4 3.5 47 3.9 65.6-7.1 65.6-7.1s-.5-28.4-18.3-46.7z"/><path fill="#AD1813" d="M268.4 141s10.9-48.1 61.5-48.1 61.5 68.4 61.5 68.4 0 39.3-48.1 48.4c0 0 23.4-8.4 35.6-26.8 0 0-11.6 9.4-39.3 10.6 0 0 43.1-9.4 49-32.2 0 0-11.2-62.8-59-64.6-47.8-1.8-61.2 44.3-61.2 44.3z"/><path fill="#AD1813" d="M268.1 167l.9 1.2s-.9-59.3 54-62.1 63.4 54.9 63.4 54.9-1.6 15-54 17.8c-32.7 1.8-49.2-2.8-57.1-6.5-5-1.5-5.1 2.1-5.1 2.1 16.2 15.6 53.4 20.6 53.4 20.6-30.6 1.6-48.7-9.4-48.7-9.4 10.3 17.8 38.4 24.7 38.4 24.7-39.6-.3-49.6-35.3-49.6-35.3l4.4-8z"/><linearGradient id="k" gradientUnits="userSpaceOnUse" x1="-384.112" y1="-2.401" x2="-384.112" y2="-1.837" gradientTransform="matrix(114.676 0 0 67.9978 44376.066 274.336)"><stop offset="0" stop-color="#FFF"/><stop offset="1" stop-color="#DDC48C"/></linearGradient><path fill="url(#k)" d="M385.1 161.4s-11.6-56.8-62.8-53.4c-51.2 3.4-52.1 60.3-52.1 60.3s18.1 10.6 63.7 6.9c45.7-3.8 51.2-13.8 51.2-13.8z"/><radialGradient id="l" cx="-382.986" cy="-2.119" r=".415" gradientTransform="matrix(89.4254 0 0 58.0704 34578.82 261.348)" gradientUnits="userSpaceOnUse"><stop offset="0" stop-color="#6CAF11"/><stop offset=".33" stop-color="#6AAC10"/><stop offset=".61" stop-color="#64A10F"/><stop offset=".871" stop-color="#59900C"/><stop offset="1" stop-color="#52840A"/></radialGradient><path fill="url(#l)" d="M288.1 123c6.7-3.4 14.2-5.3 22.2-5.3 27.2 0 49.5 22.2 49.5 49.5 0 1.5-.1 3-.2 4.5-6.7 1.3-15.1 2.5-25.6 3.4-45.6 3.7-63.7-6.9-63.7-6.9s.5-27.4 17.8-45.2z"/><linearGradient id="m" gradientUnits="userSpaceOnUse" x1="-386.245" y1="-2.29" x2="-386.245" y2="-1.722" gradientTransform="matrix(309.537 0 0 204.8136 119810.367 687.347)"><stop offset="0" stop-color="#CE4920" stop-opacity="0"/><stop offset="1" stop-color="#9C1710"/></linearGradient><path fill="url(#m)" d="M133.2 222.9s115.5 18.5 227.1-13.5 6.4 199.2-90 202c-96.5 2.7-147.4-67.1-169-144-.1-.1-17.7-54.4 31.9-44.5z"/><radialGradient id="n" cx="-386.261" cy="-2" r="1.04" gradientTransform="matrix(309.537 0 0 193.8552 119810.367 662.128)" gradientUnits="userSpaceOnUse"><stop offset="0" stop-color="#E04C89"/><stop offset="1" stop-color="#96003A"/></radialGradient><path fill="url(#n)" d="M133.2 222s115.5 17.5 227.1-12.8c111.6-30.1 6.4 188.6-90 191.2-96.6 2.6-147.5-63.5-169.1-136.4 0 0-17.6-51.3 32-42z"/><radialGradient id="o" cx="-386.105" cy="-1.862" r=".432" gradientTransform="matrix(278.6017 0 0 157.6357 107824.797 591.596)" gradientUnits="userSpaceOnUse"><stop offset="0" stop-color="#E04C89"/><stop offset="1" stop-color="#96003A"/></radialGradient><path fill="url(#o)" d="M143.7 238.3s123.1 25.3 214-13.7c0 0 27.3-13.7 36 2.1 8.6 15.9-38.6 144.9-131.1 150-92.5 5.1-127.4-75-144-112.3 0 0-7.2-17.4 1.3-24.4 6.3-5.3 9.2-4.7 23.8-1.7z"/><path fill="#590D00" d="M143.7 238.3s123.1 25.3 214-13.7c0 0 27.3-13.7 36 2.1 8.6 15.9-38.6 144.9-131.1 150-92.5 5.1-127.4-75-144-112.3 0 0-7.2-17.4 1.3-24.4 6.3-5.3 9.2-4.7 23.8-1.7z"/><path opacity=".7" fill="#250000" d="M221.5 277.7c23.6-7.3 51.4-11.6 82.2-8.6 6.4-13.9 4.5-25 3.4-29.2-12.4 2.4-24.8 4.1-37.1 5.1 3 7.3-2.2 14.6-13.3 13.6-10.5-.9-9.7-8.1-8.2-12.3-12.6.4-24.6.3-35.8-.2-6.3 19.8 4.3 28.8 8.8 31.6z"/><linearGradient id="p" gradientUnits="userSpaceOnUse" x1="-379.041" y1="-2.173" x2="-378.342" y2="-2.173" gradientTransform="matrix(43.9187 0 0 26.7078 16797.97 310.082)"><stop offset="0" stop-color="#CEBC99"/><stop offset=".047" stop-color="#D8CAAF"/><stop offset=".124" stop-color="#E6DDCC"/><stop offset=".205" stop-color="#F1ECE2"/><stop offset=".294" stop-color="#F9F7F3"/><stop offset=".393" stop-color="#FEFDFC"/><stop offset=".527" stop-color="#FFF"/><stop offset=".661" stop-color="#FEFDFC"/><stop offset=".749" stop-color="#FAF8F4"/><stop offset=".823" stop-color="#F2EEE5"/><stop offset=".89" stop-color="#E8E0D0"/><stop offset=".951" stop-color="#DBCEB5"/><stop offset="1" stop-color="#CEBC99"/></linearGradient><path fill="url(#p)" d="M189.8 244.5c-22.3-1.9-38.5-4.7-44-5.8-.1 5.8 1.3 24.4 21.9 26.5 16.8 1.9 21-11.9 22.1-20.7z"/><linearGradient id="q" gradientUnits="userSpaceOnUse" x1="-379.135" y1="-2.087" x2="-378.399" y2="-2.087" gradientTransform="matrix(44.3134 0 0 34.2383 17132.268 308.63)"><stop offset="0" stop-color="#CEBC99"/><stop offset=".047" stop-color="#D8CAAF"/><stop offset=".124" stop-color="#E6DDCC"/><stop offset=".205" stop-color="#F1ECE2"/><stop offset=".294" stop-color="#F9F7F3"/><stop offset=".393" stop-color="#FEFDFC"/><stop offset=".527" stop-color="#FFF"/><stop offset=".661" stop-color="#FEFDFC"/><stop offset=".749" stop-color="#FAF8F4"/><stop offset=".823" stop-color="#F2EEE5"/><stop offset=".89" stop-color="#E8E0D0"/><stop offset=".951" stop-color="#DBCEB5"/><stop offset="1" stop-color="#CEBC99"/></linearGradient><path fill="url(#q)" d="M357.6 224.7c-9.8 4.2-20 7.7-30.4 10.5 1.6 6.6 7.6 19.4 19.3 19.1 15-.4 25-18.4 25.1-34.3-7.5 1.5-14 4.7-14 4.7z"/><path d="M347.11 330.995c-.3.3-.6.6-.9 1 4.3 5.2 9.3 9.6 13.4 12.8.3-.3.5-.7.8-1-4.1-3.1-9.1-7.5-13.3-12.8zm41.3-109.6c.4.2.7.5 1.1.7 2-3.1 4.3-7.3 5.9-11.9l-1.2-.6c-1.5 4.6-3.7 8.7-5.8 11.8zm-26.3 1.4c.4-.2.8-.3 1.3-.5-.4-4.9-.9-9.7-1.3-13.6-.4.1-.8.2-1.3.3.4 4 .9 8.9 1.3 13.8zm15.1 63.5c-.2.4-.4.8-.6 1.1 7.1 4.7 12 6.7 15.5 7.4l.6-1.2c-3.4-.5-8.3-2.4-15.5-7.3zm-66.9-47.2c.4-.1.8-.2 1.3-.3l-1.5-19.1c-.4.1-.9.1-1.3.2l1.5 19.2zm-24.8 4.1c.4-.1.9-.1 1.3-.2l-1.7-20c-.4 0-.9.1-1.3.1l1.7 20.1zm37.6 110.4c-.4.3-.7.5-1.1.8 2.1 5.5 5.6 12.1 11 17.7.3-.3.7-.6 1-.8-5.5-5.6-8.9-12.3-10.9-17.7zm41-44.8c-.3.4-.5.8-.8 1.2 2.9 3.8 7.4 8.8 13.1 12.3.2-.4.5-.7.7-1.1-5.6-3.6-10.2-8.7-13-12.4zm-26.7-76.6c.4-.1.8-.3 1.3-.4l-.7-17.1c-.4.1-.9.2-1.3.3l.7 17.2zm-82.8 13.7l-.7-20.1c-.4 0-.9 0-1.3.1l.7 20.1c.4-.1.9-.1 1.3-.1zm138.4-1.6c-.1.4-.2.9-.3 1.3 7.8-.9 12.5-4 15.5-7.3v-2c-2.6 3.4-7.1 6.9-15.2 8zm-6 19.6c-.2.4-.3.8-.5 1.2 3 1.5 8.7 3.6 16.3 3 .1-.4.3-.9.4-1.3-7.6.7-13.3-1.5-16.2-2.9zm-224.2-22.5c.5.1.9.1 1.4.2-1.5-5.9-2.2-11.6-2.6-16.6-.4 0-.9-.1-1.3-.1.3 5 1 10.6 2.5 16.5zm-35.5-5.2c.5-.1 1-.1 1.5-.1-2.4-3.2-5-8.2-6-15.3h-1.3c1 7 3.3 12 5.8 15.4zm30.6 124.6c.3.3.7.6 1 .9 3.7-4.9 8.6-10.4 14.2-14.4-.3-.3-.7-.6-1-.9-5.7 4.1-10.5 9.5-14.2 14.4zm40.7 3.7l-1.2-.6c-3.1 4.7-6.8 10.9-10.1 18 .4.2.8.4 1.1.6 3.4-7.1 7.1-13.3 10.2-18zm-.4-119.4c.4 0 .9.1 1.3.1-1.2-5.2-2.6-11.8-3.4-18.5h-1.3c.8 6.7 2.2 13.2 3.4 18.4zm30.2 129.5c-.4-.1-.9-.2-1.3-.2-2.6 7.8-4.1 15.2-4.9 21.1.4.1.8.2 1.3.3.9-6 2.4-13.3 4.9-21.2zm60-2.7c3.1 9.1 7.6 16.2 11.6 21.3.4-.2.8-.4 1.2-.5-4-5-8.5-12.1-11.6-21.2-.4.1-.8.3-1.2.4zm-172.8-121.4c-6.2-1.5-12.4-4.6-17.3-7.6 0 .5 0 1-.1 1.5 5 3 11.1 6 17.4 7.4v-1.3zm18.5 46.6c-.2-.4-.4-.8-.6-1.1-7.1 2.8-12.2 6.8-15.8 10.5l.6 1.2c3.6-3.7 8.6-7.8 15.8-10.6zm94.9-50.7h1.3l-1.9-19.6h-1.3l1.9 19.6zm33.9 130.4h-1.3c-.7 7.1-1.3 15.8-1.6 23.6h1.3c.3-7.8 1-16.5 1.6-23.6zm-142-107c-.2-.4-.4-.9-.6-1.3-4.2.3-9.6 1.5-16.3 4 .1.4.3.8.4 1.2 6.8-2.6 12.3-3.6 16.5-3.9zm30.8 54.5c-.3-.4-.5-.7-.8-1.1-4.9 2-11.1 5.4-16.6 10.7.3.4.5.7.8 1.1 5.5-5.3 11.7-8.7 16.6-10.7z" fill="#E04C89"/><path opacity=".5" fill="#CE4920" d="M214.5 50.6s2.8 14.8 36.4 14.8 32.3-15.7 32.3-15.7-5.7 12-31.9 12-36.8-11.1-36.8-11.1z"/><path fill="#C62619" d="M282 45.7c0 5.7-14.5 10.2-32.3 10.2s-32.3-4.6-32.3-10.2c0-5.7 14.5-10.2 32.3-10.2S282 40.1 282 45.7z"/><linearGradient id="r" gradientUnits="userSpaceOnUse" x1="-1662.855" y1="-1.995" x2="-1661.854" y2="-1.995" gradientTransform="matrix(58.4858 0 0 52.4975 97473.828 131.02)"><stop offset="0" stop-color="#CEBC99"/><stop offset=".527" stop-color="#FFF"/><stop offset="1" stop-color="#CEBC99"/></linearGradient><path fill="url(#r)" d="M249.7 0c-15.1 0-27.5 23.2-29.2 44.9 0 0 2.9 7.7 30.2 7.7 24.2 0 28.2-7.7 28.2-7.7C277.3 23.2 264.8 0 249.7 0z"/><linearGradient id="s" gradientUnits="userSpaceOnUse" x1="-1657.682" y1="-1.813" x2="-1657.682" y2="-2.488" gradientTransform="matrix(34.333 0 0 40.3218 57162.738 107.213)"><stop offset="0" stop-color="#FFF" stop-opacity="0"/><stop offset="1" stop-color="#FFF"/></linearGradient><path fill="url(#s)" d="M266.9 27.5c0 9.4-7.7 17-17.2 17s-17.2-7.6-17.2-17 7.7-23.4 17.2-23.4 17.2 14.1 17.2 23.4z"/><linearGradient id="t" gradientUnits="userSpaceOnUse" x1="384.287" y1="361.348" x2="170.021" y2="603.195"><stop offset="0" stop-color="#961307" stop-opacity=".2"/><stop offset=".068" stop-color="#961307" stop-opacity=".214"/><stop offset=".478" stop-color="#961307" stop-opacity=".3"/><stop offset="1" stop-color="#8C1306"/></linearGradient><path opacity=".7" fill="url(#t)" d="M480.5 396s-20.8-48-37.7-121.7c-5.1 27.2-15.9 93.5-10.4 133.5 7 51.4 26.8 262-64.8 294.1 0 0-27.6 4.4-62.7-35.3-35-39.7-82.6-87.2-82.6-87.2l23.9-10.5s12.3 16.3 37.4 8.8c0 0-16.3 2.9-27.9-9.3 0 0 16.9 5.8 27.9-8.2 0 0 7.6 2.3 5.3 7.6 0 0 8.8-7 2.3-15.8 0 0 49-42.6 29.1-91.1l-14-18.7s11.7-9.9 12.3-12.8c.6-2.9-3.5-32.1-3.5-32.1s35.2-34.5 59.7-72.6c-26.8 39.9-66.4 74.7-104.5 75.7-87.2 2.3-137.3-51.5-162-115.8h-.3l.6 1.8c4.1 11.9 30.7 81.6 95.2 111.5l-37.4 8.2s133.6 39.1 139.4 70.1c5.8 30.9-214.4 81.1-281.4 29.1-21.1-16.4-21.6-46-19.5-71-9 35.1-7 64 18.5 99.1 0 0 0 112 94.2 207.1 0 0 36.1 29.4 61.6-7.1 25.5-36.7 60.1-57.5 89.5-49.9 29.4 7.6 56.5 44.8 67.7 57 11.2 12.2 58 50.4 117.1-110.5 0 .1 111-61 27-234z"/><linearGradient id="u" gradientUnits="userSpaceOnUse" x1="-386.204" y1="-2.358" x2="-386.204" y2="-1.356" gradientTransform="matrix(299.502 0 0 166.3488 115842.18 798.354)"><stop offset="0" stop-color="#7A0400" stop-opacity="0"/><stop offset=".91" stop-color="#710300" stop-opacity=".91"/><stop offset="1" stop-color="#700300"/></linearGradient><path opacity=".6" fill="url(#u)" d="M190.7 568.9c116.8-17.5 142.9-76.5 129.5-108-13.4-31.5-154.1-54.9-154.1-54.9s145.1 28.6 149.4 68.3c5.8 54.9-161.8 116.4-292.2 59.1 0 0 0 4.7.8 13 25.6 13.2 82.7 35.2 166.6 22.5z"/><path fill="#020202" d="M227 174.4c.3-1.7.5-3.4.5-5.1 0-16-13-28.8-28.8-28.8s-28.8 13-28.8 28.8c0 2.9.4 5.6 1.2 8.3.4 0 .7.1 1 .1 27.1 2.1 44.8-.6 54.9-3.3z"/><linearGradient id="v" gradientUnits="userSpaceOnUse" x1="-386.733" y1="-1.662" x2="-386.649" y2="-2.002" gradientTransform="matrix(473.8713 0 0 325.8868 183511.188 1186.166)"><stop offset="0" stop-color="#770501"/><stop offset="1" stop-color="#991000"/></linearGradient><path fill="url(#v)" d="M500.4 445.4c2.8 39.2 1.7 106.6-34.2 132.7 0 0 4.7-95.2-25.1-151.1 0 0 52.5 128.3-37.9 273.8 0 0-25.6 64.2-83.4 5.3-57.8-59-134.9-27.9-134.9-27.9l29.7 4.1s-29.7 7.6-41.5 32.1c-11.5 24.1-68.7 23.4-135.9-106.4 12.4 38.8 35.8 87.5 80.4 132.6 0 0 36.1 29.4 61.6-7.1 25.5-36.7 60.1-57.5 89.5-49.9 29.4 7.6 56.5 44.8 67.7 57 11.2 12.2 58 50.4 117.1-110.5 0 0 89.5-49.2 46.9-184.7z"/><path fill="#8C0000" d="M250.5 562.9s17.8 9.9 30.9-4.9c0 0 4.9-1.9 7.1.4-.2 0-19.4-14.8-38 4.5z"/><path d="M287.113 557.522c.8.5 1.2.8 1.2.8-.3-.3-.7-.6-1.2-.8zm0 0c-4.5-2.8-20.8-11.1-36.7 5.3 0 0 18 2.8 27.1-6.2l3.6 1.3c.1 0 3.6-1.3 6-.4z" fill="#4A0100"/><linearGradient id="w" gradientUnits="userSpaceOnUse" x1="178.204" y1="691.648" x2="178.204" y2="621.458" gradientTransform="matrix(1 0 0 -1 0 800)"><stop offset="0" stop-color="#B08BAB"/><stop offset=".071" stop-color="#A07F9B" stop-opacity=".993"/><stop offset=".246" stop-color="#7E647B" stop-opacity=".975"/><stop offset=".426" stop-color="#644F61" stop-opacity=".957"/><stop offset=".609" stop-color="#51414F" stop-opacity=".939"/><stop offset=".797" stop-color="#463844" stop-opacity=".92"/><stop offset="1" stop-color="#423540" stop-opacity=".9"/></linearGradient><path opacity=".6" fill="url(#w)" d="M183.7 108.5c-52.8-3.5-64.7 55-64.7 55s5.8 10.3 52.8 14.2 65.6-7.1 65.6-7.1-1.1-58.6-53.7-62.1zm-11.5 66.9c-43.8-3.6-49.2-13.2-49.2-13.2s11.1-54.7 60.4-51.4 50.2 58 50.2 58-17.5 10.2-61.4 6.6z"/><path fill="#020202" d="M280.4 172c-.3-1.6-.4-3.3-.4-5 0-15.5 12.6-28 28-28s28 12.6 28 28c0 2.8-.4 5.5-1.2 8-.3 0-.7.1-1 .1-26.4 2.2-43.7-.5-53.4-3.1z"/><linearGradient id="x" gradientUnits="userSpaceOnUse" x1="327.859" y1="692.143" x2="327.859" y2="624.111" gradientTransform="matrix(1 0 0 -1 0 800)"><stop offset="0" stop-color="#B08BAB"/><stop offset=".071" stop-color="#A07F9B" stop-opacity=".993"/><stop offset=".246" stop-color="#7E647B" stop-opacity=".975"/><stop offset=".426" stop-color="#644F61" stop-opacity=".957"/><stop offset=".609" stop-color="#51414F" stop-opacity=".939"/><stop offset=".797" stop-color="#463844" stop-opacity=".92"/><stop offset="1" stop-color="#423540" stop-opacity=".9"/></linearGradient><path opacity=".6" fill="url(#x)" d="M322.5 108c51.2-3.4 62.8 53.4 62.8 53.4s-5.6 10-51.2 13.7c-45.6 3.7-63.7-6.9-63.7-6.9s.9-56.8 52.1-60.2zm11 65c42.6-3.5 47.9-12.8 47.9-12.8s-10.8-53.1-58.7-49.9-48.7 56.3-48.7 56.3 16.9 9.9 59.5 6.4z"/><linearGradient id="y" gradientUnits="userSpaceOnUse" x1="-370.576" y1="-2.636" x2="-370.576" y2="-1.566" gradientTransform="matrix(22.9552 0 0 53.0963 8759.743 261.967)"><stop offset="0" stop-color="#CE4920" stop-opacity=".3"/><stop offset="1" stop-color="#AD1813"/></linearGradient><path fill="url(#y)" d="M241.6 149.1L249 161l-1.2-14.2 4.3 9.4-.4-19.7 3.1 16.5 3.1-23.2.4 29.4 6.3-15.3s-8.7 27.8-8.7 39l-2-20.9v18l-3.1-14.6.4 13-9.6-29.3z"/><path opacity=".3" fill="#FFF" d="M120.7 171.2s46 27.3 110.9 5.5c-.1 0-58 41-110.9-5.5z"/><path opacity=".3" fill="#FFF" d="M131.7 191.4s41.6 23.7 93.2 2.1c0-.1-46.4 39.5-93.2-2.1zm142.7-17.2s55.5 22.3 108.6-5.1c0 0-46.6 43.8-108.6 5.1z"/><path opacity=".3" fill="#FFF" d="M281 190.4s43.3 19.8 87.3.5c.2 0-39.9 34.8-87.3-.5zm-147.7-67s18.3-25.1 47.2-24.3c28.8.8 42.6 18.6 48.7 28.4-.1.1-41.2-51.3-95.9-4.1zm148.3-1.5s38-49.5 85.5-3c.1-.1-42.1-34-85.5 3z"/><path opacity=".4" fill="#660300" d="M509 544.9c-16.8 37.5-38 55-38 55 .7-7.4 1.3-18.3 1.7-27.1-2 2-4.2 3.9-6.5 5.6 0 0 .2-3.9.2-10.7-4.9 38-12.9 62.6-12.9 62.6s43.9-24.4 55.5-85.4z"/><path opacity=".15" fill="#FFF" d="M261.8 571.7s15.5 1.4 22.4-8.5c-.1 0 5.7 17.7-22.4 8.5z"/><path opacity=".25" fill="#FFF" d="M105.6 261.7s-15-40.8 18.5-37.3S250 234.9 317.9 221c68.1-13.8 72.3-15.4 84.5.8 0 0-12.7-14.2-36.2-6.5-23.5 7.7-118.8 31.9-241.8 13.8.1 0-23.8-3.8-18.8 32.6z"/><radialGradient id="z" cx="-386.13" cy="-1.863" r=".429" gradientTransform="matrix(283.646 0 0 156.7657 109790.29 613.86)" gradientUnits="userSpaceOnUse"><stop offset="0" stop-color="#E04C89"/><stop offset="1" stop-color="#96003A"/></radialGradient><path fill="url(#z)" d="M258.3 394.2c-70.3-2.7-111.7-42.4-134.3-76.6 27.9 48.6 74.6 84.5 146.2 82.6 64.7-1.6 133.5-101 137.8-156.9-14.1 52.7-59.5 154.2-149.7 150.9z"/><g transform="translate(112.78 217.575)"><radialGradient id="A" cx="-1288.367" cy="-1.859" r=".436" gradientTransform="matrix(283.3736 0 0 166.8517 365231.688 409.33)" gradientUnits="userSpaceOnUse"><stop offset="0" stop-color="#E04C89"/><stop offset="1" stop-color="#96003A"/></radialGradient><path opacity=".7" fill="url(#A)" fill-opacity=".5" d="M281.9 15.7c-.9 30.7-47.5 138.8-132.1 143.5C57.1 164.3 22.4 84.1 5.7 46.8c0 0-7.2-17.4 1.3-24.4 2.8-2.3 4.9-3.5 7.6-3.9 0 0-17.3-3.8-13.4 33.2 1.4 13.1 3.4 29.3 9 46.7 27.8 49.4 74.7 86.2 147.2 84.2 33.9-.9 68.8-28.4 95.1-62.5 20.3-33.7 38.8-75.6 29.4-104.4z"/><radialGradient id="B" cx="-1287.974" cy="-2.16" r=".379" gradientTransform="matrix(220.2698 0 0 27.4445 283856.344 74.38)" gradientUnits="userSpaceOnUse"><stop offset="0" stop-color="#E04C89"/><stop offset="1" stop-color="#96003A"/></radialGradient><path opacity=".7" fill="url(#B)" fill-opacity=".5" d="M244.8 7.1s10.2-5.1 20-5.5c-6.8-.6-16-.2-25.3 4.3C223.3 13.7 124 31.1 44.2 23.1c34.2 5.1 127.8 15.2 200.6-16z"/></g><radialGradient id="C" cx="-385.804" cy="-1.891" r=".416" gradientTransform="matrix(229.0526 0 0 108.8605 88630.422 528.322)" gradientUnits="userSpaceOnUse"><stop offset="0" stop-color="#E04C89"/><stop offset="1" stop-color="#96003A"/></radialGradient><path fill="url(#C)" d="M146.3 316.8c22.4 32.5 57.8 63.2 116.2 60 53.7-3 92.2-47.7 113.3-87.7-114.4-53.3-205.8 8.9-229.5 27.7z"/><path opacity=".3" fill="#FFF" d="M130 297.4s36.7 89 129.8 83.8C353 376 393.1 252.6 393.1 252.6s-33.8 135-135 136.2C156.8 389.9 130 297.4 130 297.4z"/><linearGradient id="D" gradientUnits="userSpaceOnUse" x1="-385.804" y1="-1.58" x2="-385.804" y2="-3.048" gradientTransform="matrix(229.352 0 0 99.336 88746.102 515.733)"><stop offset="0" stop-color="#FFF" stop-opacity=".4"/><stop offset="1" stop-color="#FFF"/></linearGradient><path opacity=".3" fill="url(#D)" d="M376 289.2c-10.3-4.8-20.5-8.7-30.4-11.7 0 1.4 0 2.7-.3 3.9-3 1.2-6.6-.2-9.5 1.6 5.6 8-4.9 7-9.9 7.3-.8 5 3.7 6.5 4.5 10.8 1 5.1-2 11.5-6.8 10.3-3.9-1-7-6.5-10.3-8.8-6.8-4.8-8.6-3.1-9.7 3-1 5.8-.9 9.8-7.8 7.1-4-1.6-10.1-10.4-15.2-6.2-4.3 3.6 2.4 17-3.1 19.7-5.4 2.6-8-7.2-8.9-9.9-2.3-7.3-8.9-7.9-13.8-1.2-3.3 4.6-2.1 22.9-11.9 18.7-4.5-1.9-5.6-11.9-11.9-7.2-4.5 3.3-2.5 16.6-10.7 16.5-3.9 0-3.3-1.8-4.6-5-.6-1.4-.8-3.4-1.7-4.8-.7-1.2-2-.5-2.6-1.4-3.3-4.7-.7-10.5-3.8-14.9-4.9-6.9-8.8.2-9.4 5.6-.5 5-.1 13.8-7.6 10.6-.1-3.3 1.3-7 0-10.2-2-5.4-5.7-3.9-10.3-5.7-.9-5.3 5-8.9 4.6-13.3-.5-4.8-5.3-.8-8.1-3.2-.1-1.5 0-2.9.1-4.3-14.2 7.8-24.7 15.5-30.7 20.3 22.4 32.5 57.8 63.2 116.2 60 54-2.8 92.3-47.5 113.6-87.6z"/><radialGradient id="E" cx="-385.804" cy="-1.891" r=".129" gradientTransform="matrix(0 108.86 -1713.927 0 -2979.458 42321.273)" gradientUnits="userSpaceOnUse"><stop offset="0" stop-color="#A33665"/><stop offset="1" stop-color="#7D002F"/></radialGradient><path opacity=".6" fill="url(#E)" d="M146.3 316.8c22.4 32.5 57.8 63.2 116.2 60 53.7-3 92.2-47.7 113.3-87.7-114.4-53.3-205.8 8.9-229.5 27.7zm65.9 19.3c-35.6-32.6 26.4-59.9 36.4-58.4 9.9 1.5 15.9 55.4 15.9 55.4l.8-56.9s38.7-3.8 53.8 25.7c15.1 29.6-71.3 66.8-106.9 34.2z"/><linearGradient id="F" gradientUnits="userSpaceOnUse" x1="-352.799" y1="-2.474" x2="-352.799" y2="-1.472" gradientTransform="matrix(11.196 0 0 56.69 4208.042 410.432)"><stop offset="0" stop-color="#361221"/><stop offset="1" stop-color="#96003A"/></linearGradient><path opacity=".4" fill="url(#F)" d="M260.7 270.2s4.3 32.2 2.8 56.8c0 0-1.9-44.5-10.9-54.4l8.1-2.4z"/><linearGradient id="G" gradientUnits="userSpaceOnUse" x1="-385.791" y1="-2.76" x2="-385.791" y2="-.349" gradientTransform="matrix(227.256 0 0 25.727 87917.914 284.82)"><stop offset="0" stop-color="#FFF" stop-opacity="0"/><stop offset="1" stop-color="#FFF"/></linearGradient><path fill="url(#G)" d="M130.8 228.8s130.6 16.8 227.7-13c-.1 0-104.3 47.9-227.7 13z"/><linearGradient id="H" gradientUnits="userSpaceOnUse" x1="-385.879" y1="-1.673" x2="-385.879" y2="-.734" gradientTransform="matrix(239.732 0 0 99.41 92765.258 534.95)"><stop offset="0" stop-color="#FFF" stop-opacity="0"/><stop offset="1" stop-color="#FFF"/></linearGradient><path fill="url(#H)" d="M137.6 318.3s45.3 69.6 123.1 64.2c77.8-5.4 117.1-86 117.1-86s-31.4 98.9-121 99.6c-89.7.7-119.2-77.8-119.2-77.8z"/><linearGradient id="I" gradientUnits="userSpaceOnUse" x1="-385.98" y1="-1.419" x2="-385.98" y2="-3.082" gradientTransform="matrix(255.5 0 0 86.63 98791.34 588.11)"><stop offset="0" stop-color="#FFF" stop-opacity="0"/><stop offset="1" stop-color="#FFF" stop-opacity=".3"/></linearGradient><path fill="url(#I)" d="M45 379.2s175.6 26.9 255.9 86.7c.2.1-123.2-48.1-255.9-86.7z"/><linearGradient id="J" gradientUnits="userSpaceOnUse" x1="-379.103" y1="-1.198" x2="-379.103" y2="-2.016" gradientTransform="matrix(46.26 0 0 84.2 17803.53 639.15)"><stop offset="0" stop-color="#CE4920" stop-opacity="0"/><stop offset="1" stop-opacity=".8"/></linearGradient><path opacity=".4" fill="url(#J)" d="M284.9 470.7c-.4-1.6.6-4 .8-5.6.7-5.2 4.2-6.4 3.5-13.6-16.2-5.9-32.1-12-44.2-15.6l.2.2v1.4c-8.1 4.7 8.6 6.5 3.3 13 6.3-.8 3.2 5.3 2.2 8-1.6 4.3-1.5 7.1.2 11.1 1.9 4.4 1.8 6.2 1.8 10.9 0 1.9.7 3.7.5 5.6-.2 1.7-1.7 3.1-1.9 4.7-.4 4.8 3.3 4 5.7 7.5 2.5 3.6.2 6.8-1.1 10.3-.9 2.3-3.7 8.3-.8 10.7 3.8 3.1 6.1-2 6.5-4.6.4-2.4-.8-4.6-.8-6.6 0-3 .9-3.6 1.7-6.1 1.8-5.7-1.2-6.6-2.9-11.5-1.8-5.1 2-7.4 2-12.3 0-3.1-4.7-9.7-.6-11.3.1-1-.7-3.1-.5-3.6.6-1.7.6-1.2 1.5-2.7 1.2-1.8 3.3-4.5 5.6-2.9 2.1 1.5.4 5.2.9 7.5.6 2.4 3 4 1.8 7.5-.7 2.1-4.2 3.2-4.5 5.6-.4 3 2.3 3.5 2.7 6.1.5 3.1-2.1 4.3-1.9 7.5.2 2.8 2.7 4.3 2.4 7.4 3.1 1.3 5.2-.2 6.6-3.1 2-4.1-.9-4.6-1.5-8.1-.3-2 1-3 1.1-4.7.1-2.6-.2-2.2-.6-4.1-.7-2.9-1.4-5.6-1.4-9 0-5.3 5.2-14 7-5.1.7 3.2.2 5 1.5 8.3 1.2 3.1.9 5 .9 8.5 3.8 2.2 5.3-4 4.6-6.9-.3-1.9-1.9-2.7-2.3-4.4z"/><g transform="translate(357.3 325.37)"><path fill="#920B04" fill-opacity=".779" d="M6.1 40.6c-1.4 10.3-3 40 19.3 40s18.5-32.2 18.5-32.2-.4-25.2-24.5-47.3C19 2.6 8.1 26.3 6.1 40.6z"/><linearGradient id="K" gradientUnits="userSpaceOnUse" x1="-3235.607" y1="-1.927" x2="-3236.307" y2="-1.934" gradientTransform="matrix(39.1 0 0 73.96 126521.63 180.68)"><stop offset="0" stop-color="#FFF" stop-opacity=".786"/><stop offset="1" stop-color="#FFADA6" stop-opacity=".69"/></linearGradient><path fill="url(#K)" d="M19.4 1.1c0 1.3-16.1 25.3-18 39.6C0 51-1.1 74.9 21.1 74.9c22.3 0 18.6-32.2 18.6-32.2s-1-18.2-20.3-41.6V.8v.3z"/><linearGradient id="L" gradientUnits="userSpaceOnUse" x1="-3232.498" y1="-2.292" x2="-3232.498" y2="-1.545" gradientTransform="matrix(28.97 0 0 47.66 93670.7 120.55)"><stop offset=".126" stop-color="#85211B"/><stop offset="1" stop-color="#FFF"/></linearGradient><path fill="url(#L)" fill-opacity=".7" d="M20.9 48.9c16.5 0 13.8-19.6 13.8-19.6s-.9-14-15.2-28.1c0 0-11 19-13.1 26.9-1.1 6.2-2 20.8 14.5 20.8z"/><linearGradient id="M" gradientUnits="userSpaceOnUse" x1="-3234.363" y1="-1.881" x2="-3234.363" y2="-1.042" gradientTransform="matrix(33.64 0 0 54.6 108811.19 151.92)"><stop offset="0" stop-color="#FFF" stop-opacity="0"/><stop offset="1" stop-color="#FFF"/></linearGradient><path fill="url(#M)" d="M37.1 42.2s-.5-10.7-9.5-25.6c6 11.9 6.4 20 6.4 20s3.3 29-16.8 29c-6.5 0-10.8-2.2-13.6-5.6 2.2 6.2 7 11.2 16.7 11.2 20.1.2 16.8-29 16.8-29z"/></g><path opacity=".3" fill="#FFF" d="M162.6 77.3s56.1-6.8 74.7 35.9c0 0-5.5-25.3-.8-27.3 4.6-2.1 11.4 38.8 11.4 38.8s2.5-22.4 4.2-22.8c1.7-.4 1.7 16.5 1.7 16.5s3.4-38.8 10.5-39.2c7.2-.4.8 41.4.8 41.4s12.7-43.9 67.9-42.2c0 0-37.1-8.9-61.6 16 0 0 2.5-24.9-5.9-24.9s-12.7 25.3-12.7 25.3-.4-5.9-1.7-5.9c-1.3 0-3 17.3-3 17.3s-8.9-33.3-13.9-32.1c-5.1 1.3-3 19.4-3 19.4s-22.6-24.9-68.6-16.2z"/><path fill="#AF2419" d="M252.142 209.804s.7-7.2-7-6.7c-7.7.4-20.1 8.5 7 6.7z"/><path fill="#95110A" d="M245.142 203.104c-3.7.2-8.6 2.3-9.4 4.1 1.6.6 7.1 2.5 14.5.5l1.9 2.1s.7-7.2-7-6.7z"/><path fill="#6E0301" d="M251.442 206.104c-.8-1.7-2.6-3.2-6.2-3s-8.3 2.2-9.4 3.9c3 .4 11.2 1.2 15.6-.9z"/><path fill="#AF2419" d="M256.8 209.804s-.7-7.2 7-6.7c7.6.4 19.9 8.5-7 6.7z"/><path fill="#95110A" d="M263.7 203.104c3.7.2 8.6 2.3 9.4 4.1-1.5.6-7.1 2.5-14.5.5l-1.9 2.1c.1 0-.6-7.2 7-6.7z"/><path fill="#6E0301" d="M257.5 206.104c.8-1.7 2.6-3.2 6.2-3s8.3 2.2 9.4 3.9c-3 .4-11.2 1.2-15.6-.9z"/><linearGradient id="N" gradientUnits="userSpaceOnUse" x1="-385.802" y1="-1.543" x2="-385.802" y2="-2.207" gradientTransform="matrix(228.75 0 0 93.96 88514.57 508.86)"><stop offset="0" stop-color="#FFF" stop-opacity=".7"/><stop offset="1" stop-color="#FFF"/></linearGradient><path opacity=".2" fill="url(#N)" d="M262.4 376.8c53.7-3 92.2-47.7 113.3-87.7-4.8-2.3-9.6-4.3-14.4-6.1.3 4-.5 7.8-3.7 8.9-4.8 1.5-5.6-2.5-7.4 3.5-1.5 4.8-3.1 2.2-7.1 3.3-3.8 1-2.6 4.1-2.4 7.1.4 8-.3 16.8-9.9 16.7-3.8 0-7.3-2.3-11.1-1.9-1.5.2-2 .3-3.2 1.1-1.3.9-2.2 3.9-3.6 4.1-2.4.3-3.5-5.5-6.7-2.5-2.8 2.6 1.1 8.4-3.8 9.6-3.5.9-5.7-3.6-9.5-2.5-3.5 1-2.3 5.1-2.5 8.5-.4 5.2-2 5.4-6.7 3.7-1.9-.7-2.5-.9-4.4-.7-1.7.2-3.5 1.1-5.6 0-2.4-1.3-2.1-4.2-4.3-6-1.5-1.3-6.5-4.5-8.4-2.5-1.5 1.6.8 7.9.7 10.3-.1 2.8 1.6 9.6-.9 10.8-1.7.8-7.5-.4-9-1.6-2.5-2.1-3.1-7-5.7-9.5-2.3-2.2-6.7-3-9.2-.6-2.4 2.4 0 7.3-1.5 10.3-1.6 3.3-5.9 4.2-9.1 3-3.6-1.4-3.4-4.7-5.5-6.8-2.9-2.7-8.6.1-11.4-2.4-2.8-2.5-.8-6.8-1.9-9.9-.3-.8-1.9-3.5-2.8-3.7-1.9-.6-2.3 1.1-3.7 1.8-1 .5-3.2.4-4.2 1.3-1.5 1.3-.7 2.7-1.2 4.5-1.2 4.8-5.3 3.7-9 2.2-3.2-1.2-3.4-2.8-3.4-6.2 0-2.6-.2-6.9-1.9-8.9-2-2.3-5.2-.8-7.9-1.7-.5-3.2 3.1-5.7.7-8.1-1.3-1.3-3-.6-3.8-2.4-.7-1.4.3-3.8-.1-5.3-1.3-5.1-4.8-.8-6.8-3.3-.4-.5-.4-1.4-.1-2.4-7.3 4.7-12.9 8.9-16.8 12 22 32.6 57.4 63.3 115.9 60z"/><linearGradient id="O" gradientUnits="userSpaceOnUse" x1="254.95" y1="574.323" x2="253.356" y2="604.56" gradientTransform="matrix(1 0 0 -1 0 800)"><stop offset="0" stop-color="#A6261A" stop-opacity=".5"/><stop offset=".999" stop-color="#AB2015" stop-opacity=".5"/><stop offset="1" stop-color="#AB2015" stop-opacity=".5"/></linearGradient><path fill="url(#O)" d="M241 226.5c9.1-.4 18.4-.9 28-1.7 4-1.9 7.6-4.3 9.3-7.1 3.5-5.7-.1-12.3-2.2-15.3 1.7 3.4 1.2 9.5-2.7 11.3-4.7 2.1-31 3.8-38.1-.5-7.1-4.2-2.3-11.3-2.3-11.3-9.7 13.5-1 20.8 8 24.6z"/><linearGradient id="P" gradientUnits="userSpaceOnUse" x1="-379.733" y1="-3.389" x2="-379.733" y2="-1.923" gradientTransform="matrix(50 0 0 24.35 19241.55 267.84)"><stop offset="0" stop-opacity=".3"/><stop offset="1" stop-color="#B82C1E" stop-opacity=".8"/></linearGradient><path fill="url(#P)" d="M232.5 214.6c5.3 5.7 10.3 9.4 13.7 11.7 6.6-.3 13.4-.7 20.3-1.3 4.2-2.9 12.3-9.5 12.6-16.8-.8-2.4-2-4.5-3-5.8 1.7 3.4 1.2 9.5-2.7 11.3-4.7 2.1-31 3.8-38.1-.5-7.1-4.2-2.3-11.3-2.3-11.3-2.2 3-3.4 5.7-4 8.1.9 1.3 1.9 2.9 3.5 4.6z"/><radialGradient id="Q" cx="-385.804" cy="-1.89" r=".874" gradientTransform="matrix(229.05 0 0 108.83 88630.42 528.19)" gradientUnits="userSpaceOnUse"><stop offset="0" stop-color="#B3174B"/><stop offset="1" stop-color="#2B0011"/></radialGradient><path opacity=".5" fill="url(#Q)" d="M228.5 275.5c-40.9 11.1-70.3 31.8-82.2 41.3 22.4 32.5 57.8 63.2 116.2 60 53.7-3 92.2-47.7 113.3-87.7-35.4-16.5-68.6-21.9-98.2-20.9 14.7 2 56.9 9.6 65.6 30.4 10.5 25.3-48.3 49.1-78.5 52.6-30.4 3.4-81.2-4-79.5-36.7.5-18.9 23.8-31.7 43.3-39z"/><path opacity=".3" fill="#FFF" d="M235.2 200s17.8-7.2 38.9 0c.1 0-19.2-13.5-38.9 0z"/><radialGradient id="R" cx="-381.348" cy="-1.991" r=".897" gradientTransform="matrix(63.16 0 0 120.07 24352.44 604.13)" gradientUnits="userSpaceOnUse"><stop offset="0" stop-opacity="0"/><stop offset="1"/></radialGradient><path fill="url(#R)" fill-opacity=".2" d="M282.8 438.4s15.5-.1 16.7-13c1.1-13.1-7-88.7-7-88.7s-.6-18.5-24.4-18.5c-23.6 0-24.3 18.5-24.3 18.5s-8 75.5-7.3 88.7c.7 13 17 13 17 13h29.3z"/><g transform="translate(239.53 432.16)"><linearGradient id="S" gradientUnits="userSpaceOnUse" x1="-2296.237" y1="-1.913" x2="-2295.153" y2="-1.913" gradientTransform="matrix(48.36 0 0 84.2 111055.86 204.88)"><stop offset="0" stop-color="#3ED8BB"/><stop offset="1" stop-color="#3FB5BA"/></linearGradient><path fill="url(#S)" d="M42.9 36.4c-.4-1.6.6-4 .8-5.6.7-5.2 4-9.2 5.7-14.1C33.2 10.8 15.1 5.2 3 1.6l.2.2v1.4c-8.1 4.7 8.6 6.5 3.3 13 6.3-.8 3.2 5.3 2.2 8-1.6 4.3-1.5 7.1.2 11.1 1.9 4.4 1.8 6.2 1.8 10.9 0 1.9.7 3.7.5 5.6-.2 1.7-1.7 3.1-1.9 4.7-.4 4.8 3.3 4 5.7 7.5 2.5 3.6.2 6.8-1.1 10.3-.9 2.3-3.7 8.3-.8 10.7 3.8 3.1 6.1-2 6.5-4.6.4-2.4-.8-4.6-.8-6.7 0-3 .9-3.6 1.7-6.1 1.8-5.7-1.2-6.6-2.9-11.5-1.8-5.1 2-7.4 2-12.3 0-3.1-4.7-9.7-.6-11.3.1-1-.7-3.1-.5-3.6.6-1.7.6-1.2 1.5-2.7 1.2-1.8 3.3-4.5 5.6-2.9 2.1 1.5.4 5.2.9 7.5.5 2.4 3 4 1.8 7.5-.7 2.1-4.2 3.2-4.5 5.6-.4 3 2.3 3.5 2.7 6.1.5 3.1-2.1 4.3-1.9 7.5.2 2.8 2.7 4.3 2.4 7.4 3.1 1.3 5.2-.2 6.6-3.1 2-4.1-.9-4.6-1.5-8.1-.3-2 1-3 1.1-4.7.1-2.6-.2-2.2-.6-4.1-.7-2.9-1.4-5.6-1.4-9 0-5.3 5.2-14 7-5.1.7 3.2.2 5 1.5 8.3 1.2 3.1.9 5 .9 8.5 3.8 2.2 5.3-4 4.6-6.9-.4-1.8-1.9-2.6-2.3-4.3z"/><linearGradient id="T" gradientUnits="userSpaceOnUse" x1="-2296.47" y1="-2.106" x2="-2295.467" y2="-2.106" gradientTransform="matrix(49.9 0 0 31.24 114573.7 82.94)"><stop offset="0" stop-color="#F6D62C"/><stop offset=".385" stop-color="#FBB316"/><stop offset=".651" stop-color="#F6D60E"/><stop offset="1" stop-color="#FBB316"/></linearGradient><path fill="url(#T)" d="M3.2 1.7v1.4c-8.1 4.7 8.6 6.5 3.3 13 5-.7 4.1 3 3 6 .2 0 .4-.1.6-.1 2.3-.2 2.4.9 4.2 1.5.6.2 2.5.1 2.9.5.9.8.4 2.8.9 3.5.2.3.4.4.7.6.3-.8.5-.7 1.2-1.9 1.2-1.8 3.3-4.5 5.6-2.9 1.8 1.3.8 4.2.8 6.5 1.6-.4 2.7-1 4.8-.9.6.5 1 1.1 1.3 1.6 1.7-3.7 4.5-5.8 5.7.2.2.8.3 1.5.3 2.1 1.6-.5 3.1-1.2 5-1 .1-.4.2-.8.2-1.1.7-5.1 12.6-11.3 4.3-15.1C31.7 9.7 15 5.1 2.9 1.5c.2.1.2.2.3.2z"/><g transform="translate(7.98 32.94)"><linearGradient id="U" gradientUnits="userSpaceOnUse" x1="-2330.9" y1="-2.381" x2="-2329.889" y2="-2.381" gradientTransform="matrix(10.44 0 0 16.27 24337.85 57.21)"><stop offset="0" stop-color="#6CAF11"/><stop offset="1" stop-color="#52840A"/></linearGradient><path fill="url(#U)" d="M24 26.1c.7.2 1.5.4 2.3.5.2-2.2-1.7-3.1-2.2-5.8-.3-2 1-3 1.1-4.7.1-2.6-.2-2.2-.6-4.1l-.3-1.2c-2.7-.4-5.5-.4-8.3-.5-.1.2-.1.4-.1.6-.4 3 2.3 3.5 2.7 6.1.3 2.1-.7 3.3-1.4 4.9 3-.5 5.9 1.7 6.8 4.2z"/><linearGradient id="V" gradientUnits="userSpaceOnUse" x1="-2332.746" y1="-2.174" x2="-2331.745" y2="-2.174" gradientTransform="matrix(10.98 0 0 25.28 25610.86 69.15)"><stop offset="0" stop-color="#6CAF11"/><stop offset="1" stop-color="#52840A"/></linearGradient><path fill="url(#V)" d="M2.8 2.7c-.7-.5-1.4-.9-2.2-1.2.1.3.2.5.3.8 1.9 4.4 1.8 6.2 1.8 10.9 0 1.9.7 3.7.5 5.6-.2 1.7-1.7 3.1-1.9 4.7v.1c.1 0 .1 0 .2-.1 3.4-.9 4.9 4.2 8.7 3.2.3-.1.6-.2.9-.4-.5-.9-1-1.9-1.5-3.1-1.8-5.1 2-7.4 2-12.3 0-.3 0-.6-.1-.9-1.2-.1-2.4-.3-3.5-.7-1.6-1.9-3.2-5.1-5.2-6.6z"/></g><g transform="translate(6.99 18.96)"><linearGradient id="W" gradientUnits="userSpaceOnUse" x1="-2306.81" y1="-2.596" x2="-2305.818" y2="-2.596" gradientTransform="matrix(7.3 0 0 11.88 16838.2 48.5)"><stop offset="0" stop-color="#FE980E"/><stop offset="1" stop-color="#FF5906"/></linearGradient><path fill="url(#W)" d="M38.4 23.3c0-.6 0-1.2-.2-1.7-.4-1.6-2-2.4-2.4-4.2-.4-1.6.6-4 .8-5.6v-.1c-1.7 0-3.7.1-5.5 0v.1c.7 3.2.2 5 1.5 8.3.5 1.3.8 2.4.9 3.5 1.7-.4 3.4-.5 4.9-.3z"/><linearGradient id="X" gradientUnits="userSpaceOnUse" x1="-2319.174" y1="-2.324" x2="-2318.171" y2="-2.324" gradientTransform="matrix(9.48 0 0 18 22006.1 59.8)"><stop offset="0" stop-color="#FE980E"/><stop offset="1" stop-color="#FF5906"/></linearGradient><path fill="url(#X)" d="M24.3 17c0-2.2.9-5.1 2.1-7-.8-.5-1.6-.9-2.7-1-1.5-.2-2.8.1-4.1.4-.1.9-.1 1.8 0 2.5.5 2.4 3 4 1.8 7.5-.7 2.1-4.2 3.2-4.5 5.6v.5c1.6 0 2.2.5 3.6 1 1.3.5 3.4.6 5.3.3-.1-.2-.1-.4-.2-.7-.6-3-1.3-5.7-1.3-9.1z"/><linearGradient id="Y" gradientUnits="userSpaceOnUse" x1="-2328.345" y1="-2.205" x2="-2327.342" y2="-2.205" gradientTransform="matrix(12.22 0 0 23.35 28444.1 64.91)"><stop offset="0" stop-color="#FE980E"/><stop offset="1" stop-color="#FF5906"/></linearGradient><path fill="url(#Y)" d="M12 13.6c.1-1-.7-3.1-.5-3.6.6-1.5.6-1.3 1.3-2.3-.3-.5-.4-1.2-.7-2.1-.5-1.7-1.2-2.2-3-2.3-.8 0-1.6.3-2.3.2-.8-.2-1.6-.9-2.4-1.3-.5-.2-1-.4-1.4-.5C2.6 3 2 4.4 1.7 5.3.1 9.6.2 12.4 1.9 16.4c.3.6.5 1.2.7 1.8 1.2.9 2.3 1.9 3.1 3.1 1.9 2.9 2.8 3.6 6.4 3.8h.5v-.2c0-3-4.7-9.6-.6-11.3z"/></g><path opacity=".3" fill="#FFF" d="M28.1 18.8c1.2.4 1.7.9 1.7 2.2 0 .8 0 1.7.1 2.5 0 .7 0 .7.6.8.5.1 2.6-.5 2.6.2.8.2 1.5-1.6 2.2-2 .7-.4 1.6.1 2 .8.3.4.2 1.1.7 1.4.5.2.8-.1 1.2-.1.5 0 .4.4.8.5.6.2.6-.5.8-.9.4-.7.9-1.4 1.6-1.7.4-.2 1-.5 1.5-.5.2 0 .5.4.8.1.6-.4.5-2.3.3-2.9-.3-.9-1.6-1.5-2.6-1.3-.4.1-.8.3-1.1.6-.2.2-.3.8-.4.9-.7.5-1.3-.5-1.5-1-.3-.7-.5-1.5-1.1-2-1.1-1-2.9-.7-3.9.3-.7.6-.7 1.7-1.3 2.4-.5.5-.8-.7-1.3-1.1-1.2-1-2.7-.1-3.9.4m-15.5 5.5c-.8.1-1.3 1.6-1.3 2.3 0 1.1 1.1 1.4 1.4 2.4.4 1.5-1.3 2.6-1.7 3.9-.5 2.3 2.4 1.9 2.6 3.9 0 .3-.1.7.1.9.3.4 1.3.6 1.7.4.6-.3.9-1.6 1.2-2.1.4-.9.5-1.9.7-2.9.3-1.2 1.2-2.4.6-3.7-.5-1.1-1.5-1.5-2.3-2.2-.6-.6-.9-1.3-1.6-1.7-.7-.3-.8-.6-.9-1.4m.9 20.8c-.1 1 .9 1.5.7 2.5-.2.8-.7 1.5-.8 2.4-.1.9.7 1.9.4 2.7-.2.9-1.4 1.6-1.9 2.3-.6 1-1 1.5-.3 2.6.6.9 1.5 1.6 2.7 1.2 2.4-.7 1.3-3.8 1.1-5.4-.1-.8-.1-1.4.2-2.2.3-.9.2-1.4-.1-2.3-.3-1.1.3-3.5-1.4-3.6m1.5 30.2c-1 1.1-1.9 2.6-2.3 4-.2.6-.4 1.5-.2 2.1.5 1.6 1.9 1.6 2.9.5.9-1 1.5-2.4 1.7-3.8.1-.9 0-1.3-.6-1.8-.4-.4-.5-.9-.9-1.3m12.4-33.9c-.2.6-.9 1.1-1.3 1.5-.6.6-1.3 1.2-1.8 1.8-.5.7-1.2 2.3-.5 3 .3.3.8.4 1.1.8.3.4.7.9.9 1.4.3.5.4 2 .9 2.3.7.4 1.5-.5 1.6-1.1.2-1-.2-2 .3-3 .6-1 .8-1.9.5-3.1-.1-.4-.3-.8-.5-1.2-.2-.4-.6-.6-.9-1-.1-.2-.2-.4-.2-.6m-1.7 13c-.5.6-1 1.8-1.1 2.6-.2 1.2 1 1.3 1.7 2s.4 1.2.7 2c.3.7 1.1.6 1.6.2 1.6-.9 1.9-4.1.6-5.4-.4-.3-1-.9-1.4-1.1-.5-.2-1.3-.2-1.8-.4m13.6-15.8c.8.8.9 3.1.8 4.1-.1.7-.3 1.3-.5 2-.4 1.6 1.1 2 1.9.6.5-.8 1-2 .9-3-.1-1-.7-1.1-1.1-1.8-.4-.5-.3-.7-.8-1.1-.3-.2-.6-.5-.8-.8"/></g><linearGradient id="Z" gradientUnits="userSpaceOnUse" x1="-381.014" y1="-1.884" x2="-380.012" y2="-1.884" gradientTransform="matrix(55.6 0 0 113.58 21427.25 589.87)"><stop offset="0" stop-color="#3ED8BB"/><stop offset=".385" stop-color="#3FB5BA"/><stop offset=".651" stop-color="#3ED8BB"/><stop offset="1" stop-color="#3FB5BA"/></linearGradient><path fill="url(#Z)" d="M268.3 432.7h14.1s12.5-.1 13.6-12.3c1.1-12.4-4.3-83.9-4.3-83.9s-.6-17.5-23.5-17.5h.1c-22.8 0-23.5 17.5-23.5 17.5s-5 71.5-4.3 83.9c.7 12.3 13.6 12.3 13.6 12.3h14.2z"/><linearGradient id="aa" gradientUnits="userSpaceOnUse" x1="-380.461" y1="-.447" x2="-380.461" y2="-2.249" gradientTransform="matrix(55.2 0 0 13.57 21267.06 459.89)"><stop offset="0" stop-color="#FFF" stop-opacity=".339"/><stop offset="1" stop-color="#2CAB98"/></linearGradient><path fill="url(#aa)" fill-opacity=".7" d="M268.2 432.7h12.7c12.8 0 15.3-8.8 15.3-13.6-4.3 4.8-11.8 6.1-16 7.8-5.5 2.3-10.6 1.9-13.3 1.4-2.8-.5-2.9-2.1-12.1-1-4.8.5-10-1.9-13.9-4.3 1.5 5.7 5.1 9.7 14.6 9.7h12.7z"/><linearGradient id="ab" gradientUnits="userSpaceOnUse" x1="-381.023" y1="-2.159" x2="-380.022" y2="-2.159" gradientTransform="matrix(55.7 0 0 27.1 21460 461.5)"><stop offset="0" stop-color="#6CAF11"/><stop offset=".385" stop-color="#52840A"/><stop offset=".651" stop-color="#6CAF11"/><stop offset="1" stop-color="#52840A"/></linearGradient><path fill="url(#ab)" d="M295 389.4c.1 1.2.1 2.4.2 3.6-4.7-2.3-9.8-1.2-15.8 1.4-7.8 3.5-16.6 1.2-25.3-1.9-4.6-1.7-9.5-.6-13 .8-.4 7.9-.7 14.9-.9 19.4 2.2.9 5.3 1.5 8.8.5 0 0 8.3 2.4 12.5 1.7 0 0 1.6-.5 4 .7s5.4 1.2 6.9.3c0 0 4.9.2 6.8-1 0 0 3.1-.3 4.3-.9 0 0 4.8-.2 7.3-2.6 0 0 2.5 0 5.2-.3-.2-5-.6-12.8-1-21.7z"/><linearGradient id="ac" gradientUnits="userSpaceOnUse" x1="-380.963" y1="-2.521" x2="-379.961" y2="-2.521" gradientTransform="matrix(55.2 0 0 13.3 21266.9 436.8)"><stop offset="0" stop-color="#81C819"/><stop offset=".385" stop-color="#71B612"/><stop offset=".651" stop-color="#81C819"/><stop offset="1" stop-color="#71B612"/></linearGradient><path fill="url(#ac)" d="M287.9 409.4c3.9.3 6.5.3 8.1.2-.2-3.6-.4-8-.6-12.9-1.3 0-2.8 0-3.8-.1-2-.2-5.8.7-7.8 1.6-2 .9-3.9.8-6.3.4s-2.9-1.4-6.1-.2c-3.3 1.2-6.5 1.6-6.5 1.6s-.8-.4-2.2-.3c-1.4.1-4.8-.2-4.8-.2l-4.3.4c-3.6 1.7-10.1.6-12.6.1-.1 2.2-.2 4.3-.3 6.2 6.7-1 10.4 2.9 10.4 2.9 6.2-2 9.8.8 9.8.8 8.6-2.5 18.4-1.1 27-.5z"/><linearGradient id="ad" gradientUnits="userSpaceOnUse" x1="-380.488" y1="-1.966" x2="-379.487" y2="-1.966" gradientTransform="matrix(51.7 0 0 58.7 19913.4 463.1)"><stop offset="0" stop-color="#F6D62C"/><stop offset=".385" stop-color="#FBB316"/><stop offset=".651" stop-color="#F6D60E"/><stop offset="1" stop-color="#FBB316"/></linearGradient><path fill="url(#ad)" d="M291.7 335.5c-2-17.6-23.2-17.3-23.2-17.3s-21.8-.3-23.7 17.3c-.7 6.2-1.5 18.3-2.2 31.4 2.2 3.6 5.1 7.2 8.2 8.2 7.1 2.4 7.8-2.1 17.8.9 10 2.9 13.5-.9 18.4-3.1 2.1-1 4.9-.3 7.4.8-1-15.5-1.9-30.9-2.7-38.2z"/><linearGradient id="ae" gradientUnits="userSpaceOnUse" x1="-380.805" y1="-2.132" x2="-379.805" y2="-2.132" gradientTransform="matrix(54 0 0 29.3 20802.7 444.1)"><stop offset="0" stop-color="#FE980E"/><stop offset=".385" stop-color="#FF5906"/><stop offset=".651" stop-color="#FE980E"/><stop offset="1" stop-color="#FF5906"/></linearGradient><path fill="url(#ae)" d="M294.2 372.7c0 .4 0 .7.1 1.1-2.5-1.1-5.2-1.8-7.4-.8-4.8 2.3-8.3 6.1-18.4 3.1-10-2.9-10.7 1.6-17.8-.9-3.1-1-5.9-4.6-8.2-8.2-.5 8.9-1 18.3-1.3 26.4 3.5-1.4 8.3-2.5 13-.8 8.7 3.1 17.5 5.4 25.3 1.9 6-2.7 11.1-3.7 15.8-1.4-.4-6.5-.8-13.4-1.1-20.4z"/><linearGradient id="af" gradientUnits="userSpaceOnUse" x1="-380.805" y1="-2.132" x2="-379.805" y2="-2.132" gradientTransform="matrix(54 0 0 29.3 20802.7 444.1)"><stop offset="0" stop-color="#FE980E"/><stop offset=".385" stop-color="#FF5906"/><stop offset=".651" stop-color="#FE980E"/><stop offset="1" stop-color="#FF5906"/></linearGradient><path fill="url(#af)" d="M294.2 372.7c0 .4 0 .7.1 1.1-2.5-1.1-5.2-1.8-7.4-.8-4.8 2.3-8.3 6.1-18.4 3.1-10-2.9-10.7 1.6-17.8-.9-3.1-1-5.9-4.6-8.2-8.2-.5 8.9-1 18.3-1.3 26.4 3.5-1.4 8.3-2.5 13-.8 8.7 3.1 17.5 5.4 25.3 1.9 6-2.7 11.1-3.7 15.8-1.4-.4-6.5-.8-13.4-1.1-20.4z"/><path fill="#3FB5BA" d="M255.3 420.4c-.1-.3-.4-.6-.6-.9-.2-.2-.2-.5-.3-.8-.1.5 0 1.1.3 1.5.2.3.5.5.6.9v.2c0-.3.1-.7 0-.9z"/><g transform="translate(242 325)"><radialGradient id="ag" cx="-2213.068" cy="-3.426" r=".728" gradientTransform="matrix(3.5 0 0 5.9 7793.2 81.5)" gradientUnits="userSpaceOnUse"><stop offset="0" stop-color="#FFF" stop-opacity="0"/><stop offset=".917" stop-color="#FFF" stop-opacity=".917"/><stop offset="1" stop-color="#FFF"/></radialGradient><path opacity=".3" fill="url(#ag)" d="M8.1 58.5c-2.3-.4-2.7 5.1-.6 5.7 2.1.6 2.5-3 1.9-4.2-.3-.7-.8-1.5-1.6-1.6"/><path opacity=".3" fill="#FFF" d="M8.1 59.2c-1.7-.6-.6 1.8-.4 2.5.8.1.7-1.8.5-2.2"/><path opacity=".3" fill="#FE980E" d="M7.5 64.2c-.9-.2-1.3-1.3-1.4-2.4-.1 1.4.4 2.8 1.4 3.1 1.7.4 2.2-1.7 2.1-3.3-.1 1.4-.7 2.9-2.1 2.6z"/><radialGradient id="ah" cx="-2258.934" cy="-4.562" r=".432" gradientTransform="matrix(6 0 0 3.5 13627.8 72.5)" gradientUnits="userSpaceOnUse"><stop offset="0" stop-color="#FFF" stop-opacity="0"/><stop offset=".917" stop-color="#FFF" stop-opacity=".917"/><stop offset="1" stop-color="#FFF"/></radialGradient><path opacity=".3" fill="url(#ah)" d="M33.6 54.8c-1 0-2.3.4-3.1 1-.3.2-.6.6-.5 1 .1.5.5.7.9.9.9.6 1.6.7 2.7.5.7-.2 2-.6 2.3-1.3.6-1.2-1.4-2.1-2.3-2.1"/><path opacity=".3" fill="#FFF" d="M31.2 56.6c-.4-.1-.1-.6.2-.8.4-.2.9-.3 1.4-.4.8-.2 1.7-.3 2.3.2-.7 0-1.6 0-2.1.3-.2.1-1.6 1.3-1.8.7"/><path opacity=".3" fill="#FE980E" d="M35.9 56.8c-.4.7-1.6 1.1-2.3 1.3-1.1.2-1.7.1-2.7-.5-.3-.2-.7-.3-.9-.7-.1.1-.1.3-.1.5.1.5.5.7.9.9.9.6 1.6.7 2.7.5.7-.2 2-.6 2.3-1.3.3-.3.2-.5.1-.7z"/><radialGradient id="ai" cx="-2245.661" cy="-2.634" r=".939" gradientTransform="matrix(5 0 0 11.4 11256 92.4)" gradientUnits="userSpaceOnUse"><stop offset="0" stop-color="#FFF" stop-opacity="0"/><stop offset=".917" stop-color="#FFF" stop-opacity=".917"/><stop offset="1" stop-color="#FFF"/></radialGradient><path opacity=".3" fill="url(#ai)" d="M45.9 57.8c.1-1-1-1.4-1.8-1.3-1.1.2-1 1.5-1.2 2.3s-.5 1.8-.2 2.7c.2.8.9 1.5 1.3 2.3.4.9.2 1.9.4 2.9.2.9 1.2 1.4 2.1 1 1.6-.7 1.1-4.2.5-5.4-.3-.7-.8-1.2-1-2-.1-.6.2-2.4-.2-2.8"/><path opacity=".3" fill="#FFF" d="M44.1 57.2c-.1-.1-.2-.1-.3-.1-.2.5-1.1 3.7-.2 3.7.1-.5.3-1.2.5-1.7.2-.6.6-.8.6-1.5-.2-.1-.4-.2-.5-.2"/><path opacity=".3" fill="#FE980E" d="M46.5 67.8c-.8.3-1.9-.2-2.1-1-.2-1 0-1.9-.4-2.9-.3-.8-1-1.5-1.3-2.3-.3-.9 0-2 .2-2.8.1-.4.1-.9.2-1.3-.5.5-.4 1.4-.5 2-.2.8-.5 1.9-.2 2.8.2.8.9 1.5 1.3 2.3.4.9.2 1.9.4 2.9.2.9 1.2 1.4 2.1 1 .4-.2.7-.6.9-1.1-.2.2-.4.3-.6.4z"/><radialGradient id="aj" cx="-2246.907" cy="-3.479" r=".568" gradientTransform="matrix(5.1 0 0 5.8 11442.3 92.1)" gradientUnits="userSpaceOnUse"><stop offset="0" stop-color="#FFF" stop-opacity="0"/><stop offset=".917" stop-color="#FFF" stop-opacity=".917"/><stop offset="1" stop-color="#FFF"/></radialGradient><path opacity=".3" fill="url(#aj)" d="M44.8 71.1c-.2-.4-.1-.9-.2-1.3h-.1c-.2-.9-1.7-.5-2.2-.1-.6.6-1.1 1.6-.9 2.4.3 1.5 2.7 3.4 4.3 2.8 1-.4.9-1.6.2-2.2-.5-.4-1.4-.7-1.3-1.5"/><path opacity=".3" fill="#FFF" d="M42.9 69.9c-.5.2-1.7 1.3-.3 1.5.2-.3.6-.6.8-.9s.2-.8-.3-.6"/><path opacity=".3" fill="#6CAF11" d="M45.7 74.8c-1.6.7-3.9-1.2-4.3-2.8v-.1.8c.3 1.5 2.7 3.4 4.3 2.8.6-.3.8-.9.7-1.5-.1.4-.4.6-.7.8z"/><radialGradient id="ak" cx="-2235.379" cy="-2.703" r=".973" gradientTransform="matrix(4.4 0 0 10.6 9863.9 104.3)" gradientUnits="userSpaceOnUse"><stop offset="0" stop-color="#FFF" stop-opacity="0"/><stop offset=".917" stop-color="#FFF" stop-opacity=".917"/><stop offset="1" stop-color="#FFF"/></radialGradient><path opacity=".3" fill="url(#ak)" d="M8.1 74c-.1-.3.2-1 .2-1.4s.2-1.1 0-1.5c-.4-.9-1.6-1.2-2.4-.7-2.3 1.3-1.5 4.4.5 5.4-.8.8-1.5 1.5-1.5 2.7 0 1 .8 2.2 1.9 2.3 1.4.2 1.5-1.3 1-2.2-.3-.6-.3-.8.2-1.3.4-.3.8-.5.9-1.1.1-.6-.2-.7-.5-1-.3-.4-.2-.7-.3-1.2"/><path opacity=".3" fill="#FFF" d="M7.1 70.8c-.5-.8-3.1 1.6-1.8 2.7 1 .9.6-.6.7-1.1.1-.4 1.1-1.3.9-1.5m-.1 4.7c.2-.3.6-.6.8-.1.1.4-.4.7-.6 1-.2.3-.5.6-.6.9-.1.4.1 1-.2 1.3-.7.9-1-.7-.7-1.2.3-.7 1.2-1 1.3-1.9"/><path opacity=".3" fill="#6CAF11" d="M5.9 76.3l.6-.6c-1.4-.7-2.2-2.4-1.7-3.9-1.1 1.5-.4 3.6 1.1 4.5zm.9 4.4c-1-.1-1.9-1.3-1.9-2.3 0-.3.1-.6.2-.9-.3.4-.5.9-.5 1.5 0 1 .8 2.2 1.8 2.3.8.1 1.2-.3 1.2-.9-.1.3-.4.4-.8.3z"/><radialGradient id="al" cx="-2206.609" cy="-3.475" r=".745" gradientTransform="matrix(3.3 0 0 5.7 7368.4 100.6)" gradientUnits="userSpaceOnUse"><stop offset="0" stop-color="#FFF" stop-opacity="0"/><stop offset=".917" stop-color="#FFF" stop-opacity=".917"/><stop offset="1" stop-color="#FFF"/></radialGradient><path opacity=".3" fill="url(#al)" d="M35.7 77.9c-1.5 0-1.7 2-1.8 3.1-.1 1-.2 2.4 1 2.6 1.2.1 1.5-.5 1.7-1.6.1-.8.8-2.2.5-3-.1-.3-.8-.9-1.1-1.1"/><path opacity=".3" fill="#FFF" d="M35.3 78.5c-.8-.3-1.1 2.9-1 3.5.4 0 .8-1.3 1-1.7.2-.4.9-1 .7-1.5-.2-.1-.5-.3-.8-.1"/><path opacity=".3" fill="#6CAF11" d="M36.5 82c-.2 1.1-.4 1.7-1.7 1.6-.7-.1-1-.7-1-1.3-.1.9 0 1.9 1 2 1.2.1 1.5-.5 1.7-1.6.1-.7.7-1.9.5-2.8-.1.8-.4 1.6-.5 2.1z"/><radialGradient id="am" cx="-2251.669" cy="-2.917" r=".704" gradientTransform="matrix(5.4 0 0 8.6 12195.5 119.2)" gradientUnits="userSpaceOnUse"><stop offset="0" stop-color="#FFF" stop-opacity="0"/><stop offset=".917" stop-color="#FFF" stop-opacity=".917"/><stop offset="1" stop-color="#FFF"/></radialGradient><path opacity=".3" fill="url(#am)" d="M15.7 92.7c.3-.9.6-2.1-.4-2.6-1.2-.6-2 .1-2.5 1.2-.4 1-.8 2.3-.2 3.2.2.3.5.5.6.9.2.5 0 1.1.1 1.6.5 2.5 3.6 1.4 4.3-.4.3-1 0-1.7-.8-2.2-.6-.5-1.5-1-1.1-1.7"/><path opacity=".3" fill="#FFF" d="M14.1 90.4s-1.6 2.3-.5 2.1c.5-.1 1.6-2.2.7-2.2m-.7 6c.6.5 1.5.7 2.1.3.3-.2.6-.7.9-.8.5-.1.3.3.2.7-.3.8-1 1.2-1.7 1.3-.7.1-1.7-.1-1.6-1.1"/><path opacity=".3" fill="#3FB5BA" d="M17.6 96.6c-.7 1.8-3.8 2.9-4.3.4v.7c.5 2.5 3.6 1.4 4.3-.4.1-.4.2-.7.1-1 0 0 0 .1-.1.3z"/><radialGradient id="an" cx="-2168.783" cy="-5.246" r=".561" gradientTransform="matrix(2.5 0 0 2.8 5466.4 107)" gradientUnits="userSpaceOnUse"><stop offset="0" stop-color="#FFF" stop-opacity="0"/><stop offset=".917" stop-color="#FFF" stop-opacity=".917"/><stop offset="1" stop-color="#FFF"/></radialGradient><path opacity=".3" fill="url(#an)" d="M19.3 91.1c-1.4-.3-1.6 3.2.5 2.7.7-.2 1.1-1 .9-1.7-.2-.6-1-.9-1.6-.9"/><path opacity=".3" fill="#FFF" d="M19.2 91.7c-.7-.1-.6.8.2.6.8-.1.2-.8-.2-.6"/><path opacity=".3" fill="#3FB5BA" d="M19.8 93.8c-.9.2-1.4-.4-1.6-1.1-.2.9.3 2 1.6 1.8.7-.2 1.1-1 .9-1.6-.1.4-.4.8-.9.9z"/><radialGradient id="ao" cx="-2235.895" cy="-3.747" r=".56" gradientTransform="matrix(4.4 0 0 4.9 9957.9 111.6)" gradientUnits="userSpaceOnUse"><stop offset="0" stop-color="#FFF" stop-opacity="0"/><stop offset=".917" stop-color="#FFF" stop-opacity=".917"/><stop offset="1" stop-color="#FFF"/></radialGradient><path opacity=".3" fill="url(#ao)" d="M44.2 91.3c-.4-.9-1.8-.7-2.5-.2-.8.6-1.6 1.7-1.8 2.7-.2.9.3 1.8 1.3 1.8.9 0 2-.8 2.4-1.6.5-.9.7-1.8.6-2.7"/><path opacity=".3" fill="#FFF" d="M43.1 91.1c-1-.6-3.7 2.6-2.5 3.1.5-.3.9-.8 1.3-1.3.2-.3.4-.6.7-.9.2-.3.3-.7.5-.9"/><path opacity=".3" fill="#3FB5BA" d="M44.2 91.9c-.1.8-.3 1.5-.7 2.1-.4.7-1.6 1.5-2.4 1.6-.7 0-1.2-.5-1.3-1-.2.9.3 1.8 1.3 1.7.9 0 2-.8 2.4-1.5.6-1 .8-1.9.7-2.9z"/><radialGradient id="ap" cx="-2209.33" cy="-3.35" r=".77" gradientTransform="matrix(3.4 0 0 6.1 7563.5 124)" gradientUnits="userSpaceOnUse"><stop offset="0" stop-color="#FFF" stop-opacity="0"/><stop offset=".917" stop-color="#FFF" stop-opacity=".917"/><stop offset="1" stop-color="#FFF"/></radialGradient><path opacity=".3" fill="url(#ap)" d="M44.7 102c.2-.8-1.2-1.6-1.8-1.6-1.1 0-1.3 1.3-1.4 2.3-.1 1.2.5 4.7 2.5 3.6.6-.3.8-1.2.8-1.8 0-.4.1-.8.1-1.2 0-.5-.3-.8-.2-1.3"/><path opacity=".3" fill="#FFF" d="M42.8 101.1c-.7-.2-.9 3-.1 3.3.7.4.7-1.4.7-1.8 0-.8-.3-1.2-.9-1.4"/><path opacity=".3" fill="#3FB5BA" d="M44 106.3c-2 1.1-2.6-2.4-2.5-3.6 0-.3.1-.8.2-1.1-.4.5-.5 1.2-.5 1.8-.1 1.2.5 4.7 2.5 3.6.3-.2.6-.6.7-1-.1.2-.2.3-.4.3z"/><radialGradient id="aq" cx="-2289.001" cy="-2.875" r=".477" gradientTransform="matrix(11.3 0 0 9 25788.5 31.4)" gradientUnits="userSpaceOnUse"><stop offset="0" stop-color="#FFF" stop-opacity="0"/><stop offset=".917" stop-color="#FFF" stop-opacity=".917"/><stop offset="1" stop-color="#FFF"/></radialGradient><path opacity=".3" fill="url(#aq)" d="M11 6.4c-.9.4-1.9 1.2-1.7 2.3.1 1.2 1.6 1.7 2.4.8.5-.5.2-1.2.6-1.7.2-.2 1.1-.2 1.4-.5.8-.7 1.2-1.8.8-2.9 1.6.1 4.3 1.6 5.7.1 1.4-1.5-1.7-2.4-2.9-2.7-1.8-.4-3.8-1.5-5.2-.2-.5.5-1 1-1.1 1.8-.1.7.5 2.1.3 2.6 0 .1-.1.1-.2.1"/><path opacity=".3" fill="#FFF" d="M11.5 6.7c-.4.1-1.3.8-.7 1.1.6.2 1-.6.9-1.1M11.6 3v.5c.6.3.9-.7 1.4-.8.5-.2 1.6 0 2.1.1.7.2 1.3.4 2 .5.4 0 .7 0 1 .1.3.1.5.3.9.2 0-.1 0-.1.1-.2-1.1-.7-2.6-.8-3.8-1.2-.9-.3-3.3-.8-3.5.7"/><path d="M20.11 4.56c-1.4 1.5-4.1 0-5.7-.1.1.2.1.5.1.7 1.6.2 4.2 1.6 5.5.1.4-.4.4-.8.3-1.1 0 .1-.1.2-.2.4zm-8.8 1.5c.1-.4-.2-1.2-.3-2v.1c-.1.5.1 1.3.3 1.9zm2.3 1.2c-.3.2-1.2.3-1.4.5-.4.5-.1 1.2-.6 1.7-.8.9-2.2.5-2.4-.6v.6c.1 1.2 1.6 1.7 2.4.8.5-.5.2-1.2.6-1.7.2-.2 1.1-.2 1.4-.5.7-.5 1-1.5.9-2.3 0 .5-.4 1.1-.9 1.5z" fill="#FBB316"/><radialGradient id="ar" cx="-2220.402" cy="-3.758" r=".62" gradientTransform="matrix(3.8 0 0 5 8385.4 40)" gradientUnits="userSpaceOnUse"><stop offset="0" stop-color="#FFF" stop-opacity="0"/><stop offset=".917" stop-color="#FFF" stop-opacity=".917"/><stop offset="1" stop-color="#FFF"/></radialGradient><path opacity=".3" fill="url(#ar)" d="M18.2 18.8c-1.2.7-2.4 2-2.5 3.5-.1 1.2.7 1.8 1.8 1.3 1-.4 1.7-1.4 1.9-2.4.2-.8 0-2.4-1.2-2.2"/><path opacity=".3" fill="#FFF" d="M17.9 19.3c-.5.1-1.6 1.5-1.6 2 .7.2 1.9-1.4 1.6-2"/><path opacity=".3" fill="#FBB316" d="M17.5 23.5c-1 .4-1.8 0-1.8-.9h-.1v.1c0 1.2 1.2 2 2.4 1.5.9-.4 1.4-1.7 1.3-2.7-.2.8-.9 1.7-1.8 2z"/><radialGradient id="as" cx="-2181.655" cy="-3.624" r=".817" gradientTransform="matrix(2.7 0 0 5.3 5978 54.6)" gradientUnits="userSpaceOnUse"><stop offset="0" stop-color="#FFF" stop-opacity="0"/><stop offset=".917" stop-color="#FFF" stop-opacity=".917"/><stop offset="1" stop-color="#FFF"/></radialGradient><path opacity=".3" fill="url(#as)" d="M1.2 32.8C1 34.5.9 36.3.8 38.1c.4-.1.9-.1 1.3-.2.4-.2.8-.5 1-.8.4-.7.6-2 .3-2.8-.4-.9-1.3-1.5-2.2-1.5z"/><path opacity=".3" fill="#FFF" d="M1.3 33.4c0-.1-.1-.2 0 0 .4.6.3 1.1 1.3 1.1.1-.8-.7-1.6-1.5-1.3"/><path opacity=".3" fill="#FBB316" d="M3.6 35.1c0 .7-.1 1.5-.4 1.9-.2.4-.6.7-1 .8-.4.2-.9.1-1.3.2 0 .4 0 .8-.1 1.3.3-.1.7-.2.8-.2.8-.3 1.4-.9 1.8-1.7.3-.5.5-1.6.2-2.3z"/><radialGradient id="at" cx="-2241.792" cy="-3.753" r=".542" gradientTransform="matrix(4.8 0 0 5 10688.8 47)" gradientUnits="userSpaceOnUse"><stop offset="0" stop-color="#FFF" stop-opacity="0"/><stop offset=".917" stop-color="#FFF" stop-opacity=".917"/><stop offset="1" stop-color="#FFF"/></radialGradient><path opacity=".3" fill="url(#at)" d="M31.2 26c-2.1-.6-6.2 4.6-2.6 4.9 1.2.1 2-.4 2.7-1.3.6-.7.8-1.9.5-2.8-.1-.3-.3-.8-.6-.8"/><path opacity=".3" fill="#FFF" d="M30.8 26.3c-.8 0-2.7 1.4-2.5 2.3.7.1 2.5-1.6 2.3-2.2"/><path opacity=".3" fill="#FBB316" d="M31.3 29.5c-.7.9-1.5 1.5-2.7 1.3-.8-.1-1.3-.4-1.4-.9-.2.8.2 1.5 1.4 1.6 1.2.1 2-.4 2.7-1.3.4-.6.7-1.5.6-2.2-.1.6-.3 1.1-.6 1.5z"/><radialGradient id="au" cx="-2202.196" cy="-3.741" r=".685" gradientTransform="matrix(3.2 0 0 5 7095.3 48.1)" gradientUnits="userSpaceOnUse"><stop offset="0" stop-color="#FFF" stop-opacity="0"/><stop offset=".917" stop-color="#FFF" stop-opacity=".917"/><stop offset="1" stop-color="#FFF"/></radialGradient><path opacity=".3" fill="url(#au)" d="M41.5 27c-1.1-.1-2 2.3-2 3.2-.1 1.1.6 2.2 1.8 1.6 1-.5 1.3-1.6 1.4-2.6 0-.6-.3-2.4-1.2-2.2 0 0 0 .1 0 0"/><path opacity=".3" fill="#FFF" d="M41.1 27.6c-.5.1-1.1 1.6-1 2.1.7.4 1.8-2.2 1-2.1"/><path opacity=".3" fill="#FBB316" d="M41.3 31.7c-1 .5-1.6-.2-1.8-1v.2c-.1 1.1.6 2.2 1.8 1.6 1-.5 1.3-1.6 1.4-2.6v-.4c-.2.8-.5 1.8-1.4 2.2z"/><radialGradient id="av" cx="-2246.544" cy="-3.932" r=".504" gradientTransform="matrix(5 0 0 4.5 11350.7 60.1)" gradientUnits="userSpaceOnUse"><stop offset="0" stop-color="#FFF" stop-opacity="0"/><stop offset=".917" stop-color="#FFF" stop-opacity=".917"/><stop offset="1" stop-color="#FFF"/></radialGradient><path opacity=".3" fill="url(#av)" d="M9.7 40.1c-1.8-.2-4.1 2.3-2.5 3.8 1.1 1 4.2 1.1 4.5-.8.2-.9-1.2-3-2-3"/><path opacity=".3" fill="#FFF" d="M8 41.2c-.4-.1-.7.2-.7.6.5.2.8-.2 1.2-.4.6-.2 1 0 1.6-.1.1-1.2-2.2-.6-2.5 0"/><path opacity=".3" fill="#FBB316" d="M7.2 43.9c-.3-.3-.5-.6-.5-.9-.1.5 0 1.1.5 1.6 1.1 1 4.2 1.1 4.5-.8v-.6c-.5 1.8-3.5 1.6-4.5.7z"/><radialGradient id="aw" cx="-2180.259" cy="-3.849" r=".754" gradientTransform="matrix(2.7 0 0 4.7 5939.9 59.7)" gradientUnits="userSpaceOnUse"><stop offset="0" stop-color="#FFF" stop-opacity="0"/><stop offset=".917" stop-color="#FFF" stop-opacity=".917"/><stop offset="1" stop-color="#FFF"/></radialGradient><path opacity=".3" fill="url(#aw)" d="M26.7 39.2c-1.3 0-1.8 1.4-2 2.5-.2.8-.5 2.2.7 2.2 1.3 0 2.5-3.9 1.3-4.7.1 0 .1 0 0 0"/><path opacity=".3" fill="#FFF" d="M26.1 39.7c-.7.1-1.1 1.9-1 2.5.6.1.9-.8 1-1.2.1-.2.6-1.5 0-1.3"/><path opacity=".3" fill="#FBB316" d="M25.4 43.9c-.6 0-.8-.3-.9-.7-.1.7 0 1.4.9 1.4 1 0 2-2.4 1.8-3.8-.1 1.4-.9 3.1-1.8 3.1z"/><radialGradient id="ax" cx="-2259.753" cy="-3.636" r=".498" gradientTransform="matrix(6.1 0 0 5.2 13819.7 56.3)" gradientUnits="userSpaceOnUse"><stop offset="0" stop-color="#FFF" stop-opacity="0"/><stop offset=".917" stop-color="#FFF" stop-opacity=".917"/><stop offset="1" stop-color="#FFF"/></radialGradient><path opacity=".3" fill="url(#ax)" d="M46.1 34.9c-1.5-.8-4.4.1-4.4 2.1 0 1.9 2.8 3.3 4.4 2.7.9-.3 1.8-1.4 1.7-2.5-.1-.9-.9-1.8-1.7-2.3"/><path opacity=".3" fill="#FFF" d="M46.5 35.9c-.8-.8-3.7-1-4 .5-.3 1.2 1.3.4 1.7.2.7-.3 1.7-.1 2.3-.7"/><path opacity=".3" fill="#FBB316" d="M47.8 37.8c-.2.9-.9 1.6-1.6 1.9-1.5.6-4.1-.7-4.4-2.4v.4c0 1.9 2.8 3.3 4.4 2.7.9-.3 1.8-1.4 1.6-2.6 0 .1 0 .1 0 0z"/></g><g transform="translate(260.5 431.2)"><linearGradient id="ay" gradientUnits="userSpaceOnUse" x1="-2442.379" y1="-2.673" x2="-2442.379" y2="-2.844" gradientTransform="matrix(13.4 0 0 16.7 32671.9 49.5)"><stop offset="0" stop-color="#E3C091"/><stop offset="1" stop-color="#7F5327"/></linearGradient><path fill="url(#ay)" d="M7.8 1.5H1.1v13.3c0 1 3 3.4 6.7 3.4s6.7-.8 6.7-1.8V1.5H7.8z"/><path opacity=".5" fill="#CB9257" d="M12.5 1.5v14.4c0 1-3 1.8-6.7 1.8-1.3 0-1.5-.8-2.5-1 1.2.5 2.2 1.5 4.5 1.5 3.7 0 6.7-.8 6.7-1.8V1.5h-2z"/><path d="M1.898 15.1s.1 0 .1.1V1.6l-.1-2.2v15.7zm8.9 2.9l.1-16.5h-.1V18zm-4 .2h1.2V1.5h-1.2v16.7zm5.8-.6c.2-.1.4-.1.6-.2v-16h-.6v16.2zm-9.7 0l.1-16.2h-.1v16.2zm1.8 0c.2 0 .4.1.6.1V1.5h-.6V18v-.4zm4.1.6l.1-16.7h-.1v16.7z" fill="#CB9257"/></g><g transform="translate(261.5 437.1)"><radialGradient id="az" cx="-2437.126" cy="-2.783" r=".551" gradientTransform="matrix(9.2 0 0 9.8 22401.7 33.2)" gradientUnits="userSpaceOnUse"><stop offset="0" stop-color="#FFF" stop-opacity="0"/><stop offset=".917" stop-color="#FFF" stop-opacity=".917"/><stop offset="1" stop-color="#FFF"/></radialGradient><path opacity=".5" fill="url(#az)" d="M4.2 2.7s-1.3-1.4-2.3-.3c-1 1 0 3.6 2.2 3 0 0 .6.6.6 1.3s-.7 2-.7 3 2.8 2.3 2.5-.2c0 0 2.1-2.8 1-4 0 0 .8-1.1 1.5-1.1s2.3-1 1.5-2C9.7 1.5 9 .2 6.7 2.3c-2.2 1.9-2.5.4-2.5.4z"/><path opacity=".7" fill="#FFF" d="M3.2 2.6c-.3 0-.7-.1-.9.1-.2.3.2.5.5.7.3.2.7.4.8 0 .1-.3-.1-.7-.4-.8m1.5 1.1c.6-.2 1.2-.5 1.9-.7v-.1c.3-.1.7-.2 1-.4.3-.2.5-.4.7-.5.6-.3 1.6.4.7.7-.7.2-1.3.4-2 .7s-1.5.4-2.2.5M5.4 7c0 .3-.9 1.8-.4 1.8.4 0 .9-1.5.4-1.8"/><path d="M4.7 6.996v-.4c0-.7-.6-1.3-.6-1.3-1.4.4-2.4-.6-2.6-1.6-.2 1.2.8 2.8 2.6 2.3 0 .1.4.5.6 1zm4.4-2.8c-.7 0-1.5 1.1-1.5 1.1.1.1.2.3.2.4.3-.3.8-.9 1.3-.9.6 0 2.1-.9 1.6-1.8-.3.7-1.2 1.2-1.6 1.2zm-1.3 2.4c-.2 1.3-1.3 2.8-1.3 2.8.2 2.3-2.1 1.4-2.5.5v.5c0 1 2.8 2.3 2.5-.2 0-.1 1.6-2.2 1.3-3.6z" fill="#CB9257"/></g><path fill="#FBB040" d="M261.5 441.3c.5.1.1.6.3 2.5 2.7 2 7.6 4 12.6 5 .4.1.6-2 .8-1.8 2 1.3 4.1 3 6.2 5 0 0-17.4 1.6-25.7-10.9 0 0 2.3-.3 6.1.4l-.3-.2z"/><path fill="#EA6709" d="M255.9 441.2c13.6 9.5 12.1 7.5 25.4 10.6-2-1.9-4.4-3.7-6.3-5.1-.6.6-.3 1.8-1.4 1.8-3.3-.5-9.9-3.7-11.7-4.7-.5-.4.2-2.2-.3-2.6-3.6-.6-5.8-.3-5.8-.3 0 .2.1.2.1.3z"/><linearGradient id="aA" gradientUnits="userSpaceOnUse" x1="-383.284" y1="-2.928" x2="-383.284" y2="-1.926" gradientTransform="matrix(92.1 0 0 23.3 35499.4 218.6)"><stop offset="0" stop-opacity=".03"/><stop offset=".888" stop-opacity=".448"/><stop offset="1" stop-opacity=".5"/></linearGradient><path fill="url(#aA)" d="M235 155.1c-32.1 10.5-71.8 5-88.4 1.8-1 4-1.5 8.2-1.5 12.5 0 1.6.1 3.1.2 4.7 6.9 1.4 15.6 2.6 26.4 3.5 47 3.9 65.6-7.1 65.6-7.1s-.1-6.5-2.3-15.4z"/><circle fill="#FFF" cx="176" cy="138.2" r="15.6"/><circle fill="#FFF" cx="191" cy="154.6" r="8.5"/><linearGradient id="aB" gradientUnits="userSpaceOnUse" x1="-383.161" y1="-3.003" x2="-383.161" y2="-2.1" gradientTransform="matrix(89.5 0 0 22.5 34617.4 215.1)"><stop offset="0" stop-opacity="0"/><stop offset="1" stop-opacity=".4"/></linearGradient><path fill="url(#aB)" d="M333.9 175.1c10.6-.9 19-2.1 25.6-3.4.1-1.5.2-3 .2-4.5 0-4.8-.7-9.4-2-13.8-32.8 6.9-71.8 2.7-85.6.8-1.9 8.2-2 14.1-2 14.1s18.2 10.6 63.8 6.8z"/><circle fill="#FFF" cx="329.2" cy="139.4" r="15.6"/><circle fill="#FFF" cx="314.1" cy="155.8" r="8.5"/></svg>