<?xml version="1.0" encoding="utf-8" ?>
<svg width="512px" height="776px" viewBox="0 0 512 776" version="1.1" xmlns="http://www.w3.org/2000/svg" xmlns:xlink="http://www.w3.org/1999/xlink" preserveAspectRatio="xMinYMin meet">
    <g>
        <linearGradient id="XMLID_239_" gradientUnits="userSpaceOnUse" x1="-386.4193" y1="-1.3847" x2="-386.4193" y2="-3.0242" gradientTransform="matrix(359.4979 0 0 51.2998 139169.1406 851.6798)">
            <stop offset="0" style="stop-color:#E6E7E8" />
            <stop offset="1" style="stop-color:#A7A9AC" />
        </linearGradient>
        <ellipse opacity="0.39" fill="url(#XMLID_239_)" enable-background="new    " cx="252.2" cy="750.2" rx="180" ry="25.6" />
        <linearGradient id="XMLID_240_" gradientUnits="userSpaceOnUse" x1="-386.3139" y1="-1.5291" x2="-386.3139" y2="-3.1612" gradientTransform="matrix(327.5602 0 0 28.3446 126793.2812 810.3606)">
            <stop offset="0" style="stop-color:#E6E7E8" />
            <stop offset="1" style="stop-color:#A7A9AC" />
        </linearGradient>
        <path opacity="0.46" fill="url(#XMLID_240_)" enable-background="new    " d="M317.2,736.1c-24.9,0-47.6,1.3-65,3.5
	c-17.4-2.2-40.1-3.5-65-3.5c-54.7,0-99.1,6.3-99.1,14.2c0,7.8,44.4,14.2,99.1,14.2c24.9,0,47.6-1.3,65-3.5c17.4,2.2,40.1,3.5,65,3.5
	c54.7,0,99.1-6.3,99.1-14.2C416.1,742.5,371.9,736.1,317.2,736.1L317.2,736.1L317.2,736.1z" />
        <radialGradient id="XMLID_241_" cx="-379.725" cy="-2.2558" r="0.4378" gradientTransform="matrix(51.699 0 0 39.7224 20091.3926 306.273)" gradientUnits="userSpaceOnUse">
            <stop offset="0" style="stop-color:#FF8B6C" />
            <stop offset="1" style="stop-color:#CE4920" />
        </radialGradient>
        <ellipse fill="url(#XMLID_241_)" cx="446.8" cy="224.9" rx="25.8" ry="19.9" />
        <linearGradient id="XMLID_242_" gradientUnits="userSpaceOnUse" x1="450.9975" y1="562.9979" x2="456.5648" y2="579.3615" gradientTransform="matrix(1 0 0 -1 -6.654682e-08 800)">
            <stop offset="0" style="stop-color:#B2251A;stop-opacity:6.926769e-02" />
            <stop offset="0" style="stop-color:#B32000" />
            <stop offset="1" style="stop-color:#C7392E" />
        </linearGradient>
        <path fill="url(#XMLID_242_)" d="M469.5,219.8c0,0-14.5-12.9-26.9-1c0,0,10,2.6,9,8.7c-1,6.1-9.3,8.4-9.3,8.4
	S471.1,244.1,469.5,219.8L469.5,219.8L469.5,219.8z" />
        <path fill="#7F1E0B" d="M451.5,227.5c1-6.1-9-8.7-9-8.7c12.5-11.9,27,1,27,1l0.1,1.2c-5.4-1.4-19-3.1-16.7,16.2
	c-5.8,0.1-10.9-1.4-10.9-1.4S450.5,233.5,451.5,227.5L451.5,227.5L451.5,227.5z" />
        <radialGradient id="XMLID_243_" cx="-380.2436" cy="-2.244" r="0.4294" gradientTransform="matrix(51.699 0 0 39.7224 19702.0547 306.273)" gradientUnits="userSpaceOnUse">
            <stop offset="0" style="stop-color:#FF8B6C" />
            <stop offset="1" style="stop-color:#CE4920" />
        </radialGradient>
        <ellipse fill="url(#XMLID_243_)" cx="56.9" cy="224.9" rx="25.8" ry="19.9" />
        <linearGradient id="XMLID_244_" gradientUnits="userSpaceOnUse" x1="47.7868" y1="562.434" x2="47.5636" y2="578.6852" gradientTransform="matrix(1 0 0 -1 -6.654682e-08 800)">
            <stop offset="0" style="stop-color:#B2251A;stop-opacity:6.926769e-02" />
            <stop offset="0" style="stop-color:#B32000" />
            <stop offset="1" style="stop-color:#C7392E" />
        </linearGradient>
        <path fill="url(#XMLID_244_)" d="M34.1,219.8c0,0,14.5-12.9,26.9-1c0,0-10,2.6-9,8.7c1,6.1,9.3,8.4,9.3,8.4
	S32.5,244.1,34.1,219.8L34.1,219.8L34.1,219.8z" />
        <path fill="#7F1E0B" d="M52.1,227.5c-1-6.1,9-8.7,9-8.7c-12.5-11.9-27,1-27,1L34,221c5.4-1.4,19-3.1,16.7,16.2
	c5.8,0.1,10.9-1.4,10.9-1.4S53.1,233.5,52.1,227.5L52.1,227.5L52.1,227.5z" />
        <radialGradient id="XMLID_245_" cx="-386.7573" cy="-2.2363" r="0.5168" gradientTransform="matrix(511.0235 0 0 725.8977 197889.0781 1706.1199)" gradientUnits="userSpaceOnUse">
            <stop offset="0" style="stop-color:#F28567" />
            <stop offset="1" style="stop-color:#BF441E" />
        </radialGradient>
        <path fill="url(#XMLID_245_)" d="M249.4,26.4c0,0-138.4-13.2-174.1,179.2S-39.1,447.3,23.5,533.5
	c0,0,0,112,94.2,207.1c0,0,36.1,29.4,61.6-7.1c25.5-36.7,60.1-57.5,89.5-49.9s56.5,44.8,67.7,57c11.2,12.2,58,50.4,117.1-110.5
	c0,0,111-61.1,26.9-234.1c0,0-32.1-73.8-48.9-179.2C414.8,111.5,362,27.9,249.4,26.4L249.4,26.4L249.4,26.4z" />
        <linearGradient id="XMLID_246_" gradientUnits="userSpaceOnUse" x1="255.9691" y1="17.7339" x2="255.9691" y2="301.1515">
            <stop offset="0" style="stop-color:#B11A0A;stop-opacity:0.25" />
            <stop offset="1" style="stop-color:#B11A0A" />
        </linearGradient>
        <path opacity="0.7" fill="url(#XMLID_246_)" enable-background="new    " d="M480.5,396c0,0-32.1-73.8-48.9-179.2
	c-13.1-82.3-48.4-151.4-117-178.4c27.2,20.5,23.1,49.5,23.1,49.5c-61.9-5.8-79.3,62.5-79.3,62.5s7-57.8,4.7-57.2
	c-2.3,0.6-9.3,48.5-9.3,48.5l-2.9-22.8l-1.2,22.8l-10.5-43.8l7.6,55.5c-12.4-78-90.5-64.1-90.5-64.1c-3.2-22.9,17.1-41.1,36.3-52.9
	C150.1,52.6,95.8,95.3,75.3,205.7C39.7,398-39.2,447.3,23.4,533.5c0,0,0,112,94.2,207.1c0,0,36.1,29.4,61.6-7.1
	c25.5-36.7,60.1-57.5,89.5-49.9c29.4,7.6,56.5,44.8,67.7,57c11.2,12.2,58,50.4,117.1-110.5C453.5,630.1,564.5,569,480.5,396
	L480.5,396L480.5,396z" />
        <path fill="#AD1813" d="M239.3,142.5c0,0-11.3-49.5-63.4-49.5s-63.4,70.4-63.4,70.4s0,40.5,49.5,49.9
	c0,0-24.1-8.7-36.7-27.6c0,0,11.9,9.6,40.5,10.9c0,0-44.4-9.6-50.5-33.1c0,0,11.6-64.7,60.8-66.6C225.5,95,239.3,142.5,239.3,142.5
	L239.3,142.5L239.3,142.5z" />
        <path fill="#AD1813" d="M239.6,169.3l-1,1.3c0,0,1-61.1-55.6-64c-56.6-2.9-65.3,56.6-65.3,56.6s1.6,15.4,55.6,18.3
	c33.7,1.8,50.7-2.9,58.8-6.7c5.2-1.6,5.2,2.2,5.2,2.2c-16.7,16.1-55,21.2-55,21.2c31.5,1.6,50.2-9.6,50.2-9.6
	C222,206.9,193,214,193,214c40.8-0.3,51.1-36.3,51.1-36.3L239.6,169.3L239.6,169.3z" />
        <linearGradient id="XMLID_247_" gradientUnits="userSpaceOnUse" x1="-384.2128" y1="-2.2499" x2="-384.2128" y2="-1.7251" gradientTransform="matrix(118.1692 0 0 70.0185 45580.4219 279.4652)">
            <stop offset="0" style="stop-color:#FFFFFF" />
            <stop offset="1" style="stop-color:#DDC48C" />
        </linearGradient>
        <path fill="url(#XMLID_247_)" d="M119.1,163.5c0,0,11.9-58.5,64.7-55c52.8,3.5,53.7,62.1,53.7,62.1
	s-18.7,10.9-65.6,7.1C124.9,173.8,119.1,163.5,119.1,163.5L119.1,163.5L119.1,163.5z" />
        <radialGradient id="XMLID_248_" cx="-383.4545" cy="-2.123" r="0.4779" gradientTransform="matrix(92.1201 0 0 59.9196 35499.4102 266.4162)" gradientUnits="userSpaceOnUse">
            <stop offset="0" style="stop-color:#6CAF11" />
            <stop offset="0.3299" style="stop-color:#6AAC10" />
            <stop offset="0.6098" style="stop-color:#64A10F" />
            <stop offset="0.8706" style="stop-color:#59900C" />
            <stop offset="1" style="stop-color:#52840A" />
        </radialGradient>
        <path fill="url(#XMLID_248_)" d="M219,123.9c-6.9-3.5-14.7-5.4-22.9-5.4c-28.1,0-51,22.8-51,51
	c0,1.6,0.1,3.1,0.2,4.7c6.9,1.4,15.6,2.6,26.4,3.5c47,3.9,65.6-7.1,65.6-7.1S236.8,142.2,219,123.9L219,123.9L219,123.9z" />
        <path fill="#AD1813" d="M268.4,141c0,0,10.9-48.1,61.5-48.1s61.5,68.4,61.5,68.4s0,39.3-48.1,48.4
	c0,0,23.4-8.4,35.6-26.8c0,0-11.6,9.4-39.3,10.6c0,0,43.1-9.4,49-32.2c0,0-11.2-62.8-59-64.6C281.8,94.9,268.4,141,268.4,141
	L268.4,141L268.4,141z" />
        <path fill="#AD1813" d="M268.1,167l0.9,1.2c0,0-0.9-59.3,54-62.1s63.4,54.9,63.4,54.9s-1.6,15-54,17.8
	c-32.7,1.8-49.2-2.8-57.1-6.5c-5-1.5-5.1,2.1-5.1,2.1c16.2,15.6,53.4,20.6,53.4,20.6c-30.6,1.6-48.7-9.4-48.7-9.4
	c10.3,17.8,38.4,24.7,38.4,24.7c-39.6-0.3-49.6-35.3-49.6-35.3L268.1,167L268.1,167z" />
        <linearGradient id="XMLID_249_" gradientUnits="userSpaceOnUse" x1="-384.1118" y1="-2.4009" x2="-384.1118" y2="-1.8372" gradientTransform="matrix(114.676 0 0 67.9978 44376.0664 274.3362)">
            <stop offset="0" style="stop-color:#FFFFFF" />
            <stop offset="1" style="stop-color:#DDC48C" />
        </linearGradient>
        <path fill="url(#XMLID_249_)" d="M385.1,161.4c0,0-11.6-56.8-62.8-53.4c-51.2,3.4-52.1,60.3-52.1,60.3
	s18.1,10.6,63.7,6.9C379.6,171.4,385.1,161.4,385.1,161.4L385.1,161.4L385.1,161.4z" />
        <radialGradient id="XMLID_250_" cx="-382.9865" cy="-2.1185" r="0.4149" gradientTransform="matrix(89.4254 0 0 58.0704 34578.8203 261.3484)" gradientUnits="userSpaceOnUse">
            <stop offset="0" style="stop-color:#6CAF11" />
            <stop offset="0.3299" style="stop-color:#6AAC10" />
            <stop offset="0.6098" style="stop-color:#64A10F" />
            <stop offset="0.8706" style="stop-color:#59900C" />
            <stop offset="1" style="stop-color:#52840A" />
        </radialGradient>
        <path fill="url(#XMLID_250_)" d="M288.1,123c6.7-3.4,14.2-5.3,22.2-5.3c27.2,0,49.5,22.2,49.5,49.5
	c0,1.5-0.1,3-0.2,4.5c-6.7,1.3-15.1,2.5-25.6,3.4c-45.6,3.7-63.7-6.9-63.7-6.9S270.8,140.8,288.1,123L288.1,123L288.1,123z" />
        <linearGradient id="XMLID_251_" gradientUnits="userSpaceOnUse" x1="-386.2448" y1="-2.2898" x2="-386.2448" y2="-1.7219" gradientTransform="matrix(309.5371 0 0 204.8136 119810.3672 687.3475)">
            <stop offset="0" style="stop-color:#CE4920;stop-opacity:0" />
            <stop offset="1" style="stop-color:#9C1710" />
        </linearGradient>
        <path fill="url(#XMLID_251_)" d="M133.2,222.9c0,0,115.5,18.5,227.1-13.5s6.4,199.2-90,202
	c-96.5,2.7-147.4-67.1-169-144C101.2,267.3,83.6,213,133.2,222.9L133.2,222.9L133.2,222.9z" />
        <radialGradient id="XMLID_252_" cx="-386.2607" cy="-1.9998" r="1.0401" gradientTransform="matrix(309.5371 0 0 193.8552 119810.3672 662.1279)" gradientUnits="userSpaceOnUse">
            <stop offset="0" style="stop-color:#E04C89" />
            <stop offset="1" style="stop-color:#96003A" />
        </radialGradient>
        <path fill="url(#XMLID_252_)" d="M133.2,222c0,0,115.5,17.5,227.1-12.8c111.6-30.1,6.4,188.6-90,191.2
	C173.7,403,122.8,336.9,101.2,264C101.2,264,83.6,212.7,133.2,222L133.2,222L133.2,222z" />
        <radialGradient id="XMLID_253_" cx="-386.1052" cy="-1.8624" r="0.4317" gradientTransform="matrix(278.6017 0 0 157.6357 107824.7969 591.5959)" gradientUnits="userSpaceOnUse">
            <stop offset="0" style="stop-color:#E04C89" />
            <stop offset="1" style="stop-color:#96003A" />
        </radialGradient>
        <path fill="url(#XMLID_253_)" d="M143.7,238.3c0,0,123.1,25.3,214-13.7c0,0,27.3-13.7,36,2.1
	c8.6,15.9-38.6,144.9-131.1,150c-92.5,5.1-127.4-75-144-112.3c0,0-7.2-17.4,1.3-24.4C126.2,234.7,129.1,235.3,143.7,238.3
	L143.7,238.3L143.7,238.3z" />
        <path fill="#590D00" d="M143.7,238.3c0,0,123.1,25.3,214-13.7c0,0,27.3-13.7,36,2.1c8.6,15.9-38.6,144.9-131.1,150
	c-92.5,5.1-127.4-75-144-112.3c0,0-7.2-17.4,1.3-24.4C126.2,234.7,129.1,235.3,143.7,238.3L143.7,238.3L143.7,238.3z" />
        <path opacity="0.7" fill="#250000" enable-background="new    " d="M221.5,277.7c23.6-7.3,51.4-11.6,82.2-8.6
	c6.4-13.9,4.5-25,3.4-29.2c-12.4,2.4-24.8,4.1-37.1,5.1c3,7.3-2.2,14.6-13.3,13.6c-10.5-0.9-9.7-8.1-8.2-12.3
	c-12.6,0.4-24.6,0.3-35.8-0.2C206.4,265.9,217,274.9,221.5,277.7L221.5,277.7L221.5,277.7z" />
        <linearGradient id="XMLID_254_" gradientUnits="userSpaceOnUse" x1="-379.0411" y1="-2.173" x2="-378.3423" y2="-2.173" gradientTransform="matrix(43.9187 0 0 26.7078 16797.9688 310.0818)">
            <stop offset="0" style="stop-color:#CEBC99" />
            <stop offset="4.692215e-02" style="stop-color:#D8CAAF" />
            <stop offset="0.1236" style="stop-color:#E6DDCC" />
            <stop offset="0.2054" style="stop-color:#F1ECE2" />
            <stop offset="0.2937" style="stop-color:#F9F7F3" />
            <stop offset="0.393" style="stop-color:#FEFDFC" />
            <stop offset="0.5266" style="stop-color:#FFFFFF" />
            <stop offset="0.6615" style="stop-color:#FEFDFC" />
            <stop offset="0.7491" style="stop-color:#FAF8F4" />
            <stop offset="0.8233" style="stop-color:#F2EEE5" />
            <stop offset="0.8899" style="stop-color:#E8E0D0" />
            <stop offset="0.951" style="stop-color:#DBCEB5" />
            <stop offset="1" style="stop-color:#CEBC99" />
        </linearGradient>
        <path fill="url(#XMLID_254_)" d="M189.8,244.5c-22.3-1.9-38.5-4.7-44-5.8c-0.1,5.8,1.3,24.4,21.9,26.5
	C184.5,267.1,188.7,253.3,189.8,244.5L189.8,244.5L189.8,244.5z" />
        <linearGradient id="XMLID_255_" gradientUnits="userSpaceOnUse" x1="-379.1353" y1="-2.0874" x2="-378.3987" y2="-2.0874" gradientTransform="matrix(44.3134 0 0 34.2383 17132.2676 308.6294)">
            <stop offset="0" style="stop-color:#CEBC99" />
            <stop offset="4.692215e-02" style="stop-color:#D8CAAF" />
            <stop offset="0.1236" style="stop-color:#E6DDCC" />
            <stop offset="0.2054" style="stop-color:#F1ECE2" />
            <stop offset="0.2937" style="stop-color:#F9F7F3" />
            <stop offset="0.393" style="stop-color:#FEFDFC" />
            <stop offset="0.5266" style="stop-color:#FFFFFF" />
            <stop offset="0.6615" style="stop-color:#FEFDFC" />
            <stop offset="0.7491" style="stop-color:#FAF8F4" />
            <stop offset="0.8233" style="stop-color:#F2EEE5" />
            <stop offset="0.8899" style="stop-color:#E8E0D0" />
            <stop offset="0.951" style="stop-color:#DBCEB5" />
            <stop offset="1" style="stop-color:#CEBC99" />
        </linearGradient>
        <path fill="url(#XMLID_255_)" d="M357.6,224.7c-9.8,4.2-20,7.7-30.4,10.5c1.6,6.6,7.6,19.4,19.3,19.1
	c15-0.4,25-18.4,25.1-34.3C364.1,221.5,357.6,224.7,357.6,224.7L357.6,224.7L357.6,224.7z" />
        <g transform="translate(97.808967, 207.594542)">
            <path fill="#E04C89" d="M249.3,123.4c-0.3,0.3-0.6,0.6-0.9,1c4.3,5.2,9.3,9.6,13.4,12.8c0.3-0.3,0.5-0.7,0.8-1
		C258.5,133.1,253.5,128.7,249.3,123.4L249.3,123.4L249.3,123.4z" />
            <path fill="#E04C89" d="M290.6,13.8c0.4,0.2,0.7,0.5,1.1,0.7c2-3.1,4.3-7.3,5.9-11.9c-0.4-0.2-0.8-0.4-1.2-0.6
		C294.9,6.6,292.7,10.7,290.6,13.8L290.6,13.8L290.6,13.8z" />
            <path fill="#E04C89" d="M264.3,15.2c0.4-0.2,0.8-0.3,1.3-0.5c-0.4-4.9-0.9-9.7-1.3-13.6c-0.4,0.1-0.8,0.2-1.3,0.3
		C263.4,5.4,263.9,10.3,264.3,15.2L264.3,15.2L264.3,15.2z" />
            <path fill="#E04C89" d="M279.4,78.7c-0.2,0.4-0.4,0.8-0.6,1.1c7.1,4.7,12,6.7,15.5,7.4c0.2-0.4,0.4-0.8,0.6-1.2
		C291.5,85.5,286.6,83.6,279.4,78.7L279.4,78.7L279.4,78.7z" />
            <path fill="#E04C89" d="M212.5,31.5c0.4-0.1,0.8-0.2,1.3-0.3l-1.5-19.1c-0.4,0.1-0.9,0.1-1.3,0.2L212.5,31.5
		L212.5,31.5z" />
            <path fill="#E04C89" d="M187.7,35.6c0.4-0.1,0.9-0.1,1.3-0.2l-1.7-20c-0.4,0-0.9,0.1-1.3,0.1L187.7,35.6
		L187.7,35.6z" />
            <path fill="#E04C89" d="M225.3,146c-0.4,0.3-0.7,0.5-1.1,0.8c2.1,5.5,5.6,12.1,11,17.7c0.3-0.3,0.7-0.6,1-0.8
		C230.7,158.1,227.3,151.4,225.3,146L225.3,146L225.3,146z" />
            <path fill="#E04C89" d="M266.3,101.2c-0.3,0.4-0.5,0.8-0.8,1.2c2.9,3.8,7.4,8.8,13.1,12.3c0.2-0.4,0.5-0.7,0.7-1.1
		C273.7,110,269.1,104.9,266.3,101.2L266.3,101.2L266.3,101.2z" />
            <path fill="#E04C89" d="M239.6,24.6c0.4-0.1,0.8-0.3,1.3-0.4l-0.7-17.1c-0.4,0.1-0.9,0.2-1.3,0.3L239.6,24.6
		L239.6,24.6z" />
            <path fill="#E04C89" d="M156.8,38.3l-0.7-20.1c-0.4,0-0.9,0-1.3,0.1l0.7,20.1C155.9,38.3,156.4,38.3,156.8,38.3
		L156.8,38.3L156.8,38.3z" />
            <path fill="#E04C89" d="M295.2,36.7c-0.1,0.4-0.2,0.9-0.3,1.3c7.8-0.9,12.5-4,15.5-7.3v-2
		C307.8,32.1,303.3,35.6,295.2,36.7L295.2,36.7L295.2,36.7z" />
            <path fill="#E04C89" d="M289.2,56.3c-0.2,0.4-0.3,0.8-0.5,1.2c3,1.5,8.7,3.6,16.3,3c0.1-0.4,0.3-0.9,0.4-1.3
		C297.8,59.9,292.1,57.7,289.2,56.3L289.2,56.3L289.2,56.3z" />
            <path fill="#E04C89" d="M65,33.8c0.5,0.1,0.9,0.1,1.4,0.2c-1.5-5.9-2.2-11.6-2.6-16.6c-0.4,0-0.9-0.1-1.3-0.1
		C62.8,22.3,63.5,27.9,65,33.8L65,33.8L65,33.8z" />
            <path fill="#E04C89" d="M29.5,28.6c0.5-0.1,1-0.1,1.5-0.1c-2.4-3.2-5-8.2-6-15.3h-1.3C24.7,20.2,27,25.2,29.5,28.6
		L29.5,28.6L29.5,28.6z" />
            <path fill="#E04C89" d="M60.1,153.2c0.3,0.3,0.7,0.6,1,0.9c3.7-4.9,8.6-10.4,14.2-14.4c-0.3-0.3-0.7-0.6-1-0.9
		C68.6,142.9,63.8,148.3,60.1,153.2L60.1,153.2L60.1,153.2z" />
            <path fill="#E04C89" d="M100.8,156.9c-0.4-0.2-0.8-0.4-1.2-0.6c-3.1,4.7-6.8,10.9-10.1,18c0.4,0.2,0.8,0.4,1.1,0.6
		C94,167.8,97.7,161.6,100.8,156.9L100.8,156.9L100.8,156.9z" />
            <path fill="#E04C89" d="M100.4,37.5c0.4,0,0.9,0.1,1.3,0.1c-1.2-5.2-2.6-11.8-3.4-18.5H97
		C97.8,25.8,99.2,32.3,100.4,37.5L100.4,37.5L100.4,37.5z" />
            <path fill="#E04C89" d="M130.6,167c-0.4-0.1-0.9-0.2-1.3-0.2c-2.6,7.8-4.1,15.2-4.9,21.1c0.4,0.1,0.8,0.2,1.3,0.3
		C126.6,182.2,128.1,174.9,130.6,167L130.6,167L130.6,167z" />
            <path fill="#E04C89" d="M190.6,164.3c3.1,9.1,7.6,16.2,11.6,21.3c0.4-0.2,0.8-0.4,1.2-0.5c-4-5-8.5-12.1-11.6-21.2
		C191.4,164,191,164.2,190.6,164.3L190.6,164.3L190.6,164.3z" />
            <path fill="#E04C89" d="M17.8,42.9c-6.2-1.5-12.4-4.6-17.3-7.6c0,0.5,0,1-0.1,1.5c5,3,11.1,6,17.4,7.4V42.9
		L17.8,42.9z" />
            <path fill="#E04C89" d="M36.3,89.5c-0.2-0.4-0.4-0.8-0.6-1.1c-7.1,2.8-12.2,6.8-15.8,10.5c0.2,0.4,0.4,0.8,0.6,1.2
		C24.1,96.4,29.1,92.3,36.3,89.5L36.3,89.5L36.3,89.5z" />
            <path fill="#E04C89" d="M131.2,38.8h1.3l-1.9-19.6h-1.3L131.2,38.8L131.2,38.8z" />
            <path fill="#E04C89" d="M165.1,169.2h-0.5h-0.8c-0.7,7.1-1.3,15.8-1.6,23.6h1.3C163.8,185,164.5,176.3,165.1,169.2
		L165.1,169.2L165.1,169.2z" />
            <path fill="#E04C89" d="M23.1,62.2c-0.2-0.4-0.4-0.9-0.6-1.3c-4.2,0.3-9.6,1.5-16.3,4c0.1,0.4,0.3,0.8,0.4,1.2
		C13.4,63.5,18.9,62.5,23.1,62.2L23.1,62.2L23.1,62.2z" />
            <path fill="#E04C89" d="M53.9,116.7c-0.3-0.4-0.5-0.7-0.8-1.1c-4.9,2-11.1,5.4-16.6,10.7c0.3,0.4,0.5,0.7,0.8,1.1
		C42.8,122.1,49,118.7,53.9,116.7L53.9,116.7L53.9,116.7z" />
        </g>
        <path opacity="0.5" fill="#CE4920" enable-background="new    " d="M214.5,50.6c0,0,2.8,14.8,36.4,14.8
	s32.3-15.7,32.3-15.7s-5.7,12-31.9,12S214.5,50.6,214.5,50.6L214.5,50.6L214.5,50.6z" />
        <path fill="#C62619" d="M282,45.7c0,5.7-14.5,10.2-32.3,10.2s-32.3-4.6-32.3-10.2c0-5.7,14.5-10.2,32.3-10.2
	S282,40.1,282,45.7L282,45.7L282,45.7z" />
        <linearGradient id="XMLID_256_" gradientUnits="userSpaceOnUse" x1="-1662.8549" y1="-1.9948" x2="-1661.8545" y2="-1.9948" gradientTransform="matrix(58.4858 0 0 52.4975 97473.8281 131.0205)">
            <stop offset="0" style="stop-color:#CEBC99" />
            <stop offset="0.5266" style="stop-color:#FFFFFF" />
            <stop offset="1" style="stop-color:#CEBC99" />
        </linearGradient>
        <path fill="url(#XMLID_256_)" d="M249.7,0c-15.1,0-27.5,23.2-29.2,44.9c0,0,2.9,7.7,30.2,7.7
	c24.2,0,28.2-7.7,28.2-7.7C277.3,23.2,264.8,0,249.7,0L249.7,0L249.7,0z" />
        <linearGradient id="XMLID_257_" gradientUnits="userSpaceOnUse" x1="-1657.682" y1="-1.8132" x2="-1657.682" y2="-2.4876" gradientTransform="matrix(34.3329 0 0 40.3218 57162.7383 107.2128)">
            <stop offset="0" style="stop-color:#FFFFFF;stop-opacity:0" />
            <stop offset="1" style="stop-color:#FFFFFF" />
        </linearGradient>
        <path fill="url(#XMLID_257_)" d="M266.9,27.5c0,9.4-7.7,17-17.2,17c-9.5,0-17.2-7.6-17.2-17s7.7-23.4,17.2-23.4
	C259.2,4.1,266.9,18.2,266.9,27.5L266.9,27.5L266.9,27.5z" />
        <linearGradient id="XMLID_258_" gradientUnits="userSpaceOnUse" x1="384.2871" y1="361.3482" x2="170.0209" y2="603.1953">
            <stop offset="0" style="stop-color:#961307;stop-opacity:0.2" />
            <stop offset="6.760179e-02" style="stop-color:#961307;stop-opacity:0.2141" />
            <stop offset="0.4783" style="stop-color:#961307;stop-opacity:0.3" />
            <stop offset="1" style="stop-color:#8C1306" />
        </linearGradient>
        <path opacity="0.7" fill="url(#XMLID_258_)" enable-background="new    " d="M480.5,396c0,0-20.8-48-37.7-121.7
	c-5.1,27.2-15.9,93.5-10.4,133.5c7,51.4,26.8,262-64.8,294.1c0,0-27.6,4.4-62.7-35.3c-35-39.7-82.6-87.2-82.6-87.2l23.9-10.5
	c0,0,12.3,16.3,37.4,8.8c0,0-16.3,2.9-27.9-9.3c0,0,16.9,5.8,27.9-8.2c0,0,7.6,2.3,5.3,7.6c0,0,8.8-7,2.3-15.8
	c0,0,49-42.6,29.1-91.1l-14-18.7c0,0,11.7-9.9,12.3-12.8c0.6-2.9-3.5-32.1-3.5-32.1s35.2-34.5,59.7-72.6
	c-26.8,39.9-66.4,74.7-104.5,75.7c-87.2,2.3-137.3-51.5-162-115.8H108c0,0,0.2,0.6,0.6,1.8c4.1,11.9,30.7,81.6,95.2,111.5l-37.4,8.2
	c0,0,133.6,39.1,139.4,70.1c5.8,30.9-214.4,81.1-281.4,29.1c-21.1-16.4-21.6-46-19.5-71c-9,35.1-7,64,18.5,99.1
	c0,0,0,112,94.2,207.1c0,0,36.1,29.4,61.6-7.1c25.5-36.7,60.1-57.5,89.5-49.9c29.4,7.6,56.5,44.8,67.7,57
	c11.2,12.2,58,50.4,117.1-110.5C453.5,630.1,564.5,569,480.5,396L480.5,396L480.5,396z" />
        <g>
            <linearGradient id="XMLID_259_" gradientUnits="userSpaceOnUse" x1="-386.2037" y1="-2.3585" x2="-386.2037" y2="-1.3563" gradientTransform="matrix(299.5021 0 0 166.3488 115842.1797 798.3542)">
                <stop offset="0" style="stop-color:#7A0400;stop-opacity:0" />
                <stop offset="0.9101" style="stop-color:#710300;stop-opacity:0.9101" />
                <stop offset="1" style="stop-color:#700300" />
            </linearGradient>
            <path opacity="0.6" fill="url(#XMLID_259_)" enable-background="new    " d="M190.7,568.9
		c116.8-17.5,142.9-76.5,129.5-108C306.8,429.4,166.1,406,166.1,406s145.1,28.6,149.4,68.3c5.8,54.9-161.8,116.4-292.2,59.1
		c0,0,0,4.7,0.8,13C49.7,559.6,106.8,581.6,190.7,568.9L190.7,568.9L190.7,568.9z" />
        </g>
        <path fill="#020202" d="M227,174.4c0.3-1.7,0.5-3.4,0.5-5.1c0-16-13-28.8-28.8-28.8s-28.8,13-28.8,28.8
	c0,2.9,0.4,5.6,1.2,8.3c0.4,0,0.7,0.1,1,0.1C199.2,179.8,216.9,177.1,227,174.4L227,174.4L227,174.4z" />
        <linearGradient id="XMLID_260_" gradientUnits="userSpaceOnUse" x1="-386.7326" y1="-1.6621" x2="-386.6487" y2="-2.0024" gradientTransform="matrix(473.8713 0 0 325.8868 183511.1875 1186.1656)">
            <stop offset="0" style="stop-color:#770501" />
            <stop offset="1" style="stop-color:#991000" />
        </linearGradient>
        <path fill="url(#XMLID_260_)" d="M500.4,445.4c2.8,39.2,1.7,106.6-34.2,132.7c0,0,4.7-95.2-25.1-151.1
	c0,0,52.5,128.3-37.9,273.8c0,0-25.6,64.2-83.4,5.3c-57.8-59-134.9-27.9-134.9-27.9l29.7,4.1c0,0-29.7,7.6-41.5,32.1
	c-11.5,24.1-68.7,23.4-135.9-106.4c12.4,38.8,35.8,87.5,80.4,132.6c0,0,36.1,29.4,61.6-7.1c25.5-36.7,60.1-57.5,89.5-49.9
	c29.4,7.6,56.5,44.8,67.7,57c11.2,12.2,58,50.4,117.1-110.5C453.5,630.1,543,580.9,500.4,445.4L500.4,445.4L500.4,445.4z" />
        <path fill="#8C0000" d="M250.5,562.9c0,0,17.8,9.9,30.9-4.9c0,0,4.9-1.9,7.1,0.4
	C288.3,558.4,269.1,543.6,250.5,562.9L250.5,562.9L250.5,562.9z" />
        <g transform="translate(249.512671, 551.922027)">
            <path fill="#4A0100" d="M37.6,5.6c0.8,0.5,1.2,0.8,1.2,0.8C38.5,6.1,38.1,5.8,37.6,5.6L37.6,5.6L37.6,5.6z" />
            <path fill="#4A0100" d="M37.6,5.6C33.1,2.8,16.8-5.5,0.9,10.9c0,0,18,2.8,27.1-6.2L31.6,6
		C31.7,6,35.2,4.7,37.6,5.6L37.6,5.6L37.6,5.6z" />
        </g>
        <linearGradient id="SVGID_1_" gradientUnits="userSpaceOnUse" x1="178.2041" y1="691.6475" x2="178.2041" y2="621.4576" gradientTransform="matrix(1 0 0 -1 -6.654682e-08 800)">
            <stop offset="0" style="stop-color:#B08BAB" />
            <stop offset="7.104230e-02" style="stop-color:#A07F9B;stop-opacity:0.9929" />
            <stop offset="0.2465" style="stop-color:#7E647B;stop-opacity:0.9754" />
            <stop offset="0.426" style="stop-color:#644F61;stop-opacity:0.9574" />
            <stop offset="0.609" style="stop-color:#51414F;stop-opacity:0.9391" />
            <stop offset="0.7975" style="stop-color:#463844;stop-opacity:0.9203" />
            <stop offset="1" style="stop-color:#423540;stop-opacity:0.9" />
        </linearGradient>
        <path opacity="0.6" fill="url(#SVGID_1_)" d="M183.7,108.5c-52.8-3.5-64.7,55-64.7,55s5.8,10.3,52.8,14.2s65.6-7.1,65.6-7.1
	S236.3,112,183.7,108.5L183.7,108.5L183.7,108.5z M172.2,175.4c-43.8-3.6-49.2-13.2-49.2-13.2s11.1-54.7,60.4-51.4s50.2,58,50.2,58
	S216.1,179,172.2,175.4L172.2,175.4L172.2,175.4z" />
        <path fill="#020202" d="M280.4,172c-0.3-1.6-0.4-3.3-0.4-5c0-15.5,12.6-28,28-28s28,12.6,28,28c0,2.8-0.4,5.5-1.2,8
	c-0.3,0-0.7,0.1-1,0.1C307.4,177.3,290.1,174.6,280.4,172L280.4,172L280.4,172z" />
        <linearGradient id="SVGID_2_" gradientUnits="userSpaceOnUse" x1="327.8589" y1="692.1432" x2="327.8589" y2="624.1105" gradientTransform="matrix(1 0 0 -1 -6.654682e-08 800)">
            <stop offset="0" style="stop-color:#B08BAB" />
            <stop offset="7.104230e-02" style="stop-color:#A07F9B;stop-opacity:0.9929" />
            <stop offset="0.2465" style="stop-color:#7E647B;stop-opacity:0.9754" />
            <stop offset="0.426" style="stop-color:#644F61;stop-opacity:0.9574" />
            <stop offset="0.609" style="stop-color:#51414F;stop-opacity:0.9391" />
            <stop offset="0.7975" style="stop-color:#463844;stop-opacity:0.9203" />
            <stop offset="1" style="stop-color:#423540;stop-opacity:0.9" />
        </linearGradient>
        <path opacity="0.6" fill="url(#SVGID_2_)" d="M322.5,108c51.2-3.4,62.8,53.4,62.8,53.4s-5.6,10-51.2,13.7
	c-45.6,3.7-63.7-6.9-63.7-6.9S271.3,111.4,322.5,108L322.5,108L322.5,108z M333.5,173c42.6-3.5,47.9-12.8,47.9-12.8
	s-10.8-53.1-58.7-49.9S274,166.6,274,166.6S290.9,176.5,333.5,173L333.5,173L333.5,173z" />
        <linearGradient id="XMLID_261_" gradientUnits="userSpaceOnUse" x1="-370.5756" y1="-2.6359" x2="-370.5756" y2="-1.5659" gradientTransform="matrix(22.9552 0 0 53.0963 8759.7432 261.9675)">
            <stop offset="0" style="stop-color:#CE4920;stop-opacity:0.3" />
            <stop offset="1" style="stop-color:#AD1813" />
        </linearGradient>
        <path fill="url(#XMLID_261_)" d="M241.6,149.1L249,161l-1.2-14.2l4.3,9.4l-0.4-19.7l3.1,16.5l3.1-23.2l0.4,29.4
	l6.3-15.3c0,0-8.7,27.8-8.7,39l-2-20.9v18l-3.1-14.6l0.4,13L241.6,149.1L241.6,149.1z" />
        <path opacity="0.3" fill="#FFFFFF" enable-background="new    " d="M120.7,171.2c0,0,46,27.3,110.9,5.5
	C231.5,176.7,173.6,217.7,120.7,171.2L120.7,171.2L120.7,171.2z" />
        <path opacity="0.3" fill="#FFFFFF" enable-background="new    " d="M131.7,191.4c0,0,41.6,23.7,93.2,2.1
	C224.9,193.4,178.5,233,131.7,191.4L131.7,191.4L131.7,191.4z" />
        <path opacity="0.3" fill="#FFFFFF" enable-background="new    " d="M274.4,174.2c0,0,55.5,22.3,108.6-5.1
	C383,169.1,336.4,212.9,274.4,174.2L274.4,174.2L274.4,174.2z" />
        <path opacity="0.3" fill="#FFFFFF" enable-background="new    " d="M281,190.4c0,0,43.3,19.8,87.3,0.5
	C368.5,190.9,328.4,225.7,281,190.4L281,190.4L281,190.4z" />
        <path opacity="0.3" fill="#FFFFFF" enable-background="new    " d="M133.3,123.4c0,0,18.3-25.1,47.2-24.3
	c28.8,0.8,42.6,18.6,48.7,28.4C229.1,127.6,188,76.2,133.3,123.4L133.3,123.4L133.3,123.4z" />
        <path opacity="0.3" fill="#FFFFFF" enable-background="new    " d="M281.6,121.9c0,0,38-49.5,85.5-3
	C367.2,118.8,325,84.9,281.6,121.9L281.6,121.9L281.6,121.9z" />
        <path opacity="0.4" fill="#660300" enable-background="new    " d="M509,544.9c-16.8,37.5-38,55-38,55
	c0.7-7.4,1.3-18.3,1.7-27.1c-2,2-4.2,3.9-6.5,5.6c0,0,0.2-3.9,0.2-10.7c-4.9,38-12.9,62.6-12.9,62.6S497.4,605.9,509,544.9
	L509,544.9L509,544.9z" />
        <path opacity="0.15" fill="#FFFFFF" enable-background="new    " d="M261.8,571.7c0,0,15.5,1.4,22.4-8.5
	C284.1,563.2,289.9,580.9,261.8,571.7L261.8,571.7L261.8,571.7z" />
        <path opacity="0.25" fill="#FFFFFF" enable-background="new    " d="M105.6,261.7c0,0-15-40.8,18.5-37.3
	S250,234.9,317.9,221c68.1-13.8,72.3-15.4,84.5,0.8c0,0-12.7-14.2-36.2-6.5c-23.5,7.7-118.8,31.9-241.8,13.8
	C124.5,229.1,100.6,225.3,105.6,261.7L105.6,261.7L105.6,261.7z" />
        <radialGradient id="XMLID_262_" cx="-386.1302" cy="-1.8631" r="0.429" gradientTransform="matrix(283.646 0 0 156.7657 109790.2891 613.8614)" gradientUnits="userSpaceOnUse">
            <stop offset="0" style="stop-color:#E04C89" />
            <stop offset="1" style="stop-color:#96003A" />
        </radialGradient>
        <path fill="url(#XMLID_262_)" d="M258.3,394.2c-70.3-2.7-111.7-42.4-134.3-76.6c27.9,48.6,74.6,84.5,146.2,82.6
	c64.7-1.6,133.5-101,137.8-156.9C393.9,296,348.5,397.5,258.3,394.2L258.3,394.2L258.3,394.2z" />
        <g transform="translate(112.779727, 217.575049)">
            <radialGradient id="XMLID_263_" cx="-1288.3668" cy="-1.8587" r="0.436" gradientTransform="matrix(283.3736 0 0 166.8517 365231.6875 409.3287)" gradientUnits="userSpaceOnUse">
                <stop offset="0" style="stop-color:#E04C89" />
                <stop offset="1" style="stop-color:#96003A" />
            </radialGradient>
            <path opacity="0.7" fill="url(#XMLID_263_)" fill-opacity="0.5" enable-background="new    " d="M281.9,15.7
		c-0.9,30.7-47.5,138.8-132.1,143.5C57.1,164.3,22.4,84.1,5.7,46.8c0,0-7.2-17.4,1.3-24.4c2.8-2.3,4.9-3.5,7.6-3.9l0,0
		c0,0-17.3-3.8-13.4,33.2c1.4,13.1,3.4,29.3,9,46.7c27.8,49.4,74.7,86.2,147.2,84.2c33.9-0.9,68.8-28.4,95.1-62.5
		C272.8,86.4,291.3,44.5,281.9,15.7L281.9,15.7L281.9,15.7z" />
            <radialGradient id="XMLID_264_" cx="-1287.9742" cy="-2.1599" r="0.3786" gradientTransform="matrix(220.2698 0 0 27.4445 283856.3438 74.3787)" gradientUnits="userSpaceOnUse">
                <stop offset="0" style="stop-color:#E04C89" />
                <stop offset="1" style="stop-color:#96003A" />
            </radialGradient>
            <path opacity="0.7" fill="url(#XMLID_264_)" fill-opacity="0.5" enable-background="new    " d="M244.8,7.1
		c0,0,10.2-5.1,20-5.5c-6.8-0.6-16-0.2-25.3,4.3C223.3,13.7,124,31.1,44.2,23.1C78.4,28.2,172,38.3,244.8,7.1L244.8,7.1L244.8,7.1z" />
        </g>
        <radialGradient id="XMLID_265_" cx="-385.8036" cy="-1.8907" r="0.416" gradientTransform="matrix(229.0526 0 0 108.8605 88630.4219 528.3216)" gradientUnits="userSpaceOnUse">
            <stop offset="0" style="stop-color:#E04C89" />
            <stop offset="1" style="stop-color:#96003A" />
        </radialGradient>
        <path fill="url(#XMLID_265_)" d="M146.3,316.8c22.4,32.5,57.8,63.2,116.2,60c53.7-3,92.2-47.7,113.3-87.7
	C261.4,235.8,170,298,146.3,316.8L146.3,316.8L146.3,316.8z" />
        <path opacity="0.3" fill="#FFFFFF" enable-background="new    " d="M130,297.4c0,0,36.7,89,129.8,83.8
	C353,376,393.1,252.6,393.1,252.6s-33.8,135-135,136.2C156.8,389.9,130,297.4,130,297.4L130,297.4L130,297.4z" />
        <linearGradient id="XMLID_266_" gradientUnits="userSpaceOnUse" x1="-385.8044" y1="-1.5804" x2="-385.8044" y2="-3.0476" gradientTransform="matrix(229.352 0 0 99.336 88746.1016 515.7328)">
            <stop offset="0" style="stop-color:#FFFFFF;stop-opacity:0.4" />
            <stop offset="1" style="stop-color:#FFFFFF" />
        </linearGradient>
        <path opacity="0.3" fill="url(#XMLID_266_)" enable-background="new    " d="M376,289.2
	c-10.3-4.8-20.5-8.7-30.4-11.7c0,1.4,0,2.7-0.3,3.9c-3,1.2-6.6-0.2-9.5,1.6c5.6,8-4.9,7-9.9,7.3c-0.8,5,3.7,6.5,4.5,10.8
	c1,5.1-2,11.5-6.8,10.3c-3.9-1-7-6.5-10.3-8.8c-6.8-4.8-8.6-3.1-9.7,3c-1,5.8-0.9,9.8-7.8,7.1c-4-1.6-10.1-10.4-15.2-6.2
	c-4.3,3.6,2.4,17-3.1,19.7c-5.4,2.6-8-7.2-8.9-9.9c-2.3-7.3-8.9-7.9-13.8-1.2c-3.3,4.6-2.1,22.9-11.9,18.7
	c-4.5-1.9-5.6-11.9-11.9-7.2c-4.5,3.3-2.5,16.6-10.7,16.5c-3.9,0-3.3-1.8-4.6-5c-0.6-1.4-0.8-3.4-1.7-4.8c-0.7-1.2-2-0.5-2.6-1.4
	c-3.3-4.7-0.7-10.5-3.8-14.9c-4.9-6.9-8.8,0.2-9.4,5.6c-0.5,5-0.1,13.8-7.6,10.6c-0.1-3.3,1.3-7,0-10.2c-2-5.4-5.7-3.9-10.3-5.7
	c-0.9-5.3,5-8.9,4.6-13.3c-0.5-4.8-5.3-0.8-8.1-3.2c-0.1-1.5,0-2.9,0.1-4.3c-14.2,7.8-24.7,15.5-30.7,20.3
	c22.4,32.5,57.8,63.2,116.2,60C316.4,374,354.7,329.3,376,289.2L376,289.2L376,289.2z" />
        <radialGradient id="SVGID_3_" cx="-385.8036" cy="-1.8907" r="0.1287" gradientTransform="matrix(4.887497e-09 108.8605 -1713.9268 1.738116e-08 -2979.4583 42321.2734)" gradientUnits="userSpaceOnUse">
            <stop offset="0" style="stop-color:#A33665" />
            <stop offset="1" style="stop-color:#7D002F" />
        </radialGradient>
        <path opacity="0.6" fill="url(#SVGID_3_)" enable-background="new    " d="M146.3,316.8c22.4,32.5,57.8,63.2,116.2,60
	c53.7-3,92.2-47.7,113.3-87.7C261.4,235.8,170,298,146.3,316.8L146.3,316.8L146.3,316.8z M212.2,336.1
	c-35.6-32.6,26.4-59.9,36.4-58.4c9.9,1.5,15.9,55.4,15.9,55.4l0.8-56.9c0,0,38.7-3.8,53.8,25.7C334.2,331.5,247.8,368.7,212.2,336.1
	L212.2,336.1L212.2,336.1z" />
        <linearGradient id="XMLID_267_" gradientUnits="userSpaceOnUse" x1="-352.7986" y1="-2.4735" x2="-352.7986" y2="-1.4715" gradientTransform="matrix(11.1957 0 0 56.6893 4208.0425 410.4315)">
            <stop offset="0" style="stop-color:#361221" />
            <stop offset="1" style="stop-color:#96003A" />
        </linearGradient>
        <path opacity="0.4" fill="url(#XMLID_267_)" enable-background="new    " d="M260.7,270.2c0,0,4.3,32.2,2.8,56.8
	c0,0-1.9-44.5-10.9-54.4L260.7,270.2L260.7,270.2z" />
        <linearGradient id="XMLID_268_" gradientUnits="userSpaceOnUse" x1="-385.7906" y1="-2.7602" x2="-385.7906" y2="-0.3494" gradientTransform="matrix(227.2561 0 0 25.7273 87917.9141 284.8209)">
            <stop offset="0" style="stop-color:#FFFFFF;stop-opacity:0" />
            <stop offset="1" style="stop-color:#FFFFFF" />
        </linearGradient>
        <path fill="url(#XMLID_268_)" d="M130.8,228.8c0,0,130.6,16.8,227.7-13C358.4,215.8,254.2,263.7,130.8,228.8
	L130.8,228.8L130.8,228.8z" />
        <linearGradient id="XMLID_269_" gradientUnits="userSpaceOnUse" x1="-385.8794" y1="-1.6727" x2="-385.8794" y2="-0.7343" gradientTransform="matrix(239.7318 0 0 99.4105 92765.2578 534.9504)">
            <stop offset="0" style="stop-color:#FFFFFF;stop-opacity:0" />
            <stop offset="1" style="stop-color:#FFFFFF" />
        </linearGradient>
        <path fill="url(#XMLID_269_)" d="M137.6,318.3c0,0,45.3,69.6,123.1,64.2c77.8-5.4,117.1-86,117.1-86
	s-31.4,98.9-121,99.6C167.1,396.8,137.6,318.3,137.6,318.3L137.6,318.3L137.6,318.3z" />
        <linearGradient id="XMLID_270_" gradientUnits="userSpaceOnUse" x1="-385.9803" y1="-1.4195" x2="-385.9803" y2="-3.0821" gradientTransform="matrix(255.5011 0 0 86.6308 98791.3438 588.105)">
            <stop offset="0" style="stop-color:#FFFFFF;stop-opacity:0" />
            <stop offset="1" style="stop-color:#FFFFFF;stop-opacity:0.3" />
        </linearGradient>
        <path fill="url(#XMLID_270_)" d="M45,379.2c0,0,175.6,26.9,255.9,86.7C301.1,466,177.7,417.8,45,379.2L45,379.2
	L45,379.2z" />
        <linearGradient id="XMLID_271_" gradientUnits="userSpaceOnUse" x1="-379.1035" y1="-1.1983" x2="-379.1035" y2="-2.0164" gradientTransform="matrix(46.2602 0 0 84.2048 17803.5273 639.1533)">
            <stop offset="0" style="stop-color:#CE4920;stop-opacity:0" />
            <stop offset="1" style="stop-color:#000000;stop-opacity:0.8" />
        </linearGradient>
        <path opacity="0.4" fill="url(#XMLID_271_)" d="M284.9,470.7c-0.4-1.6,0.6-4,0.8-5.6c0.7-5.2,4.2-6.4,3.5-13.6
	c-16.2-5.9-32.1-12-44.2-15.6c0.1,0.1,0.1,0.1,0.2,0.2v1.4c-8.1,4.7,8.6,6.5,3.3,13c6.3-0.8,3.2,5.3,2.2,8
	c-1.6,4.3-1.5,7.1,0.2,11.1c1.9,4.4,1.8,6.2,1.8,10.9c0,1.9,0.7,3.7,0.5,5.6c-0.2,1.7-1.7,3.1-1.9,4.7c-0.4,4.8,3.3,4,5.7,7.5
	c2.5,3.6,0.2,6.8-1.1,10.3c-0.9,2.3-3.7,8.3-0.8,10.7c3.8,3.1,6.1-2,6.5-4.6c0.4-2.4-0.8-4.6-0.8-6.6c0-3,0.9-3.6,1.7-6.1
	c1.8-5.7-1.2-6.6-2.9-11.5c-1.8-5.1,2-7.4,2-12.3c0-3.1-4.7-9.7-0.6-11.3c0.1-1-0.7-3.1-0.5-3.6c0.6-1.7,0.6-1.2,1.5-2.7
	c1.2-1.8,3.3-4.5,5.6-2.9c2.1,1.5,0.4,5.2,0.9,7.5c0.6,2.4,3,4,1.8,7.5c-0.7,2.1-4.2,3.2-4.5,5.6c-0.4,3,2.3,3.5,2.7,6.1
	c0.5,3.1-2.1,4.3-1.9,7.5c0.2,2.8,2.7,4.3,2.4,7.4c3.1,1.3,5.2-0.2,6.6-3.1c2-4.1-0.9-4.6-1.5-8.1c-0.3-2,1-3,1.1-4.7
	c0.1-2.6-0.2-2.2-0.6-4.1c-0.7-2.9-1.4-5.6-1.4-9c0-5.3,5.2-14,7-5.1c0.7,3.2,0.2,5,1.5,8.3c1.2,3.1,0.9,5,0.9,8.5
	c3.8,2.2,5.3-4,4.6-6.9C286.9,473.2,285.3,472.4,284.9,470.7L284.9,470.7L284.9,470.7z" />
        <g transform="translate(357.302144, 325.364522)">
            <path fill="#920B04" fill-opacity="0.779" d="M6.1,40.6c-1.4,10.3-3,40,19.3,40s18.5-32.2,18.5-32.2
		S43.5,23.2,19.4,1.1C19,2.6,8.1,26.3,6.1,40.6L6.1,40.6L6.1,40.6z" />
            <linearGradient id="XMLID_272_" gradientUnits="userSpaceOnUse" x1="-3235.6069" y1="-1.9275" x2="-3236.3074" y2="-1.9343" gradientTransform="matrix(39.0922 0 0 73.9556 126521.6328 180.6812)">
                <stop offset="0" style="stop-color:#FFFFFF;stop-opacity:0.7861" />
                <stop offset="1" style="stop-color:#FFADA6;stop-opacity:0.69" />
            </linearGradient>
            <path fill="url(#XMLID_272_)" d="M19.4,1.1c0,1.3-16.1,25.3-18,39.6C0,51-1.1,74.9,21.1,74.9
		c22.3,0,18.6-32.2,18.6-32.2S38.7,24.5,19.4,1.1V0.8V1.1L19.4,1.1z" />
            <linearGradient id="XMLID_273_" gradientUnits="userSpaceOnUse" x1="-3232.4978" y1="-2.2923" x2="-3232.4978" y2="-1.5449" gradientTransform="matrix(28.9715 0 0 47.6624 93670.6953 120.5474)">
                <stop offset="0.1255" style="stop-color:#85211B" />
                <stop offset="1" style="stop-color:#FFFFFF" />
            </linearGradient>
            <path fill="url(#XMLID_273_)" fill-opacity="0.7" d="M20.9,48.9c16.5,0,13.8-19.6,13.8-19.6s-0.9-14-15.2-28.1
		c0,0-11,19-13.1,26.9C5.3,34.3,4.4,48.9,20.9,48.9z" />
            <linearGradient id="XMLID_274_" gradientUnits="userSpaceOnUse" x1="-3234.3635" y1="-1.8806" x2="-3234.3635" y2="-1.0425" gradientTransform="matrix(33.6359 0 0 54.5934 108811.1875 151.9188)">
                <stop offset="0" style="stop-color:#FFFFFF;stop-opacity:0" />
                <stop offset="1" style="stop-color:#FFFFFF" />
            </linearGradient>
            <path fill="url(#XMLID_274_)" d="M37.1,42.2c0,0-0.5-10.7-9.5-25.6c6,11.9,6.4,20,6.4,20s3.3,29-16.8,29
		c-6.5,0-10.8-2.2-13.6-5.6c2.2,6.2,7,11.2,16.7,11.2C40.4,71.4,37.1,42.2,37.1,42.2L37.1,42.2L37.1,42.2z" />
        </g>
        <path opacity="0.3" fill="#FFFFFF" enable-background="new    " d="M162.6,77.3c0,0,56.1-6.8,74.7,35.9
	c0,0-5.5-25.3-0.8-27.3c4.6-2.1,11.4,38.8,11.4,38.8s2.5-22.4,4.2-22.8c1.7-0.4,1.7,16.5,1.7,16.5s3.4-38.8,10.5-39.2
	c7.2-0.4,0.8,41.4,0.8,41.4s12.7-43.9,67.9-42.2c0,0-37.1-8.9-61.6,16c0,0,2.5-24.9-5.9-24.9s-12.7,25.3-12.7,25.3s-0.4-5.9-1.7-5.9
	c-1.3,0-3,17.3-3,17.3s-8.9-33.3-13.9-32.1c-5.1,1.3-3,19.4-3,19.4S208.6,68.6,162.6,77.3L162.6,77.3L162.6,77.3z" />
        <g transform="translate(234.541910, 202.604288)">
            <g>
                <path fill="#AF2419" d="M17.6,7.2c0,0,0.7-7.2-7-6.7C2.9,0.9-9.5,9,17.6,7.2L17.6,7.2L17.6,7.2z" />
                <path fill="#95110A" d="M10.6,0.5C6.9,0.7,2,2.8,1.2,4.6c1.6,0.6,7.1,2.5,14.5,0.5l1.9,2.1
			C17.6,7.2,18.3,0,10.6,0.5L10.6,0.5L10.6,0.5z" />
                <path fill="#6E0301" d="M16.9,3.5c-0.8-1.7-2.6-3.2-6.2-3S2.4,2.7,1.3,4.4C4.3,4.8,12.5,5.6,16.9,3.5L16.9,3.5
			L16.9,3.5z" />
            </g>
            <g transform="translate(20.959064, 0.000000)">
                <path fill="#AF2419" d="M1.3,7.2c0,0-0.7-7.2,7-6.7C15.9,0.9,28.2,9,1.3,7.2L1.3,7.2L1.3,7.2z" />
                <path fill="#95110A" d="M8.2,0.5c3.7,0.2,8.6,2.3,9.4,4.1c-1.5,0.6-7.1,2.5-14.5,0.5L1.2,7.2
			C1.3,7.2,0.6,0,8.2,0.5L8.2,0.5L8.2,0.5z" />
                <path fill="#6E0301" d="M2,3.5c0.8-1.7,2.6-3.2,6.2-3s8.3,2.2,9.4,3.9C14.6,4.8,6.4,5.6,2,3.5L2,3.5L2,3.5z" />
            </g>
        </g>
        <linearGradient id="XMLID_275_" gradientUnits="userSpaceOnUse" x1="-385.8021" y1="-1.5434" x2="-385.8021" y2="-2.2074" gradientTransform="matrix(228.7532 0 0 93.9605 88514.5703 508.8605)">
            <stop offset="0" style="stop-color:#FFFFFF;stop-opacity:0.7" />
            <stop offset="1" style="stop-color:#FFFFFF" />
        </linearGradient>
        <path opacity="0.2" fill="url(#XMLID_275_)" enable-background="new    " d="M262.4,376.8
	c53.7-3,92.2-47.7,113.3-87.7c-4.8-2.3-9.6-4.3-14.4-6.1c0.3,4-0.5,7.8-3.7,8.9c-4.8,1.5-5.6-2.5-7.4,3.5c-1.5,4.8-3.1,2.2-7.1,3.3
	c-3.8,1-2.6,4.1-2.4,7.1c0.4,8-0.3,16.8-9.9,16.7c-3.8,0-7.3-2.3-11.1-1.9c-1.5,0.2-2,0.3-3.2,1.1c-1.3,0.9-2.2,3.9-3.6,4.1
	c-2.4,0.3-3.5-5.5-6.7-2.5c-2.8,2.6,1.1,8.4-3.8,9.6c-3.5,0.9-5.7-3.6-9.5-2.5c-3.5,1-2.3,5.1-2.5,8.5c-0.4,5.2-2,5.4-6.7,3.7
	c-1.9-0.7-2.5-0.9-4.4-0.7c-1.7,0.2-3.5,1.1-5.6,0c-2.4-1.3-2.1-4.2-4.3-6c-1.5-1.3-6.5-4.5-8.4-2.5c-1.5,1.6,0.8,7.9,0.7,10.3
	c-0.1,2.8,1.6,9.6-0.9,10.8c-1.7,0.8-7.5-0.4-9-1.6c-2.5-2.1-3.1-7-5.7-9.5c-2.3-2.2-6.7-3-9.2-0.6c-2.4,2.4,0,7.3-1.5,10.3
	c-1.6,3.3-5.9,4.2-9.1,3c-3.6-1.4-3.4-4.7-5.5-6.8c-2.9-2.7-8.6,0.1-11.4-2.4c-2.8-2.5-0.8-6.8-1.9-9.9c-0.3-0.8-1.9-3.5-2.8-3.7
	c-1.9-0.6-2.3,1.1-3.7,1.8c-1,0.5-3.2,0.4-4.2,1.3c-1.5,1.3-0.7,2.7-1.2,4.5c-1.2,4.8-5.3,3.7-9,2.2c-3.2-1.2-3.4-2.8-3.4-6.2
	c0-2.6-0.2-6.9-1.9-8.9c-2-2.3-5.2-0.8-7.9-1.7c-0.5-3.2,3.1-5.7,0.7-8.1c-1.3-1.3-3-0.6-3.8-2.4c-0.7-1.4,0.3-3.8-0.1-5.3
	c-1.3-5.1-4.8-0.8-6.8-3.3c-0.4-0.5-0.4-1.4-0.1-2.4c-7.3,4.7-12.9,8.9-16.8,12C168.5,349.4,203.9,380.1,262.4,376.8L262.4,376.8
	L262.4,376.8z" />
        <linearGradient id="XMLID_276_" gradientUnits="userSpaceOnUse" x1="254.9503" y1="574.3235" x2="253.3563" y2="604.5598" gradientTransform="matrix(1 0 0 -1 -6.654682e-08 800)">
            <stop offset="0" style="stop-color:#A6261A;stop-opacity:0.5" />
            <stop offset="0.9987" style="stop-color:#AB2015;stop-opacity:0.5004" />
            <stop offset="1" style="stop-color:#AB2015;stop-opacity:0.5" />
        </linearGradient>
        <path fill="url(#XMLID_276_)" d="M241,226.5c9.1-0.4,18.4-0.9,28-1.7c4-1.9,7.6-4.3,9.3-7.1
	c3.5-5.7-0.1-12.3-2.2-15.3c1.7,3.4,1.2,9.5-2.7,11.3c-4.7,2.1-31,3.8-38.1-0.5c-7.1-4.2-2.3-11.3-2.3-11.3
	C223.3,215.4,232,222.7,241,226.5L241,226.5L241,226.5z" />
        <linearGradient id="XMLID_277_" gradientUnits="userSpaceOnUse" x1="-379.7325" y1="-3.3888" x2="-379.7325" y2="-1.9229" gradientTransform="matrix(50.0023 0 0 24.3524 19241.5527 267.8419)">
            <stop offset="0" style="stop-color:#000000;stop-opacity:0.3" />
            <stop offset="1" style="stop-color:#B82C1E;stop-opacity:0.8" />
        </linearGradient>
        <path fill="url(#XMLID_277_)" d="M232.5,214.6c5.3,5.7,10.3,9.4,13.7,11.7c6.6-0.3,13.4-0.7,20.3-1.3
	c4.2-2.9,12.3-9.5,12.6-16.8c-0.8-2.4-2-4.5-3-5.8c1.7,3.4,1.2,9.5-2.7,11.3c-4.7,2.1-31,3.8-38.1-0.5c-7.1-4.2-2.3-11.3-2.3-11.3
	c-2.2,3-3.4,5.7-4,8.1C229.9,211.3,230.9,212.9,232.5,214.6L232.5,214.6L232.5,214.6z" />
        <radialGradient id="XMLID_278_" cx="-385.8036" cy="-1.8896" r="0.8736" gradientTransform="matrix(229.0526 0 0 108.8325 88630.4219 528.1895)" gradientUnits="userSpaceOnUse">
            <stop offset="0" style="stop-color:#B3174B" />
            <stop offset="1" style="stop-color:#2B0011" />
        </radialGradient>
        <path opacity="0.5" fill="url(#XMLID_278_)" enable-background="new    " d="M228.5,275.5
	c-40.9,11.1-70.3,31.8-82.2,41.3c22.4,32.5,57.8,63.2,116.2,60c53.7-3,92.2-47.7,113.3-87.7c-35.4-16.5-68.6-21.9-98.2-20.9
	c14.7,2,56.9,9.6,65.6,30.4c10.5,25.3-48.3,49.1-78.5,52.6c-30.4,3.4-81.2-4-79.5-36.7C185.7,295.6,209,282.8,228.5,275.5
	L228.5,275.5L228.5,275.5z" />
        <path opacity="0.3" fill="#FFFFFF" enable-background="new    " d="M235.2,200c0,0,17.8-7.2,38.9,0
	C274.2,200,254.9,186.5,235.2,200L235.2,200L235.2,200z" />
        <radialGradient id="XMLID_279_" cx="-381.3484" cy="-1.9908" r="0.897" gradientTransform="matrix(63.1559 0 0 120.0655 24352.4414 604.1301)" gradientUnits="userSpaceOnUse">
            <stop offset="0" style="stop-color:#000000;stop-opacity:0" />
            <stop offset="1" style="stop-color:#000000" />
        </radialGradient>
        <path fill="url(#XMLID_279_)" fill-opacity="0.2" d="M282.8,438.4c0,0,15.5-0.1,16.7-13c1.1-13.1-7-88.7-7-88.7
	s-0.6-18.5-24.4-18.5c-23.6,0-24.3,18.5-24.3,18.5s-8,75.5-7.3,88.7c0.7,13,17,13,17,13h14.7L282.8,438.4L282.8,438.4z" />
        <g transform="translate(239.532164, 432.155945)">
            <linearGradient id="XMLID_280_" gradientUnits="userSpaceOnUse" x1="-2296.2366" y1="-1.913" x2="-2295.1531" y2="-1.913" gradientTransform="matrix(48.3641 0 0 84.2048 111055.8594 204.8809)">
                <stop offset="0" style="stop-color:#3ED8BB" />
                <stop offset="1" style="stop-color:#3FB5BA" />
            </linearGradient>
            <path fill="url(#XMLID_280_)" d="M42.9,36.4c-0.4-1.6,0.6-4,0.8-5.6c0.7-5.2,4-9.2,5.7-14.1
		C33.2,10.8,15.1,5.2,3,1.6c0.1,0.1,0.1,0.1,0.2,0.2v1.4c-8.1,4.7,8.6,6.5,3.3,13c6.3-0.8,3.2,5.3,2.2,8c-1.6,4.3-1.5,7.1,0.2,11.1
		c1.9,4.4,1.8,6.2,1.8,10.9c0,1.9,0.7,3.7,0.5,5.6c-0.2,1.7-1.7,3.1-1.9,4.7c-0.4,4.8,3.3,4,5.7,7.5c2.5,3.6,0.2,6.8-1.1,10.3
		c-0.9,2.3-3.7,8.3-0.8,10.7c3.8,3.1,6.1-2,6.5-4.6c0.4-2.4-0.8-4.6-0.8-6.7c0-3,0.9-3.6,1.7-6.1c1.8-5.7-1.2-6.6-2.9-11.5
		c-1.8-5.1,2-7.4,2-12.3c0-3.1-4.7-9.7-0.6-11.3c0.1-1-0.7-3.1-0.5-3.6c0.6-1.7,0.6-1.2,1.5-2.7c1.2-1.8,3.3-4.5,5.6-2.9
		c2.1,1.5,0.4,5.2,0.9,7.5c0.5,2.4,3,4,1.8,7.5c-0.7,2.1-4.2,3.2-4.5,5.6c-0.4,3,2.3,3.5,2.7,6.1c0.5,3.1-2.1,4.3-1.9,7.5
		c0.2,2.8,2.7,4.3,2.4,7.4c3.1,1.3,5.2-0.2,6.6-3.1c2-4.1-0.9-4.6-1.5-8.1c-0.3-2,1-3,1.1-4.7c0.1-2.6-0.2-2.2-0.6-4.1
		c-0.7-2.9-1.4-5.6-1.4-9c0-5.3,5.2-14,7-5.1c0.7,3.2,0.2,5,1.5,8.3c1.2,3.1,0.9,5,0.9,8.5c3.8,2.2,5.3-4,4.6-6.9
		C44.8,38.9,43.3,38.1,42.9,36.4L42.9,36.4L42.9,36.4z" />
            <linearGradient id="XMLID_281_" gradientUnits="userSpaceOnUse" x1="-2296.4705" y1="-2.1056" x2="-2295.4668" y2="-2.1056" gradientTransform="matrix(49.8908 0 0 31.239 114573.6953 82.9421)">
                <stop offset="0" style="stop-color:#F6D62C" />
                <stop offset="0.3846" style="stop-color:#FBB316" />
                <stop offset="0.6509" style="stop-color:#F6D60E" />
                <stop offset="1" style="stop-color:#FBB316" />
            </linearGradient>
            <path fill="url(#XMLID_281_)" d="M3.2,1.7v1.4c-8.1,4.7,8.6,6.5,3.3,13c5-0.7,4.1,3,3,6c0.2,0,0.4-0.1,0.6-0.1
		c2.3-0.2,2.4,0.9,4.2,1.5c0.6,0.2,2.5,0.1,2.9,0.5c0.9,0.8,0.4,2.8,0.9,3.5c0.2,0.3,0.4,0.4,0.7,0.6c0.3-0.8,0.5-0.7,1.2-1.9
		c1.2-1.8,3.3-4.5,5.6-2.9c1.8,1.3,0.8,4.2,0.8,6.5c1.6-0.4,2.7-1,4.8-0.9c0.6,0.5,1,1.1,1.3,1.6c1.7-3.7,4.5-5.8,5.7,0.2
		c0.2,0.8,0.3,1.5,0.3,2.1c1.6-0.5,3.1-1.2,5-1c0.1-0.4,0.2-0.8,0.2-1.1c0.7-5.1,12.6-11.3,4.3-15.1C31.7,9.7,15,5.1,2.9,1.5
		C3.1,1.6,3.1,1.7,3.2,1.7L3.2,1.7L3.2,1.7z" />
            <g transform="translate(7.984405, 32.935673)">
                <linearGradient id="XMLID_282_" gradientUnits="userSpaceOnUse" x1="-2330.8999" y1="-2.3814" x2="-2329.8894" y2="-2.3814" gradientTransform="matrix(10.4346 0 0 16.2682 24337.8516 57.2069)">
                    <stop offset="0" style="stop-color:#6CAF11" />
                    <stop offset="1" style="stop-color:#52840A" />
                </linearGradient>
                <path fill="url(#XMLID_282_)" d="M24,26.1c0.7,0.2,1.5,0.4,2.3,0.5c0.2-2.2-1.7-3.1-2.2-5.8c-0.3-2,1-3,1.1-4.7
			c0.1-2.6-0.2-2.2-0.6-4.1c-0.1-0.4-0.2-0.8-0.3-1.2c-2.7-0.4-5.5-0.4-8.3-0.5c-0.1,0.2-0.1,0.4-0.1,0.6c-0.4,3,2.3,3.5,2.7,6.1
			c0.3,2.1-0.7,3.3-1.4,4.9C20.2,21.4,23.1,23.6,24,26.1L24,26.1L24,26.1z" />
                <linearGradient id="XMLID_283_" gradientUnits="userSpaceOnUse" x1="-2332.7458" y1="-2.1743" x2="-2331.7451" y2="-2.1743" gradientTransform="matrix(10.9786 0 0 25.2812 25610.8613 69.1489)">
                    <stop offset="0" style="stop-color:#6CAF11" />
                    <stop offset="1" style="stop-color:#52840A" />
                </linearGradient>
                <path fill="url(#XMLID_283_)" d="M2.8,2.7C2.1,2.2,1.4,1.8,0.6,1.5C0.7,1.8,0.8,2,0.9,2.3
			c1.9,4.4,1.8,6.2,1.8,10.9c0,1.9,0.7,3.7,0.5,5.6c-0.2,1.7-1.7,3.1-1.9,4.7c0,0,0,0,0,0.1c0.1,0,0.1,0,0.2-0.1
			c3.4-0.9,4.9,4.2,8.7,3.2c0.3-0.1,0.6-0.2,0.9-0.4c-0.5-0.9-1-1.9-1.5-3.1c-1.8-5.1,2-7.4,2-12.3c0-0.3,0-0.6-0.1-0.9
			C10.3,9.9,9.1,9.7,8,9.3C6.4,7.4,4.8,4.2,2.8,2.7L2.8,2.7L2.8,2.7z" />
            </g>
            <g transform="translate(6.986355, 18.962963)">
                <linearGradient id="XMLID_284_" gradientUnits="userSpaceOnUse" x1="-2306.8101" y1="-2.5959" x2="-2305.8176" y2="-2.5959" gradientTransform="matrix(7.2858 0 0 11.8768 16838.1973 48.4965)">
                    <stop offset="0" style="stop-color:#FE980E" />
                    <stop offset="1" style="stop-color:#FF5906" />
                </linearGradient>
                <path fill="url(#XMLID_284_)" d="M38.4,23.3c0-0.6,0-1.2-0.2-1.7c-0.4-1.6-2-2.4-2.4-4.2c-0.4-1.6,0.6-4,0.8-5.6
			v-0.1c-1.7,0-3.7,0.1-5.5,0v0.1c0.7,3.2,0.2,5,1.5,8.3c0.5,1.3,0.8,2.4,0.9,3.5C35.2,23.2,36.9,23.1,38.4,23.3L38.4,23.3
			L38.4,23.3z" />
                <linearGradient id="XMLID_285_" gradientUnits="userSpaceOnUse" x1="-2319.1743" y1="-2.3243" x2="-2318.1707" y2="-2.3243" gradientTransform="matrix(9.4815 0 0 17.9984 22006.1035 59.8007)">
                    <stop offset="0" style="stop-color:#FE980E" />
                    <stop offset="1" style="stop-color:#FF5906" />
                </linearGradient>
                <path fill="url(#XMLID_285_)" d="M24.3,17c0-2.2,0.9-5.1,2.1-7c-0.8-0.5-1.6-0.9-2.7-1c-1.5-0.2-2.8,0.1-4.1,0.4
			c-0.1,0.9-0.1,1.8,0,2.5c0.5,2.4,3,4,1.8,7.5c-0.7,2.1-4.2,3.2-4.5,5.6v0.5c1.6,0,2.2,0.5,3.6,1c1.3,0.5,3.4,0.6,5.3,0.3
			c-0.1-0.2-0.1-0.4-0.2-0.7C25,23.1,24.3,20.4,24.3,17L24.3,17L24.3,17z" />
                <linearGradient id="XMLID_286_" gradientUnits="userSpaceOnUse" x1="-2328.3455" y1="-2.2049" x2="-2327.3418" y2="-2.2049" gradientTransform="matrix(12.2162 0 0 23.3544 28444.0996 64.9084)">
                    <stop offset="0" style="stop-color:#FE980E" />
                    <stop offset="1" style="stop-color:#FF5906" />
                </linearGradient>
                <path fill="url(#XMLID_286_)" d="M12,13.6c0.1-1-0.7-3.1-0.5-3.6c0.6-1.5,0.6-1.3,1.3-2.3
			c-0.3-0.5-0.4-1.2-0.7-2.1c-0.5-1.7-1.2-2.2-3-2.3c-0.8,0-1.6,0.3-2.3,0.2C6,3.3,5.2,2.6,4.4,2.2C3.9,2,3.4,1.8,3,1.7
			C2.6,3,2,4.4,1.7,5.3c-1.6,4.3-1.5,7.1,0.2,11.1c0.3,0.6,0.5,1.2,0.7,1.8c1.2,0.9,2.3,1.9,3.1,3.1c1.9,2.9,2.8,3.6,6.4,3.8h0.5
			v-0.2C12.6,21.9,7.9,15.3,12,13.6L12,13.6L12,13.6z" />
            </g>
            <path opacity="0.3" fill="#FFFFFF" enable-background="new    " d="M28.1,18.8c1.2,0.4,1.7,0.9,1.7,2.2
		c0,0.8,0,1.7,0.1,2.5c0,0.7,0,0.7,0.6,0.8c0.5,0.1,2.6-0.5,2.6,0.2c0.8,0.2,1.5-1.6,2.2-2c0.7-0.4,1.6,0.1,2,0.8
		c0.3,0.4,0.2,1.1,0.7,1.4c0.5,0.2,0.8-0.1,1.2-0.1c0.5,0,0.4,0.4,0.8,0.5c0.6,0.2,0.6-0.5,0.8-0.9c0.4-0.7,0.9-1.4,1.6-1.7
		c0.4-0.2,1-0.5,1.5-0.5c0.2,0,0.5,0.4,0.8,0.1c0.6-0.4,0.5-2.3,0.3-2.9c-0.3-0.9-1.6-1.5-2.6-1.3c-0.4,0.1-0.8,0.3-1.1,0.6
		c-0.2,0.2-0.3,0.8-0.4,0.9c-0.7,0.5-1.3-0.5-1.5-1c-0.3-0.7-0.5-1.5-1.1-2c-1.1-1-2.9-0.7-3.9,0.3c-0.7,0.6-0.7,1.7-1.3,2.4
		c-0.5,0.5-0.8-0.7-1.3-1.1c-1.2-1-2.7-0.1-3.9,0.4" />
            <path opacity="0.3" fill="#FFFFFF" enable-background="new    " d="M12.4,23.9c-0.8,0.1-1.3,1.6-1.3,2.3
		c0,1.1,1.1,1.4,1.4,2.4c0.4,1.5-1.3,2.6-1.7,3.9c-0.5,2.3,2.4,1.9,2.6,3.9c0,0.3-0.1,0.7,0.1,0.9c0.3,0.4,1.3,0.6,1.7,0.4
		c0.6-0.3,0.9-1.6,1.2-2.1c0.4-0.9,0.5-1.9,0.7-2.9c0.3-1.2,1.2-2.4,0.6-3.7c-0.5-1.1-1.5-1.5-2.3-2.2c-0.6-0.6-0.9-1.3-1.6-1.7
		c-0.7-0.3-0.8-0.6-0.9-1.4" />
            <path opacity="0.3" fill="#FFFFFF" enable-background="new    " d="M13.8,44.5c-0.1,1,0.9,1.5,0.7,2.5
		c-0.2,0.8-0.7,1.5-0.8,2.4c-0.1,0.9,0.7,1.9,0.4,2.7c-0.2,0.9-1.4,1.6-1.9,2.3c-0.6,1-1,1.5-0.3,2.6c0.6,0.9,1.5,1.6,2.7,1.2
		c2.4-0.7,1.3-3.8,1.1-5.4c-0.1-0.8-0.1-1.4,0.2-2.2c0.3-0.9,0.2-1.4-0.1-2.3c-0.3-1.1,0.3-3.5-1.4-3.6" />
            <path opacity="0.3" fill="#FFFFFF" enable-background="new    " d="M15.9,74.9c-1,1.1-1.9,2.6-2.3,4
		c-0.2,0.6-0.4,1.5-0.2,2.1c0.5,1.6,1.9,1.6,2.9,0.5c0.9-1,1.5-2.4,1.7-3.8c0.1-0.9,0-1.3-0.6-1.8c-0.4-0.4-0.5-0.9-0.9-1.3" />
            <path opacity="0.3" fill="#FFFFFF" enable-background="new    " d="M28.9,40.7c-0.2,0.6-0.9,1.1-1.3,1.5
		c-0.6,0.6-1.3,1.2-1.8,1.8c-0.5,0.7-1.2,2.3-0.5,3c0.3,0.3,0.8,0.4,1.1,0.8c0.3,0.4,0.7,0.9,0.9,1.4c0.3,0.5,0.4,2,0.9,2.3
		c0.7,0.4,1.5-0.5,1.6-1.1c0.2-1-0.2-2,0.3-3c0.6-1,0.8-1.9,0.5-3.1c-0.1-0.4-0.3-0.8-0.5-1.2c-0.2-0.4-0.6-0.6-0.9-1
		c-0.1-0.2-0.2-0.4-0.2-0.6" />
            <path opacity="0.3" fill="#FFFFFF" enable-background="new    " d="M27.3,54.5c-0.5,0.6-1,1.8-1.1,2.6
		c-0.2,1.2,1,1.3,1.7,2s0.4,1.2,0.7,2c0.3,0.7,1.1,0.6,1.6,0.2c1.6-0.9,1.9-4.1,0.6-5.4c-0.4-0.3-1-0.9-1.4-1.1
		c-0.5-0.2-1.3-0.2-1.8-0.4" />
            <path opacity="0.3" fill="#FFFFFF" enable-background="new    " d="M41.2,38.6c0.8,0.8,0.9,3.1,0.8,4.1
		c-0.1,0.7-0.3,1.3-0.5,2c-0.4,1.6,1.1,2,1.9,0.6c0.5-0.8,1-2,0.9-3c-0.1-1-0.7-1.1-1.1-1.8c-0.4-0.5-0.3-0.7-0.8-1.1
		c-0.3-0.2-0.6-0.5-0.8-0.8" />
        </g>
        <linearGradient id="XMLID_287_" gradientUnits="userSpaceOnUse" x1="-381.0139" y1="-1.8842" x2="-380.0119" y2="-1.8842" gradientTransform="matrix(55.6064 0 0 113.5782 21427.25 589.8692)">
            <stop offset="0" style="stop-color:#3ED8BB" />
            <stop offset="0.3846" style="stop-color:#3FB5BA" />
            <stop offset="0.6509" style="stop-color:#3ED8BB" />
            <stop offset="1" style="stop-color:#3FB5BA" />
        </linearGradient>
        <path fill="url(#XMLID_287_)" d="M268.3,432.7h14.1c0,0,12.5-0.1,13.6-12.3c1.1-12.4-4.3-83.9-4.3-83.9
	s-0.6-17.5-23.5-17.5h0.1c-22.8,0-23.5,17.5-23.5,17.5s-5,71.5-4.3,83.9c0.7,12.3,13.6,12.3,13.6,12.3H268.3L268.3,432.7z" />
        <linearGradient id="XMLID_288_" gradientUnits="userSpaceOnUse" x1="-380.4614" y1="-0.4467" x2="-380.4614" y2="-2.2495" gradientTransform="matrix(55.1922 0 0 13.5735 21267.0566 459.8905)">
            <stop offset="0" style="stop-color:#FFFFFF;stop-opacity:0.3387" />
            <stop offset="1" style="stop-color:#2CAB98" />
        </linearGradient>
        <path fill="url(#XMLID_288_)" fill-opacity="0.7" d="M268.2,432.7h12.7c12.8,0,15.3-8.8,15.3-13.6
	c-4.3,4.8-11.8,6.1-16,7.8c-5.5,2.3-10.6,1.9-13.3,1.4c-2.8-0.5-2.9-2.1-12.1-1c-4.8,0.5-10-1.9-13.9-4.3c1.5,5.7,5.1,9.7,14.6,9.7
	H268.2L268.2,432.7z" />
        <linearGradient id="XMLID_289_" gradientUnits="userSpaceOnUse" x1="-381.0226" y1="-2.1588" x2="-380.0224" y2="-2.1588" gradientTransform="matrix(55.6912 0 0 27.0886 21460.0176 461.4627)">
            <stop offset="0" style="stop-color:#6CAF11" />
            <stop offset="0.3846" style="stop-color:#52840A" />
            <stop offset="0.6509" style="stop-color:#6CAF11" />
            <stop offset="1" style="stop-color:#52840A" />
        </linearGradient>
        <path fill="url(#XMLID_289_)" d="M295,389.4L295,389.4c0.1,1.2,0.1,2.4,0.2,3.6c-4.7-2.3-9.8-1.2-15.8,1.4
	c-7.8,3.5-16.6,1.2-25.3-1.9c-4.6-1.7-9.5-0.6-13,0.8c-0.4,7.9-0.7,14.9-0.9,19.4c2.2,0.9,5.3,1.5,8.8,0.5c0,0,8.3,2.4,12.5,1.7
	c0,0,1.6-0.5,4,0.7s5.4,1.2,6.9,0.3c0,0,4.9,0.2,6.8-1c0,0,3.1-0.3,4.3-0.9c0,0,4.8-0.2,7.3-2.6c0,0,2.5,0,5.2-0.3
	C295.8,406.1,295.4,398.3,295,389.4L295,389.4L295,389.4z" />
        <linearGradient id="XMLID_290_" gradientUnits="userSpaceOnUse" x1="-380.9633" y1="-2.5209" x2="-379.9612" y2="-2.5209" gradientTransform="matrix(55.1922 0 0 13.3022 21266.9062 436.7819)">
            <stop offset="0" style="stop-color:#81C819" />
            <stop offset="0.3846" style="stop-color:#71B612" />
            <stop offset="0.6509" style="stop-color:#81C819" />
            <stop offset="1" style="stop-color:#71B612" />
        </linearGradient>
        <path fill="url(#XMLID_290_)" d="M287.9,409.4c3.9,0.3,6.5,0.3,8.1,0.2c-0.2-3.6-0.4-8-0.6-12.9
	c-1.3,0-2.8,0-3.8-0.1c-2-0.2-5.8,0.7-7.8,1.6c-2,0.9-3.9,0.8-6.3,0.4c-2.4-0.4-2.9-1.4-6.1-0.2c-3.3,1.2-6.5,1.6-6.5,1.6
	s-0.8-0.4-2.2-0.3c-1.4,0.1-4.8-0.2-4.8-0.2l-4.3,0.4c-3.6,1.7-10.1,0.6-12.6,0.1c-0.1,2.2-0.2,4.3-0.3,6.2c6.7-1,10.4,2.9,10.4,2.9
	c6.2-2,9.8,0.8,9.8,0.8C269.5,407.4,279.3,408.8,287.9,409.4L287.9,409.4L287.9,409.4z" />
        <linearGradient id="XMLID_291_" gradientUnits="userSpaceOnUse" x1="-380.4877" y1="-1.9658" x2="-379.4874" y2="-1.9658" gradientTransform="matrix(51.699 0 0 58.7348 19913.4414 463.0978)">
            <stop offset="0" style="stop-color:#F6D62C" />
            <stop offset="0.3846" style="stop-color:#FBB316" />
            <stop offset="0.6509" style="stop-color:#F6D60E" />
            <stop offset="1" style="stop-color:#FBB316" />
        </linearGradient>
        <path fill="url(#XMLID_291_)" d="M291.7,335.5c-2-17.6-23.2-17.3-23.2-17.3s-21.8-0.3-23.7,17.3
	c-0.7,6.2-1.5,18.3-2.2,31.4c2.2,3.6,5.1,7.2,8.2,8.2c7.1,2.4,7.8-2.1,17.8,0.9c10,2.9,13.5-0.9,18.4-3.1c2.1-1,4.9-0.3,7.4,0.8
	C293.4,358.2,292.5,342.8,291.7,335.5L291.7,335.5L291.7,335.5z" />
        <linearGradient id="XMLID_292_" gradientUnits="userSpaceOnUse" x1="-380.8051" y1="-2.1321" x2="-379.805" y2="-2.1321" gradientTransform="matrix(53.9945 0 0 29.3011 20802.6992 444.1146)">
            <stop offset="0" style="stop-color:#FE980E" />
            <stop offset="0.3846" style="stop-color:#FF5906" />
            <stop offset="0.6509" style="stop-color:#FE980E" />
            <stop offset="1" style="stop-color:#FF5906" />
        </linearGradient>
        <path fill="url(#XMLID_292_)" d="M294.2,372.7c0,0.4,0,0.7,0.1,1.1c-2.5-1.1-5.2-1.8-7.4-0.8
	c-4.8,2.3-8.3,6.1-18.4,3.1c-10-2.9-10.7,1.6-17.8-0.9c-3.1-1-5.9-4.6-8.2-8.2c-0.5,8.9-1,18.3-1.3,26.4c3.5-1.4,8.3-2.5,13-0.8
	c8.7,3.1,17.5,5.4,25.3,1.9c6-2.7,11.1-3.7,15.8-1.4C294.9,386.6,294.5,379.7,294.2,372.7L294.2,372.7L294.2,372.7z" />
        <linearGradient id="XMLID_293_" gradientUnits="userSpaceOnUse" x1="-380.8051" y1="-2.1321" x2="-379.805" y2="-2.1321" gradientTransform="matrix(53.9945 0 0 29.3011 20802.6992 444.1146)">
            <stop offset="0" style="stop-color:#FE980E" />
            <stop offset="0.3846" style="stop-color:#FF5906" />
            <stop offset="0.6509" style="stop-color:#FE980E" />
            <stop offset="1" style="stop-color:#FF5906" />
        </linearGradient>
        <path fill="url(#XMLID_293_)" d="M294.2,372.7c0,0.4,0,0.7,0.1,1.1c-2.5-1.1-5.2-1.8-7.4-0.8
	c-4.8,2.3-8.3,6.1-18.4,3.1c-10-2.9-10.7,1.6-17.8-0.9c-3.1-1-5.9-4.6-8.2-8.2c-0.5,8.9-1,18.3-1.3,26.4c3.5-1.4,8.3-2.5,13-0.8
	c8.7,3.1,17.5,5.4,25.3,1.9c6-2.7,11.1-3.7,15.8-1.4C294.9,386.6,294.5,379.7,294.2,372.7L294.2,372.7L294.2,372.7z" />
        <path fill="#3FB5BA" d="M255.3,420.4c-0.1-0.3-0.4-0.6-0.6-0.9c-0.2-0.2-0.2-0.5-0.3-0.8c-0.1,0.5,0,1.1,0.3,1.5
	c0.2,0.3,0.5,0.5,0.6,0.9v0.2C255.3,421,255.4,420.6,255.3,420.4L255.3,420.4L255.3,420.4z" />
        <g transform="translate(242.000000, 325.000000)">
            <radialGradient id="XMLID_294_" cx="-2213.0681" cy="-3.4258" r="0.728" gradientTransform="matrix(3.5179 0 0 5.8555 7793.2451 81.5109)" gradientUnits="userSpaceOnUse">
                <stop offset="0" style="stop-color:#FFFFFF;stop-opacity:0" />
                <stop offset="0.9171" style="stop-color:#FFFFFF;stop-opacity:0.9171" />
                <stop offset="1" style="stop-color:#FFFFFF" />
            </radialGradient>
            <path opacity="0.3" fill="url(#XMLID_294_)" enable-background="new    " d="M8.1,58.5c-2.3-0.4-2.7,5.1-0.6,5.7
		c2.1,0.6,2.5-3,1.9-4.2c-0.3-0.7-0.8-1.5-1.6-1.6" />
            <path opacity="0.3" fill="#FFFFFF" enable-background="new    " d="M8.1,59.2c-1.7-0.6-0.6,1.8-0.4,2.5
		c0.8,0.1,0.7-1.8,0.5-2.2" />
            <path opacity="0.3" fill="#FE980E" enable-background="new    " d="M7.5,64.2c-0.9-0.2-1.3-1.3-1.4-2.4
		c-0.1,1.4,0.4,2.8,1.4,3.1c1.7,0.4,2.2-1.7,2.1-3.3C9.5,63,8.9,64.5,7.5,64.2L7.5,64.2L7.5,64.2z" />
            <radialGradient id="XMLID_295_" cx="-2258.9336" cy="-4.5618" r="0.4324" gradientTransform="matrix(6.0182 0 0 3.4868 13627.7559 72.4777)" gradientUnits="userSpaceOnUse">
                <stop offset="0" style="stop-color:#FFFFFF;stop-opacity:0" />
                <stop offset="0.9171" style="stop-color:#FFFFFF;stop-opacity:0.9171" />
                <stop offset="1" style="stop-color:#FFFFFF" />
            </radialGradient>
            <path opacity="0.3" fill="url(#XMLID_295_)" enable-background="new    " d="M33.6,54.8c-1,0-2.3,0.4-3.1,1
		c-0.3,0.2-0.6,0.6-0.5,1c0.1,0.5,0.5,0.7,0.9,0.9c0.9,0.6,1.6,0.7,2.7,0.5c0.7-0.2,2-0.6,2.3-1.3C36.5,55.7,34.5,54.8,33.6,54.8" />
            <path opacity="0.3" fill="#FFFFFF" enable-background="new    " d="M31.2,56.6c-0.4-0.1-0.1-0.6,0.2-0.8
		c0.4-0.2,0.9-0.3,1.4-0.4c0.8-0.2,1.7-0.3,2.3,0.2c-0.7,0-1.6,0-2.1,0.3C32.8,56,31.4,57.2,31.2,56.6" />
            <path opacity="0.3" fill="#FE980E" enable-background="new    " d="M35.9,56.8c-0.4,0.7-1.6,1.1-2.3,1.3
		c-1.1,0.2-1.7,0.1-2.7-0.5c-0.3-0.2-0.7-0.3-0.9-0.7c-0.1,0.1-0.1,0.3-0.1,0.5c0.1,0.5,0.5,0.7,0.9,0.9c0.9,0.6,1.6,0.7,2.7,0.5
		c0.7-0.2,2-0.6,2.3-1.3C36.1,57.2,36,57,35.9,56.8L35.9,56.8L35.9,56.8z" />
            <radialGradient id="XMLID_296_" cx="-2245.6609" cy="-2.6344" r="0.9391" gradientTransform="matrix(4.9922 0 0 11.432 11255.9805 92.4216)" gradientUnits="userSpaceOnUse">
                <stop offset="0" style="stop-color:#FFFFFF;stop-opacity:0" />
                <stop offset="0.9171" style="stop-color:#FFFFFF;stop-opacity:0.9171" />
                <stop offset="1" style="stop-color:#FFFFFF" />
            </radialGradient>
            <path opacity="0.3" fill="url(#XMLID_296_)" enable-background="new    " d="M45.9,57.8c0.1-1-1-1.4-1.8-1.3
		c-1.1,0.2-1,1.5-1.2,2.3s-0.5,1.8-0.2,2.7c0.2,0.8,0.9,1.5,1.3,2.3c0.4,0.9,0.2,1.9,0.4,2.9c0.2,0.9,1.2,1.4,2.1,1
		c1.6-0.7,1.1-4.2,0.5-5.4c-0.3-0.7-0.8-1.2-1-2c-0.1-0.6,0.2-2.4-0.2-2.8" />
            <path opacity="0.3" fill="#FFFFFF" enable-background="new    " d="M44.1,57.2c-0.1-0.1-0.2-0.1-0.3-0.1
		c-0.2,0.5-1.1,3.7-0.2,3.7c0.1-0.5,0.3-1.2,0.5-1.7c0.2-0.6,0.6-0.8,0.6-1.5c-0.2-0.1-0.4-0.2-0.5-0.2" />
            <path opacity="0.3" fill="#FE980E" enable-background="new    " d="M46.5,67.8c-0.8,0.3-1.9-0.2-2.1-1
		c-0.2-1,0-1.9-0.4-2.9c-0.3-0.8-1-1.5-1.3-2.3c-0.3-0.9,0-2,0.2-2.8c0.1-0.4,0.1-0.9,0.2-1.3c-0.5,0.5-0.4,1.4-0.5,2
		c-0.2,0.8-0.5,1.9-0.2,2.8c0.2,0.8,0.9,1.5,1.3,2.3c0.4,0.9,0.2,1.9,0.4,2.9c0.2,0.9,1.2,1.4,2.1,1c0.4-0.2,0.7-0.6,0.9-1.1
		C46.9,67.6,46.7,67.7,46.5,67.8L46.5,67.8L46.5,67.8z" />
            <radialGradient id="XMLID_297_" cx="-2246.9065" cy="-3.4789" r="0.5682" gradientTransform="matrix(5.0729 0 0 5.7462 11442.3359 92.086)" gradientUnits="userSpaceOnUse">
                <stop offset="0" style="stop-color:#FFFFFF;stop-opacity:0" />
                <stop offset="0.9171" style="stop-color:#FFFFFF;stop-opacity:0.9171" />
                <stop offset="1" style="stop-color:#FFFFFF" />
            </radialGradient>
            <path opacity="0.3" fill="url(#XMLID_297_)" enable-background="new    " d="M44.8,71.1c-0.2-0.4-0.1-0.9-0.2-1.3
		h-0.1c-0.2-0.9-1.7-0.5-2.2-0.1c-0.6,0.6-1.1,1.6-0.9,2.4c0.3,1.5,2.7,3.4,4.3,2.8c1-0.4,0.9-1.6,0.2-2.2c-0.5-0.4-1.4-0.7-1.3-1.5
		" />
            <path opacity="0.3" fill="#FFFFFF" enable-background="new    " d="M42.9,69.9c-0.5,0.2-1.7,1.3-0.3,1.5
		c0.2-0.3,0.6-0.6,0.8-0.9s0.2-0.8-0.3-0.6" />
            <path opacity="0.3" fill="#6CAF11" enable-background="new    " d="M45.7,74.8c-1.6,0.7-3.9-1.2-4.3-2.8v-0.1v0.8
		c0.3,1.5,2.7,3.4,4.3,2.8c0.6-0.3,0.8-0.9,0.7-1.5C46.3,74.4,46,74.6,45.7,74.8L45.7,74.8L45.7,74.8z" />
            <radialGradient id="XMLID_298_" cx="-2235.3794" cy="-2.7034" r="0.9727" gradientTransform="matrix(4.4096 0 0 10.6382 9863.9199 104.2737)" gradientUnits="userSpaceOnUse">
                <stop offset="0" style="stop-color:#FFFFFF;stop-opacity:0" />
                <stop offset="0.9171" style="stop-color:#FFFFFF;stop-opacity:0.9171" />
                <stop offset="1" style="stop-color:#FFFFFF" />
            </radialGradient>
            <path opacity="0.3" fill="url(#XMLID_298_)" enable-background="new    " d="M8.1,74c-0.1-0.3,0.2-1,0.2-1.4
		s0.2-1.1,0-1.5c-0.4-0.9-1.6-1.2-2.4-0.7c-2.3,1.3-1.5,4.4,0.5,5.4c-0.8,0.8-1.5,1.5-1.5,2.7c0,1,0.8,2.2,1.9,2.3
		c1.4,0.2,1.5-1.3,1-2.2C7.5,78,7.5,77.8,8,77.3c0.4-0.3,0.8-0.5,0.9-1.1c0.1-0.6-0.2-0.7-0.5-1C8.1,74.8,8.2,74.5,8.1,74" />
            <path opacity="0.3" fill="#FFFFFF" enable-background="new    " d="M7.1,70.8C6.6,70,4,72.4,5.3,73.5
		c1,0.9,0.6-0.6,0.7-1.1c0.1-0.4,1.1-1.3,0.9-1.5" />
            <path opacity="0.3" fill="#FFFFFF" enable-background="new    " d="M6.8,75.6C7,75.3,7.4,75,7.6,75.5
		c0.1,0.4-0.4,0.7-0.6,1c-0.2,0.3-0.5,0.6-0.6,0.9c-0.1,0.4,0.1,1-0.2,1.3c-0.7,0.9-1-0.7-0.7-1.2C5.8,76.8,6.7,76.5,6.8,75.6" />
            <path opacity="0.3" fill="#6CAF11" enable-background="new    " d="M5.9,76.3c0.2-0.2,0.4-0.4,0.6-0.6
		c-1.4-0.7-2.2-2.4-1.7-3.9C3.7,73.3,4.4,75.4,5.9,76.3L5.9,76.3L5.9,76.3z" />
            <path opacity="0.3" fill="#6CAF11" enable-background="new    " d="M6.8,80.7c-1-0.1-1.9-1.3-1.9-2.3
		c0-0.3,0.1-0.6,0.2-0.9c-0.3,0.4-0.5,0.9-0.5,1.5c0,1,0.8,2.2,1.8,2.3c0.8,0.1,1.2-0.3,1.2-0.9C7.5,80.7,7.2,80.8,6.8,80.7
		L6.8,80.7L6.8,80.7z" />
            <radialGradient id="XMLID_299_" cx="-2206.6089" cy="-3.4751" r="0.745" gradientTransform="matrix(3.3232 0 0 5.6997 7368.417 100.6022)" gradientUnits="userSpaceOnUse">
                <stop offset="0" style="stop-color:#FFFFFF;stop-opacity:0" />
                <stop offset="0.9171" style="stop-color:#FFFFFF;stop-opacity:0.9171" />
                <stop offset="1" style="stop-color:#FFFFFF" />
            </radialGradient>
            <path opacity="0.3" fill="url(#XMLID_299_)" enable-background="new    " d="M35.7,77.9c-1.5,0-1.7,2-1.8,3.1
		c-0.1,1-0.2,2.4,1,2.6c1.2,0.1,1.5-0.5,1.7-1.6c0.1-0.8,0.8-2.2,0.5-3c-0.1-0.3-0.8-0.9-1.1-1.1" />
            <path opacity="0.3" fill="#FFFFFF" enable-background="new    " d="M35.3,78.5c-0.8-0.3-1.1,2.9-1,3.5
		c0.4,0,0.8-1.3,1-1.7c0.2-0.4,0.9-1,0.7-1.5c-0.2-0.1-0.5-0.3-0.8-0.1" />
            <path opacity="0.3" fill="#6CAF11" enable-background="new    " d="M36.5,82c-0.2,1.1-0.4,1.7-1.7,1.6
		c-0.7-0.1-1-0.7-1-1.3c-0.1,0.9,0,1.9,1,2c1.2,0.1,1.5-0.5,1.7-1.6c0.1-0.7,0.7-1.9,0.5-2.8C36.9,80.7,36.6,81.5,36.5,82L36.5,82
		L36.5,82z" />
            <radialGradient id="XMLID_300_" cx="-2251.6689" cy="-2.9174" r="0.7035" gradientTransform="matrix(5.4095 0 0 8.5634 12195.4805 119.1666)" gradientUnits="userSpaceOnUse">
                <stop offset="0" style="stop-color:#FFFFFF;stop-opacity:0" />
                <stop offset="0.9171" style="stop-color:#FFFFFF;stop-opacity:0.9171" />
                <stop offset="1" style="stop-color:#FFFFFF" />
            </radialGradient>
            <path opacity="0.3" fill="url(#XMLID_300_)" enable-background="new    " d="M15.7,92.7c0.3-0.9,0.6-2.1-0.4-2.6
		c-1.2-0.6-2,0.1-2.5,1.2c-0.4,1-0.8,2.3-0.2,3.2c0.2,0.3,0.5,0.5,0.6,0.9c0.2,0.5,0,1.1,0.1,1.6c0.5,2.5,3.6,1.4,4.3-0.4
		c0.3-1,0-1.7-0.8-2.2C16.2,93.9,15.3,93.4,15.7,92.7" />
            <path opacity="0.3" fill="#FFFFFF" enable-background="new    " d="M14.1,90.4c0,0-1.6,2.3-0.5,2.1
		c0.5-0.1,1.6-2.2,0.7-2.2" />
            <path opacity="0.3" fill="#FFFFFF" enable-background="new    " d="M13.6,96.3c0.6,0.5,1.5,0.7,2.1,0.3
		c0.3-0.2,0.6-0.7,0.9-0.8c0.5-0.1,0.3,0.3,0.2,0.7c-0.3,0.8-1,1.2-1.7,1.3c-0.7,0.1-1.7-0.1-1.6-1.1" />
            <path opacity="0.3" fill="#3FB5BA" enable-background="new    " d="M17.6,96.6c-0.7,1.8-3.8,2.9-4.3,0.4l0,0v0.7
		c0.5,2.5,3.6,1.4,4.3-0.4c0.1-0.4,0.2-0.7,0.1-1C17.7,96.3,17.7,96.4,17.6,96.6L17.6,96.6L17.6,96.6z" />
            <radialGradient id="XMLID_301_" cx="-2168.7832" cy="-5.2462" r="0.5606" gradientTransform="matrix(2.5115 0 0 2.7619 5466.4536 107.0024)" gradientUnits="userSpaceOnUse">
                <stop offset="0" style="stop-color:#FFFFFF;stop-opacity:0" />
                <stop offset="0.9171" style="stop-color:#FFFFFF;stop-opacity:0.9171" />
                <stop offset="1" style="stop-color:#FFFFFF" />
            </radialGradient>
            <path opacity="0.3" fill="url(#XMLID_301_)" enable-background="new    " d="M19.3,91.1c-1.4-0.3-1.6,3.2,0.5,2.7
		c0.7-0.2,1.1-1,0.9-1.7c-0.2-0.6-1-0.9-1.6-0.9" />
            <path opacity="0.3" fill="#FFFFFF" enable-background="new    " d="M19.2,91.7c-0.7-0.1-0.6,0.8,0.2,0.6
		C20.2,92.2,19.6,91.5,19.2,91.7" />
            <path opacity="0.3" fill="#3FB5BA" enable-background="new    " d="M19.8,93.8c-0.9,0.2-1.4-0.4-1.6-1.1
		c-0.2,0.9,0.3,2,1.6,1.8c0.7-0.2,1.1-1,0.9-1.6C20.6,93.3,20.3,93.7,19.8,93.8L19.8,93.8L19.8,93.8z" />
            <radialGradient id="XMLID_302_" cx="-2235.8948" cy="-3.747" r="0.5599" gradientTransform="matrix(4.4348 0 0 4.9154 9957.8809 111.5689)" gradientUnits="userSpaceOnUse">
                <stop offset="0" style="stop-color:#FFFFFF;stop-opacity:0" />
                <stop offset="0.9171" style="stop-color:#FFFFFF;stop-opacity:0.9171" />
                <stop offset="1" style="stop-color:#FFFFFF" />
            </radialGradient>
            <path opacity="0.3" fill="url(#XMLID_302_)" enable-background="new    " d="M44.2,91.3c-0.4-0.9-1.8-0.7-2.5-0.2
		c-0.8,0.6-1.6,1.7-1.8,2.7c-0.2,0.9,0.3,1.8,1.3,1.8c0.9,0,2-0.8,2.4-1.6C44.1,93.1,44.3,92.2,44.2,91.3L44.2,91.3" />
            <path opacity="0.3" fill="#FFFFFF" enable-background="new    " d="M43.1,91.1c-1-0.6-3.7,2.6-2.5,3.1
		c0.5-0.3,0.9-0.8,1.3-1.3c0.2-0.3,0.4-0.6,0.7-0.9C42.8,91.7,42.9,91.3,43.1,91.1" />
            <path opacity="0.3" fill="#3FB5BA" enable-background="new    " d="M44.2,91.9c-0.1,0.8-0.3,1.5-0.7,2.1
		c-0.4,0.7-1.6,1.5-2.4,1.6c-0.7,0-1.2-0.5-1.3-1c-0.2,0.9,0.3,1.8,1.3,1.7c0.9,0,2-0.8,2.4-1.5C44.1,93.8,44.3,92.9,44.2,91.9
		L44.2,91.9L44.2,91.9z" />
            <radialGradient id="XMLID_303_" cx="-2209.3298" cy="-3.3505" r="0.7703" gradientTransform="matrix(3.4038 0 0 6.0991 7563.4766 124.0084)" gradientUnits="userSpaceOnUse">
                <stop offset="0" style="stop-color:#FFFFFF;stop-opacity:0" />
                <stop offset="0.9171" style="stop-color:#FFFFFF;stop-opacity:0.9171" />
                <stop offset="1" style="stop-color:#FFFFFF" />
            </radialGradient>
            <path opacity="0.3" fill="url(#XMLID_303_)" enable-background="new    " d="M44.7,102c0.2-0.8-1.2-1.6-1.8-1.6
		c-1.1,0-1.3,1.3-1.4,2.3c-0.1,1.2,0.5,4.7,2.5,3.6c0.6-0.3,0.8-1.2,0.8-1.8c0-0.4,0.1-0.8,0.1-1.2C44.9,102.8,44.6,102.5,44.7,102" />
            <path opacity="0.3" fill="#FFFFFF" enable-background="new    " d="M42.8,101.1c-0.7-0.2-0.9,3-0.1,3.3
		c0.7,0.4,0.7-1.4,0.7-1.8c0-0.8-0.3-1.2-0.9-1.4" />
            <path opacity="0.3" fill="#3FB5BA" enable-background="new    " d="M44,106.3c-2,1.1-2.6-2.4-2.5-3.6
		c0-0.3,0.1-0.8,0.2-1.1c-0.4,0.5-0.5,1.2-0.5,1.8c-0.1,1.2,0.5,4.7,2.5,3.6c0.3-0.2,0.6-0.6,0.7-1C44.3,106.2,44.2,106.3,44,106.3
		L44,106.3L44,106.3z" />
            <radialGradient id="XMLID_304_" cx="-2289.0012" cy="-2.8747" r="0.4768" gradientTransform="matrix(11.2598 0 0 8.9589 25788.5488 31.3767)" gradientUnits="userSpaceOnUse">
                <stop offset="0" style="stop-color:#FFFFFF;stop-opacity:0" />
                <stop offset="0.9171" style="stop-color:#FFFFFF;stop-opacity:0.9171" />
                <stop offset="1" style="stop-color:#FFFFFF" />
            </radialGradient>
            <path opacity="0.3" fill="url(#XMLID_304_)" enable-background="new    " d="M11,6.4c-0.9,0.4-1.9,1.2-1.7,2.3
		c0.1,1.2,1.6,1.7,2.4,0.8c0.5-0.5,0.2-1.2,0.6-1.7c0.2-0.2,1.1-0.2,1.4-0.5c0.8-0.7,1.2-1.8,0.8-2.9c1.6,0.1,4.3,1.6,5.7,0.1
		c1.4-1.5-1.7-2.4-2.9-2.7c-1.8-0.4-3.8-1.5-5.2-0.2c-0.5,0.5-1,1-1.1,1.8c-0.1,0.7,0.5,2.1,0.3,2.6c0,0.1-0.1,0.1-0.2,0.1" />
            <path opacity="0.3" fill="#FFFFFF" enable-background="new    " d="M11.5,6.7c-0.4,0.1-1.3,0.8-0.7,1.1
		c0.6,0.2,1-0.6,0.9-1.1" />
            <path opacity="0.3" fill="#FFFFFF" enable-background="new    " d="M11.6,3v0.5c0.6,0.3,0.9-0.7,1.4-0.8
		c0.5-0.2,1.6,0,2.1,0.1c0.7,0.2,1.3,0.4,2,0.5c0.4,0,0.7,0,1,0.1c0.3,0.1,0.5,0.3,0.9,0.2c0-0.1,0-0.1,0.1-0.2
		c-1.1-0.7-2.6-0.8-3.8-1.2c-0.9-0.3-3.3-0.8-3.5,0.7" />
            <g transform="translate(8.510721, 3.358674)">
                <path fill="#FBB316" d="M11.6,1.2c-1.4,1.5-4.1,0-5.7-0.1C6,1.3,6,1.6,6,1.8c1.6,0.2,4.2,1.6,5.5,0.1
			c0.4-0.4,0.4-0.8,0.3-1.1C11.8,0.9,11.7,1,11.6,1.2L11.6,1.2L11.6,1.2z" />
                <path fill="#FBB316" d="M2.8,2.7c0.1-0.4-0.2-1.2-0.3-2v0.1C2.4,1.3,2.6,2.1,2.8,2.7L2.8,2.7L2.8,2.7z" />
                <path fill="#FBB316" d="M5.1,3.9C4.8,4.1,3.9,4.2,3.7,4.4C3.3,4.9,3.6,5.6,3.1,6.1C2.3,7,0.9,6.6,0.7,5.5v0.6
			c0.1,1.2,1.6,1.7,2.4,0.8c0.5-0.5,0.2-1.2,0.6-1.7C3.9,5,4.8,5,5.1,4.7c0.7-0.5,1-1.5,0.9-2.3C6,2.9,5.6,3.5,5.1,3.9L5.1,3.9
			L5.1,3.9z" />
            </g>
            <radialGradient id="XMLID_305_" cx="-2220.4016" cy="-3.7584" r="0.6196" gradientTransform="matrix(3.7686 0 0 4.9671 8385.4307 39.9682)" gradientUnits="userSpaceOnUse">
                <stop offset="0" style="stop-color:#FFFFFF;stop-opacity:0" />
                <stop offset="0.9171" style="stop-color:#FFFFFF;stop-opacity:0.9171" />
                <stop offset="1" style="stop-color:#FFFFFF" />
            </radialGradient>
            <path opacity="0.3" fill="url(#XMLID_305_)" enable-background="new    " d="M18.2,18.8c-1.2,0.7-2.4,2-2.5,3.5
		c-0.1,1.2,0.7,1.8,1.8,1.3c1-0.4,1.7-1.4,1.9-2.4c0.2-0.8,0-2.4-1.2-2.2" />
            <path opacity="0.3" fill="#FFFFFF" enable-background="new    " d="M17.9,19.3c-0.5,0.1-1.6,1.5-1.6,2
		C17,21.5,18.2,19.9,17.9,19.3" />
            <path opacity="0.3" fill="#FBB316" enable-background="new    " d="M17.5,23.5c-1,0.4-1.8,0-1.8-0.9c0,0,0,0-0.1,0
		v0.1c0,1.2,1.2,2,2.4,1.5c0.9-0.4,1.4-1.7,1.3-2.7C19.1,22.3,18.4,23.2,17.5,23.5L17.5,23.5L17.5,23.5z" />
            <radialGradient id="XMLID_306_" cx="-2181.6555" cy="-3.6239" r="0.8168" gradientTransform="matrix(2.7391 0 0 5.2897 5977.9932 54.654)" gradientUnits="userSpaceOnUse">
                <stop offset="0" style="stop-color:#FFFFFF;stop-opacity:0" />
                <stop offset="0.9171" style="stop-color:#FFFFFF;stop-opacity:0.9171" />
                <stop offset="1" style="stop-color:#FFFFFF" />
            </radialGradient>
            <path opacity="0.3" fill="url(#XMLID_306_)" enable-background="new    " d="M1.2,32.8L1.2,32.8
		c-0.2,1.7-0.3,3.5-0.4,5.3C1.2,38,1.7,38,2.1,37.9c0.4-0.2,0.8-0.5,1-0.8c0.4-0.7,0.6-2,0.3-2.8C3,33.4,2.1,32.8,1.2,32.8L1.2,32.8
		L1.2,32.8z" />
            <path opacity="0.3" fill="#FFFFFF" enable-background="new    " d="M1.3,33.4C1.3,33.3,1.2,33.2,1.3,33.4
		c0.4,0.6,0.3,1.1,1.3,1.1c0.1-0.8-0.7-1.6-1.5-1.3" />
            <path opacity="0.3" fill="#FBB316" enable-background="new    " d="M3.6,35.1c0,0.7-0.1,1.5-0.4,1.9
		c-0.2,0.4-0.6,0.7-1,0.8C1.8,38,1.3,37.9,0.9,38c0,0.4,0,0.8-0.1,1.3c0.3-0.1,0.7-0.2,0.8-0.2c0.8-0.3,1.4-0.9,1.8-1.7
		C3.7,36.9,3.9,35.8,3.6,35.1L3.6,35.1L3.6,35.1z" />
            <radialGradient id="XMLID_307_" cx="-2241.7917" cy="-3.753" r="0.5419" gradientTransform="matrix(4.7548 0 0 4.9511 10688.8027 47.054)" gradientUnits="userSpaceOnUse">
                <stop offset="0" style="stop-color:#FFFFFF;stop-opacity:0" />
                <stop offset="0.9171" style="stop-color:#FFFFFF;stop-opacity:0.9171" />
                <stop offset="1" style="stop-color:#FFFFFF" />
            </radialGradient>
            <path opacity="0.3" fill="url(#XMLID_307_)" enable-background="new    " d="M31.2,26c-2.1-0.6-6.2,4.6-2.6,4.9
		c1.2,0.1,2-0.4,2.7-1.3c0.6-0.7,0.8-1.9,0.5-2.8C31.7,26.5,31.5,26,31.2,26" />
            <path opacity="0.3" fill="#FFFFFF" enable-background="new    " d="M30.8,26.3c-0.8,0-2.7,1.4-2.5,2.3
		c0.7,0.1,2.5-1.6,2.3-2.2" />
            <path opacity="0.3" fill="#FBB316" enable-background="new    " d="M31.3,29.5c-0.7,0.9-1.5,1.5-2.7,1.3
		c-0.8-0.1-1.3-0.4-1.4-0.9c-0.2,0.8,0.2,1.5,1.4,1.6c1.2,0.1,2-0.4,2.7-1.3c0.4-0.6,0.7-1.5,0.6-2.2C31.8,28.6,31.6,29.1,31.3,29.5
		L31.3,29.5L31.3,29.5z" />
            <radialGradient id="XMLID_308_" cx="-2202.1958" cy="-3.7412" r="0.6849" gradientTransform="matrix(3.2032 0 0 4.9754 7095.2764 48.1368)" gradientUnits="userSpaceOnUse">
                <stop offset="0" style="stop-color:#FFFFFF;stop-opacity:0" />
                <stop offset="0.9171" style="stop-color:#FFFFFF;stop-opacity:0.9171" />
                <stop offset="1" style="stop-color:#FFFFFF" />
            </radialGradient>
            <path opacity="0.3" fill="url(#XMLID_308_)" enable-background="new    " d="M41.5,27c-1.1-0.1-2,2.3-2,3.2
		c-0.1,1.1,0.6,2.2,1.8,1.6c1-0.5,1.3-1.6,1.4-2.6C42.7,28.6,42.4,26.8,41.5,27C41.5,27,41.5,27.1,41.5,27" />
            <path opacity="0.3" fill="#FFFFFF" enable-background="new    " d="M41.1,27.6c-0.5,0.1-1.1,1.6-1,2.1
		C40.8,30.1,41.9,27.5,41.1,27.6" />
            <path opacity="0.3" fill="#FBB316" enable-background="new    " d="M41.3,31.7c-1,0.5-1.6-0.2-1.8-1v0.2
		c-0.1,1.1,0.6,2.2,1.8,1.6c1-0.5,1.3-1.6,1.4-2.6v-0.4C42.5,30.3,42.2,31.3,41.3,31.7L41.3,31.7L41.3,31.7z" />
            <radialGradient id="XMLID_309_" cx="-2246.5442" cy="-3.9323" r="0.5045" gradientTransform="matrix(5.0484 0 0 4.5061 11350.6689 60.1388)" gradientUnits="userSpaceOnUse">
                <stop offset="0" style="stop-color:#FFFFFF;stop-opacity:0" />
                <stop offset="0.9171" style="stop-color:#FFFFFF;stop-opacity:0.9171" />
                <stop offset="1" style="stop-color:#FFFFFF" />
            </radialGradient>
            <path opacity="0.3" fill="url(#XMLID_309_)" enable-background="new    " d="M9.7,40.1c-1.8-0.2-4.1,2.3-2.5,3.8
		c1.1,1,4.2,1.1,4.5-0.8C11.9,42.2,10.5,40.1,9.7,40.1" />
            <path opacity="0.3" fill="#FFFFFF" enable-background="new    " d="M8,41.2c-0.4-0.1-0.7,0.2-0.7,0.6
		c0.5,0.2,0.8-0.2,1.2-0.4c0.6-0.2,1,0,1.6-0.1c0.1-1.2-2.2-0.6-2.5,0" />
            <path opacity="0.3" fill="#FBB316" enable-background="new    " d="M7.2,43.9c-0.3-0.3-0.5-0.6-0.5-0.9
		c-0.1,0.5,0,1.1,0.5,1.6c1.1,1,4.2,1.1,4.5-0.8v-0.6C11.2,45,8.2,44.8,7.2,43.9L7.2,43.9L7.2,43.9z" />
            <radialGradient id="XMLID_310_" cx="-2180.2588" cy="-3.8486" r="0.7542" gradientTransform="matrix(2.7125 0 0 4.6908 5939.853 59.6965)" gradientUnits="userSpaceOnUse">
                <stop offset="0" style="stop-color:#FFFFFF;stop-opacity:0" />
                <stop offset="0.9171" style="stop-color:#FFFFFF;stop-opacity:0.9171" />
                <stop offset="1" style="stop-color:#FFFFFF" />
            </radialGradient>
            <path opacity="0.3" fill="url(#XMLID_310_)" enable-background="new    " d="M26.7,39.2c-1.3,0-1.8,1.4-2,2.5
		c-0.2,0.8-0.5,2.2,0.7,2.2C26.7,43.9,27.9,40,26.7,39.2C26.8,39.2,26.8,39.2,26.7,39.2" />
            <path opacity="0.3" fill="#FFFFFF" enable-background="new    " d="M26.1,39.7c-0.7,0.1-1.1,1.9-1,2.5
		c0.6,0.1,0.9-0.8,1-1.2C26.2,40.8,26.7,39.5,26.1,39.7" />
            <path opacity="0.3" fill="#FBB316" enable-background="new    " d="M25.4,43.9c-0.6,0-0.8-0.3-0.9-0.7
		c-0.1,0.7,0,1.4,0.9,1.4c1,0,2-2.4,1.8-3.8C27.1,42.2,26.3,43.9,25.4,43.9L25.4,43.9L25.4,43.9z" />
            <radialGradient id="XMLID_311_" cx="-2259.7532" cy="-3.6359" r="0.4977" gradientTransform="matrix(6.0957 0 0 5.2211 13819.6602 56.2933)" gradientUnits="userSpaceOnUse">
                <stop offset="0" style="stop-color:#FFFFFF;stop-opacity:0" />
                <stop offset="0.9171" style="stop-color:#FFFFFF;stop-opacity:0.9171" />
                <stop offset="1" style="stop-color:#FFFFFF" />
            </radialGradient>
            <path opacity="0.3" fill="url(#XMLID_311_)" enable-background="new    " d="M46.1,34.9c-1.5-0.8-4.4,0.1-4.4,2.1
		c0,1.9,2.8,3.3,4.4,2.7c0.9-0.3,1.8-1.4,1.7-2.5C47.7,36.3,46.9,35.4,46.1,34.9" />
            <path opacity="0.3" fill="#FFFFFF" enable-background="new    " d="M46.5,35.9c-0.8-0.8-3.7-1-4,0.5
		c-0.3,1.2,1.3,0.4,1.7,0.2C44.9,36.3,45.9,36.5,46.5,35.9" />
            <path opacity="0.3" fill="#FBB316" enable-background="new    " d="M47.8,37.8c-0.2,0.9-0.9,1.6-1.6,1.9
		c-1.5,0.6-4.1-0.7-4.4-2.4v0.4c0,1.9,2.8,3.3,4.4,2.7C47.1,40.1,48,39,47.8,37.8C47.8,37.9,47.8,37.9,47.8,37.8L47.8,37.8
		L47.8,37.8z" />
        </g>
        <g transform="translate(260.491228, 431.157895)">
            <g>
                <linearGradient id="XMLID_312_" gradientUnits="userSpaceOnUse" x1="-2442.3787" y1="-2.6734" x2="-2442.3787" y2="-2.8435" gradientTransform="matrix(13.3739 0 0 16.6674 32671.9355 49.4498)">
                    <stop offset="0" style="stop-color:#E3C091" />
                    <stop offset="1" style="stop-color:#7F5327" />
                </linearGradient>
                <path fill="url(#XMLID_312_)" d="M7.8,1.5L7.8,1.5H1.1v13.3c0,1,3,3.4,6.7,3.4s6.7-0.8,6.7-1.8V1.5H7.8L7.8,1.5z" />
                <path opacity="0.5" fill="#CB9257" enable-background="new    " d="M12.5,1.5v14.4c0,1-3,1.8-6.7,1.8
			c-1.3,0-1.5-0.8-2.5-1c1.2,0.5,2.2,1.5,4.5,1.5c3.7,0,6.7-0.8,6.7-1.8V1.5H12.5L12.5,1.5z" />
                <g transform="translate(0.998051, 0.000000)">
                    <path fill="#CB9257" d="M0.9,15.1c0,0,0.1,0,0.1,0.1L1,1.6L0.9-0.6V15.1L0.9,15.1z" />
                    <path fill="#CB9257" d="M9.8,18L9.8,18L9.9,1.5H9.8V18L9.8,18z" />
                    <path fill="#CB9257" d="M5.8,18.2h1H7V1.5H6.8h-1V18.2L5.8,18.2z" />
                    <path fill="#CB9257" d="M11.6,17.6c0.2-0.1,0.4-0.1,0.6-0.2v-16h-0.6V17.6L11.6,17.6z" />
                    <path fill="#CB9257" d="M1.9,17.6L1.9,17.6L2,1.4H1.9V17.6L1.9,17.6z" />
                    <path fill="#CB9257" d="M3.7,17.6c0.2,0,0.4,0.1,0.6,0.1V1.5H3.7V18V17.6z" />
                    <path fill="#CB9257" d="M7.8,18.2L7.8,18.2L7.9,1.5H7.8V18.2L7.8,18.2z" />
                </g>
            </g>
            <g transform="translate(0.998051, 5.988304)">
                <radialGradient id="XMLID_313_" cx="-2437.1265" cy="-2.7834" r="0.5509" gradientTransform="matrix(9.1893 0 0 9.7554 22401.6992 33.1912)" gradientUnits="userSpaceOnUse">
                    <stop offset="0" style="stop-color:#FFFFFF;stop-opacity:0" />
                    <stop offset="0.9171" style="stop-color:#FFFFFF;stop-opacity:0.9171" />
                    <stop offset="1" style="stop-color:#FFFFFF" />
                </radialGradient>
                <path opacity="0.5" fill="url(#XMLID_313_)" enable-background="new    " d="M4.2,2.7c0,0-1.3-1.4-2.3-0.3
			c-1,1,0,3.6,2.2,3c0,0,0.6,0.6,0.6,1.3S4,8.7,4,9.7S6.8,12,6.5,9.5c0,0,2.1-2.8,1-4c0,0,0.8-1.1,1.5-1.1s2.3-1,1.5-2
			C9.7,1.5,9,0.2,6.7,2.3C4.5,4.2,4.2,2.7,4.2,2.7L4.2,2.7L4.2,2.7z" />
                <path opacity="0.7" fill="#FFFFFF" enable-background="new    " d="M3.2,2.6c-0.3,0-0.7-0.1-0.9,0.1
			C2.1,3,2.5,3.2,2.8,3.4c0.3,0.2,0.7,0.4,0.8,0C3.7,3.1,3.5,2.7,3.2,2.6" />
                <path opacity="0.7" fill="#FFFFFF" enable-background="new    " d="M4.7,3.7C5.3,3.5,5.9,3.2,6.6,3c0,0,0,0,0-0.1
			c0.3-0.1,0.7-0.2,1-0.4C7.9,2.3,8.1,2.1,8.3,2C8.9,1.7,9.9,2.4,9,2.7C8.3,2.9,7.7,3.1,7,3.4S5.5,3.8,4.8,3.9" />
                <path opacity="0.7" fill="#FFFFFF" enable-background="new    " d="M5.4,7c0,0.3-0.9,1.8-0.4,1.8
			C5.4,8.8,5.9,7.3,5.4,7" />
                <g transform="translate(0.000000, 1.996101)">
                    <path fill="#CB9257" d="M4.7,5V4.6c0-0.7-0.6-1.3-0.6-1.3C2.7,3.7,1.7,2.7,1.5,1.7C1.3,2.9,2.3,4.5,4.1,4
				C4.1,4.1,4.5,4.5,4.7,5L4.7,5L4.7,5z" />
                    <path fill="#CB9257" d="M9.1,2.2c-0.7,0-1.5,1.1-1.5,1.1c0.1,0.1,0.2,0.3,0.2,0.4c0.3-0.3,0.8-0.9,1.3-0.9
				c0.6,0,2.1-0.9,1.6-1.8C10.4,1.7,9.5,2.2,9.1,2.2L9.1,2.2L9.1,2.2z" />
                    <path fill="#CB9257" d="M7.8,4.6C7.6,5.9,6.5,7.4,6.5,7.4C6.7,9.7,4.4,8.8,4,7.9v0.5c0,1,2.8,2.3,2.5-0.2
				C6.5,8.1,8.1,6,7.8,4.6L7.8,4.6L7.8,4.6z" />
                </g>
            </g>
        </g>
        <path fill="#FBB040" d="M261.5,441.3c0.5,0.1,0.1,0.6,0.3,2.5c2.7,2,7.6,4,12.6,5c0.4,0.1,0.6-2,0.8-1.8
	c2,1.3,4.1,3,6.2,5c0,0-17.4,1.6-25.7-10.9c0,0,2.3-0.3,6.1,0.4l0,0L261.5,441.3z" />
        <path fill="#EA6709" d="M255.9,441.2c13.6,9.5,12.1,7.5,25.4,10.6c-2-1.9-4.4-3.7-6.3-5.1c-0.6,0.6-0.3,1.8-1.4,1.8
	c-3.3-0.5-9.9-3.7-11.7-4.7c-0.5-0.4,0.2-2.2-0.3-2.6c-3.6-0.6-5.8-0.3-5.8-0.3C255.8,441.1,255.9,441.1,255.9,441.2L255.9,441.2
	L255.9,441.2z" />
        <linearGradient id="XMLID_314_" gradientUnits="userSpaceOnUse" x1="-383.2845" y1="-2.9283" x2="-383.2845" y2="-1.9263" gradientTransform="matrix(92.1201 0 0 23.2912 35499.4102 218.6423)">
            <stop offset="0" style="stop-color:#000000;stop-opacity:3.000000e-02" />
            <stop offset="0.8884" style="stop-color:#000000;stop-opacity:0.4475" />
            <stop offset="1" style="stop-color:#000000;stop-opacity:0.5" />
        </linearGradient>
        <path fill="url(#XMLID_314_)" d="M235,155.1c-32.1,10.5-71.8,5-88.4,1.8c-1,4-1.5,8.2-1.5,12.5c0,1.6,0.1,3.1,0.2,4.7
	c6.9,1.4,15.6,2.6,26.4,3.5c47,3.9,65.6-7.1,65.6-7.1S237.2,164,235,155.1L235,155.1L235,155.1z" />
        <circle fill="#FFFFFF" cx="176" cy="138.2" r="15.6" />
        <circle fill="#FFFFFF" cx="191" cy="154.6" r="8.5" />
        <linearGradient id="XMLID_315_" gradientUnits="userSpaceOnUse" x1="-383.1608" y1="-3.0026" x2="-383.1608" y2="-2.0997" gradientTransform="matrix(89.5252 0 0 22.4786 34617.4531 215.1073)">
            <stop offset="0" style="stop-color:#000000;stop-opacity:0" />
            <stop offset="1" style="stop-color:#000000;stop-opacity:0.4" />
        </linearGradient>
        <path fill="url(#XMLID_315_)" d="M333.9,175.1c10.6-0.9,19-2.1,25.6-3.4c0.1-1.5,0.2-3,0.2-4.5c0-4.8-0.7-9.4-2-13.8
	c-32.8,6.9-71.8,2.7-85.6,0.8c-1.9,8.2-2,14.1-2,14.1S288.3,178.9,333.9,175.1L333.9,175.1L333.9,175.1z" />
        <circle fill="#FFFFFF" cx="329.2" cy="139.4" r="15.6" />
        <circle fill="#FFFFFF" cx="314.1" cy="155.8" r="8.5" />
    </g>
</svg>
