<?xml version="1.0" encoding="utf-8" ?>
<svg width="512px" height="776px" viewBox="0 0 512 776" version="1.1" xmlns="http://www.w3.org/2000/svg" xmlns:xlink="http://www.w3.org/1999/xlink" preserveAspectRatio="xMinYMin meet">
    <g>
        <linearGradient id="XMLID_245_" gradientUnits="userSpaceOnUse" x1="-388.4138" y1="-1.3467" x2="-388.4138" y2="-2.9862" gradientTransform="matrix(359.4979 0 0 51.2998 139886.1406 849.6798)">
            <stop offset="0" style="stop-color:#E6E7E8" />
            <stop offset="1" style="stop-color:#A7A9AC" />
        </linearGradient>
        <ellipse id="XMLID_214_" opacity="0.39" fill="url(#XMLID_245_)" enable-background="new    " cx="252.2" cy="750.2" rx="180" ry="25.6" />
        <linearGradient id="XMLID_246_" gradientUnits="userSpaceOnUse" x1="-388.3079" y1="-1.4603" x2="-388.3079" y2="-3.0923" gradientTransform="matrix(327.5602 0 0 28.3446 127446.4062 808.3606)">
            <stop offset="0" style="stop-color:#E6E7E8" />
            <stop offset="1" style="stop-color:#A7A9AC" />
        </linearGradient>
        <path id="XMLID_213_" opacity="0.46" fill="url(#XMLID_246_)" enable-background="new    " d="M317.2,736.1
		c-24.9,0-47.6,1.3-65,3.5c-17.4-2.2-40.1-3.5-65-3.5c-54.7,0-99.1,6.3-99.1,14.2c0,7.8,44.4,14.2,99.1,14.2c24.9,0,47.6-1.3,65-3.5
		c17.4,2.2,40.1,3.5,65,3.5c54.7,0,99.1-6.3,99.1-14.2C416.1,742.5,371.9,736.1,317.2,736.1L317.2,736.1L317.2,736.1z" />
        <radialGradient id="XMLID_247_" cx="-381.6868" cy="-2.2058" r="0.4378" gradientTransform="matrix(51.699 0 0 39.7224 20192.791 304.273)" gradientUnits="userSpaceOnUse">
            <stop offset="0" style="stop-color:#FF8B6C" />
            <stop offset="1" style="stop-color:#CE4920" />
        </radialGradient>
        <ellipse id="XMLID_212_" fill="url(#XMLID_247_)" cx="446.8" cy="224.9" rx="25.8" ry="19.9" />
        <linearGradient id="XMLID_248_" gradientUnits="userSpaceOnUse" x1="450.9995" y1="561.0038" x2="456.5664" y2="577.3663" gradientTransform="matrix(1 0 0 -1 -9.094947e-13 798)">
            <stop offset="0" style="stop-color:#B2251A;stop-opacity:6.926769e-02" />
            <stop offset="0" style="stop-color:#E04F2B" />
            <stop offset="0.976" style="stop-color:#C84B2E" />
            <stop offset="1" style="stop-color:#C74B2E" />
        </linearGradient>
        <path id="XMLID_211_" fill="url(#XMLID_248_)" d="M469.5,219.8c0,0-14.5-12.9-26.9-1c0,0,10,2.6,9,8.7c-1,6.1-9.3,8.4-9.3,8.4
		S471.1,244.1,469.5,219.8L469.5,219.8L469.5,219.8z" />
        <path id="XMLID_210_" fill="#9B2B0D" d="M451.5,227.5c1-6.1-9-8.7-9-8.7c12.5-11.9,26.9,1,26.9,1v1.2c-5.4-1.4-18.8-3.1-16.5,16.2
		c-5.8,0.1-10.9-1.4-10.9-1.4S450.5,233.5,451.5,227.5L451.5,227.5L451.5,227.5z" />
        <radialGradient id="XMLID_249_" cx="-382.2049" cy="-2.194" r="0.4294" gradientTransform="matrix(51.699 0 0 39.7224 19803.4531 304.273)" gradientUnits="userSpaceOnUse">
            <stop offset="0" style="stop-color:#FF8B6C" />
            <stop offset="1" style="stop-color:#CE4920" />
        </radialGradient>
        <ellipse id="XMLID_209_" fill="url(#XMLID_249_)" cx="56.9" cy="224.9" rx="25.8" ry="19.9" />
        <linearGradient id="XMLID_250_" gradientUnits="userSpaceOnUse" x1="47.7719" y1="561.5146" x2="47.5487" y2="577.7648" gradientTransform="matrix(1 0 0 -1 -9.094947e-13 798)">
            <stop offset="0" style="stop-color:#B2251A;stop-opacity:6.926769e-02" />
            <stop offset="0" style="stop-color:#E04F2B" />
            <stop offset="0.976" style="stop-color:#C84B2E" />
            <stop offset="1" style="stop-color:#C74B2E" />
        </linearGradient>
        <path id="XMLID_208_" fill="url(#XMLID_250_)" d="M34.1,219.8c0,0,14.5-12.9,26.9-1c0,0-10,2.6-9,8.7c1,6.1,9.3,8.4,9.3,8.4
		S32.5,244.1,34.1,219.8L34.1,219.8L34.1,219.8z" />
        <path id="XMLID_207_" fill="#9B2B0D" d="M52.1,227.5c-1-6.1,9-8.7,9-8.7c-12.5-11.9-26.9,1-26.9,1v1.2c5.4-1.4,18.8-3.1,16.5,16.2
		c5.8,0.1,10.9-1.4,10.9-1.4S53.1,233.5,52.1,227.5L52.1,227.5L52.1,227.5z" />
        <radialGradient id="XMLID_251_" cx="-388.7534" cy="-2.2335" r="0.5168" gradientTransform="matrix(511.0235 0 0 725.8977 198909.1406 1704.1199)" gradientUnits="userSpaceOnUse">
            <stop offset="0" style="stop-color:#F28567" />
            <stop offset="1" style="stop-color:#CE4920" />
        </radialGradient>
        <path id="XMLID_206_" fill="url(#XMLID_251_)" d="M249.4,26.4c0,0-138.4-13.2-174.1,179.2S-39.1,447.3,23.5,533.5
		c0,0,0,112,94.2,207.1c0,0,36.1,29.4,61.6-7.1c25.5-36.7,60.1-57.5,89.5-49.9s56.5,44.8,67.7,57c11.2,12.2,58,50.4,117.1-110.5
		c0,0,111-61.1,26.9-234.1c0,0-32.1-73.8-48.9-179.2C414.8,111.5,362,27.9,249.4,26.4L249.4,26.4L249.4,26.4z" />
        <path id="XMLID_205_" opacity="0.7" fill="#B11A0A" enable-background="new    " d="M480.5,396c0,0-32.1-73.8-48.9-179.2
		c-13.1-82.3-48.4-151.4-117-178.4c27.2,20.5,23.1,49.5,23.1,49.5c-61.9-5.8-79.3,62.5-79.3,62.5s7-57.8,4.7-57.2
		c-2.3,0.6-9.3,48.5-9.3,48.5l-2.9-22.8l-1.2,22.8l-10.5-43.8l7.6,55.5c-12.4-78-90.5-64.1-90.5-64.1c-3.2-22.9,17.1-41.1,36.3-52.9
		C150.1,52.6,95.8,95.3,75.3,205.7C39.7,398-39.2,447.3,23.4,533.5c0,0,0,112,94.2,207.1c0,0,36.1,29.4,61.6-7.1
		c25.5-36.7,60.1-57.5,89.5-49.9c29.4,7.6,56.5,44.8,67.7,57c11.2,12.2,58,50.4,117.1-110.5C453.5,630.1,564.5,569,480.5,396
		L480.5,396L480.5,396z" />
        <path id="XMLID_204_" fill="#B11A0A" d="M239.3,142.5c0,0-11.3-49.5-63.4-49.5s-63.4,70.4-63.4,70.4s0,40.5,49.5,49.9
		c0,0-24.1-8.7-36.7-27.6c0,0,11.9,9.6,40.5,10.9c0,0-44.4-9.6-50.5-33.1c0,0,11.6-64.7,60.8-66.6C225.5,95,239.3,142.5,239.3,142.5
		L239.3,142.5L239.3,142.5z" />
        <path id="XMLID_203_" fill="#B11A0A" d="M239.6,169.3l-1,1.3c0,0,1-61.1-55.6-64s-65.3,56.6-65.3,56.6s1.6,15.4,55.6,18.3
		c33.7,1.8,50.7-2.9,58.8-6.7c5.2-1.6,5.2,2.2,5.2,2.2c-16.7,16.1-55,21.2-55,21.2c31.5,1.6,50.2-9.6,50.2-9.6
		C222,206.9,193,214,193,214c40.8-0.3,51.1-36.3,51.1-36.3L239.6,169.3L239.6,169.3z" />
        <linearGradient id="XMLID_252_" gradientUnits="userSpaceOnUse" x1="-386.1958" y1="-2.2215" x2="-386.1958" y2="-1.6967" gradientTransform="matrix(118.1692 0 0 70.0185 45814.7578 277.4652)">
            <stop offset="0" style="stop-color:#FFFFFF" />
            <stop offset="1" style="stop-color:#DDC48C" />
        </linearGradient>
        <path id="XMLID_202_" fill="url(#XMLID_252_)" d="M119.1,163.5c0,0,11.9-58.5,64.7-55s53.7,62.1,53.7,62.1s-18.7,10.9-65.6,7.1
		C124.9,173.8,119.1,163.5,119.1,163.5L119.1,163.5L119.1,163.5z" />
        <radialGradient id="XMLID_253_" cx="-385.4329" cy="-2.0898" r="0.4779" gradientTransform="matrix(92.1201 0 0 59.9196 35681.6523 264.4162)" gradientUnits="userSpaceOnUse">
            <stop offset="0" style="stop-color:#6CAF11" />
            <stop offset="0.3299" style="stop-color:#6AAC10" />
            <stop offset="0.6098" style="stop-color:#64A10F" />
            <stop offset="0.8706" style="stop-color:#59900C" />
            <stop offset="1" style="stop-color:#52840A" />
        </radialGradient>
        <path id="XMLID_201_" fill="url(#XMLID_253_)" d="M219,123.9c-6.9-3.5-14.7-5.4-22.9-5.4c-28.1,0-51,22.8-51,51
		c0,1.6,0.1,3.1,0.2,4.7c6.9,1.4,15.6,2.6,26.4,3.5c47,3.9,65.6-7.1,65.6-7.1S236.8,142.2,219,123.9L219,123.9L219,123.9z" />
        <path id="XMLID_200_" fill="#B11A0A" d="M268.4,141c0,0,10.9-48.1,61.5-48.1s61.5,68.4,61.5,68.4s0,39.3-48.1,48.4
		c0,0,23.4-8.4,35.6-26.8c0,0-11.6,9.4-39.3,10.6c0,0,43.1-9.4,49-32.2c0,0-11.2-62.8-59-64.6C281.8,94.9,268.4,141,268.4,141
		L268.4,141L268.4,141z" />
        <path id="XMLID_199_" fill="#B11A0A" d="M268.1,167l0.9,1.2c0,0-0.9-59.3,54-62.1s63.4,54.9,63.4,54.9s-1.6,15-54,17.8
		c-32.7,1.8-49.2-2.8-57.1-6.5c-5-1.5-5.1,2.1-5.1,2.1c16.2,15.6,53.4,20.6,53.4,20.6c-30.6,1.6-48.7-9.4-48.7-9.4
		c10.3,17.8,38.4,24.7,38.4,24.7c-39.6-0.3-49.6-35.3-49.6-35.3L268.1,167L268.1,167z" />
        <linearGradient id="XMLID_254_" gradientUnits="userSpaceOnUse" x1="-386.0944" y1="-2.3716" x2="-386.0944" y2="-1.808" gradientTransform="matrix(114.676 0 0 67.9978 44603.418 272.3362)">
            <stop offset="0" style="stop-color:#FFFFFF" />
            <stop offset="1" style="stop-color:#DDC48C" />
        </linearGradient>
        <path id="XMLID_198_" fill="url(#XMLID_254_)" d="M385.1,161.4c0,0-11.6-56.8-62.8-53.4c-51.2,3.4-52.1,60.3-52.1,60.3
		s18.1,10.6,63.7,6.9C379.6,171.4,385.1,161.4,385.1,161.4L385.1,161.4L385.1,161.4z" />
        <radialGradient id="XMLID_255_" cx="-384.9643" cy="-2.0842" r="0.4149" gradientTransform="matrix(89.4254 0 0 58.0704 34755.6719 259.3484)" gradientUnits="userSpaceOnUse">
            <stop offset="0" style="stop-color:#6CAF11" />
            <stop offset="0.3299" style="stop-color:#6AAC10" />
            <stop offset="0.6098" style="stop-color:#64A10F" />
            <stop offset="0.8706" style="stop-color:#59900C" />
            <stop offset="1" style="stop-color:#52840A" />
        </radialGradient>
        <path id="XMLID_197_" fill="url(#XMLID_255_)" d="M288.1,123c6.7-3.4,14.2-5.3,22.2-5.3c27.2,0,49.5,22.2,49.5,49.5
		c0,1.5-0.1,3-0.2,4.5c-6.7,1.3-15.1,2.5-25.6,3.4c-45.6,3.7-63.7-6.9-63.7-6.9S270.8,140.8,288.1,123L288.1,123L288.1,123z" />
        <linearGradient id="XMLID_256_" gradientUnits="userSpaceOnUse" x1="-388.2384" y1="-2.2802" x2="-388.2384" y2="-1.2869" gradientTransform="matrix(309.5371 0 0 204.8136 120427.4453 685.3475)">
            <stop offset="0" style="stop-color:#CE4920;stop-opacity:0" />
            <stop offset="1" style="stop-color:#CE4920" />
        </linearGradient>
        <path id="XMLID_196_" fill="url(#XMLID_256_)" d="M133.2,222.9c0,0,115.5,18.5,227.1-13.5s6.4,199.2-90,202
		c-96.5,2.7-147.4-67.1-169-144C101.2,267.3,83.6,213,133.2,222.9L133.2,222.9L133.2,222.9z" />
        <radialGradient id="XMLID_257_" cx="-388.2543" cy="-1.9896" r="1.0401" gradientTransform="matrix(309.5371 0 0 193.8552 120427.4453 660.128)" gradientUnits="userSpaceOnUse">
            <stop offset="0" style="stop-color:#E04C89" />
            <stop offset="1" style="stop-color:#96003A" />
        </radialGradient>
        <path id="XMLID_195_" fill="url(#XMLID_257_)" d="M133.2,222c0,0,115.5,17.5,227.1-12.8c111.6-30.1,6.4,188.6-90,191.2
		C173.7,403,122.8,336.9,101.2,264C101.2,264,83.6,212.7,133.2,222L133.2,222L133.2,222z" />
        <radialGradient id="XMLID_258_" cx="-388.098" cy="-1.8497" r="0.4316" gradientTransform="matrix(278.6017 0 0 157.6357 108380 589.5959)" gradientUnits="userSpaceOnUse">
            <stop offset="0" style="stop-color:#E04C89" />
            <stop offset="1" style="stop-color:#96003A" />
        </radialGradient>
        <path id="XMLID_194_" fill="url(#XMLID_258_)" d="M143.7,238.3c0,0,123.1,25.3,214-13.7c0,0,27.3-13.7,36,2.1
		c8.6,15.9-38.6,144.9-131.1,150s-127.4-75-144-112.3c0,0-7.2-17.4,1.3-24.4C126.2,234.7,129.1,235.3,143.7,238.3L143.7,238.3
		L143.7,238.3z" />
        <path id="XMLID_193_" fill="#751600" d="M143.7,238.3c0,0,123.1,25.3,214-13.7c0,0,27.3-13.7,36,2.1c8.6,15.9-38.6,144.9-131.1,150
		s-127.4-75-144-112.3c0,0-7.2-17.4,1.3-24.4C126.2,234.7,129.1,235.3,143.7,238.3L143.7,238.3L143.7,238.3z" />
        <radialGradient id="XMLID_259_" cx="-387.7951" cy="-1.8712" r="0.4159" gradientTransform="matrix(229.0526 0 0 108.8605 89086.5312 526.3216)" gradientUnits="userSpaceOnUse">
            <stop offset="0" style="stop-color:#E04C89" />
            <stop offset="1" style="stop-color:#96003A" />
        </radialGradient>
        <path id="XMLID_192_" fill="url(#XMLID_259_)" d="M146.3,316.9c22.4,32.5,57.8,63.2,116.2,60c53.7-3,92.2-47.7,113.3-87.7
		C261.4,235.9,170,298.1,146.3,316.9L146.3,316.9L146.3,316.9z" />
        <path id="XMLID_191_" opacity="0.7" fill="#250000" enable-background="new    " d="M221.5,277.7c23.6-7.3,51.4-11.6,82.2-8.6
		c6.4-13.9,4.5-25,3.4-29.2c-12.4,2.4-24.8,4.1-37.1,5.1c3,7.3-2.2,14.6-13.3,13.6c-10.5-0.9-9.7-8.1-8.2-12.3
		c-12.6,0.4-24.6,0.3-35.8-0.2C206.4,265.9,217,274.9,221.5,277.7L221.5,277.7L221.5,277.7z" />
        <linearGradient id="XMLID_260_" gradientUnits="userSpaceOnUse" x1="-380.9957" y1="-2.0981" x2="-380.2969" y2="-2.0981" gradientTransform="matrix(43.9187 0 0 26.7078 16883.8047 308.0819)">
            <stop offset="0" style="stop-color:#CEBC99" />
            <stop offset="4.692215e-02" style="stop-color:#D8CAAF" />
            <stop offset="0.1236" style="stop-color:#E6DDCC" />
            <stop offset="0.2054" style="stop-color:#F1ECE2" />
            <stop offset="0.2937" style="stop-color:#F9F7F3" />
            <stop offset="0.393" style="stop-color:#FEFDFC" />
            <stop offset="0.5266" style="stop-color:#FFFFFF" />
            <stop offset="0.6615" style="stop-color:#FEFDFC" />
            <stop offset="0.7491" style="stop-color:#FAF8F4" />
            <stop offset="0.8233" style="stop-color:#F2EEE5" />
            <stop offset="0.8899" style="stop-color:#E8E0D0" />
            <stop offset="0.951" style="stop-color:#DBCEB5" />
            <stop offset="1" style="stop-color:#CEBC99" />
        </linearGradient>
        <path id="XMLID_190_" fill="url(#XMLID_260_)" d="M189.8,244.5c-22.3-1.9-38.5-4.7-44-5.8c-0.1,5.8,1.3,24.4,21.9,26.5
		C184.5,267.1,188.7,253.3,189.8,244.5L189.8,244.5L189.8,244.5z" />
        <linearGradient id="XMLID_261_" gradientUnits="userSpaceOnUse" x1="-381.0905" y1="-2.029" x2="-380.3541" y2="-2.029" gradientTransform="matrix(44.3134 0 0 34.2383 17218.8926 306.6294)">
            <stop offset="0" style="stop-color:#CEBC99" />
            <stop offset="4.692215e-02" style="stop-color:#D8CAAF" />
            <stop offset="0.1236" style="stop-color:#E6DDCC" />
            <stop offset="0.2054" style="stop-color:#F1ECE2" />
            <stop offset="0.2937" style="stop-color:#F9F7F3" />
            <stop offset="0.393" style="stop-color:#FEFDFC" />
            <stop offset="0.5266" style="stop-color:#FFFFFF" />
            <stop offset="0.6615" style="stop-color:#FEFDFC" />
            <stop offset="0.7491" style="stop-color:#FAF8F4" />
            <stop offset="0.8233" style="stop-color:#F2EEE5" />
            <stop offset="0.8899" style="stop-color:#E8E0D0" />
            <stop offset="0.951" style="stop-color:#DBCEB5" />
            <stop offset="1" style="stop-color:#CEBC99" />
        </linearGradient>
        <path id="XMLID_189_" fill="url(#XMLID_261_)" d="M357.6,224.7c-9.8,4.2-20,7.7-30.4,10.5c1.6,6.6,7.6,19.4,19.3,19.1
		c15-0.4,25-18.4,25.1-34.3C364.1,221.5,357.6,224.7,357.6,224.7L357.6,224.7L357.6,224.7z" />
        <g transform="translate(97.808967, 207.594542)">
            <path id="XMLID_188_" fill="#E04C89" d="M249.3,123.4c-0.3,0.3-0.6,0.6-0.9,1c4.3,5.2,9.3,9.6,13.4,12.8c0.3-0.3,0.5-0.7,0.8-1
			C258.5,133.1,253.5,128.7,249.3,123.4L249.3,123.4L249.3,123.4z" />
            <path id="XMLID_187_" fill="#E04C89" d="M290.6,13.8c0.4,0.2,0.7,0.5,1.1,0.7c2-3.1,4.3-7.3,5.9-11.9c-0.4-0.2-0.8-0.4-1.2-0.6
			C294.9,6.6,292.7,10.7,290.6,13.8L290.6,13.8L290.6,13.8z" />
            <path id="XMLID_186_" fill="#E04C89" d="M264.3,15.2c0.4-0.2,0.8-0.3,1.3-0.5c-0.4-4.9-0.9-9.7-1.3-13.6c-0.4,0.1-0.8,0.2-1.3,0.3
			C263.4,5.4,263.9,10.3,264.3,15.2L264.3,15.2L264.3,15.2z" />
            <path id="XMLID_185_" fill="#E04C89" d="M279.4,78.7c-0.2,0.4-0.4,0.8-0.6,1.1c7.1,4.7,12,6.7,15.5,7.4c0.2-0.4,0.4-0.8,0.6-1.2
			C291.5,85.5,286.6,83.6,279.4,78.7L279.4,78.7L279.4,78.7z" />
            <path id="XMLID_184_" fill="#E04C89" d="M212.5,31.5c0.4-0.1,0.8-0.2,1.3-0.3l-1.5-19.1c-0.4,0.1-0.9,0.1-1.3,0.2L212.5,31.5
			L212.5,31.5z" />
            <path id="XMLID_183_" fill="#E04C89" d="M187.7,35.6c0.4-0.1,0.9-0.1,1.3-0.2l-1.7-20c-0.4,0-0.9,0.1-1.3,0.1L187.7,35.6
			L187.7,35.6z" />
            <path id="XMLID_182_" fill="#E04C89" d="M225.3,146c-0.4,0.3-0.7,0.5-1.1,0.8c2.1,5.5,5.6,12.1,11,17.7c0.3-0.3,0.7-0.6,1-0.8
			C230.7,158.1,227.3,151.4,225.3,146L225.3,146L225.3,146z" />
            <path id="XMLID_181_" fill="#E04C89" d="M266.3,101.2c-0.3,0.4-0.5,0.8-0.8,1.2c2.9,3.8,7.4,8.8,13.1,12.3
			c0.2-0.4,0.5-0.7,0.7-1.1C273.7,110,269.1,104.9,266.3,101.2L266.3,101.2L266.3,101.2z" />
            <path id="XMLID_180_" fill="#E04C89" d="M239.6,24.6c0.4-0.1,0.8-0.3,1.3-0.4l-0.7-17.1c-0.4,0.1-0.9,0.2-1.3,0.3L239.6,24.6
			L239.6,24.6z" />
            <path id="XMLID_179_" fill="#E04C89" d="M156.8,38.3l-0.7-20.1c-0.4,0-0.9,0-1.3,0.1l0.7,20.1C155.9,38.3,156.4,38.3,156.8,38.3
			L156.8,38.3L156.8,38.3z" />
            <path id="XMLID_178_" fill="#E04C89" d="M295.2,36.7c-0.1,0.4-0.2,0.9-0.3,1.3c7.8-0.9,12.5-4,15.5-7.3v-2
			C307.8,32.1,303.3,35.6,295.2,36.7L295.2,36.7L295.2,36.7z" />
            <path id="XMLID_177_" fill="#E04C89" d="M289.2,56.3c-0.2,0.4-0.3,0.8-0.5,1.2c3,1.5,8.7,3.6,16.3,3c0.1-0.4,0.3-0.9,0.4-1.3
			C297.8,59.9,292.1,57.7,289.2,56.3L289.2,56.3L289.2,56.3z" />
            <path id="XMLID_176_" fill="#E04C89" d="M65,33.8c0.5,0.1,0.9,0.1,1.4,0.2c-1.5-5.9-2.2-11.6-2.6-16.6c-0.4,0-0.9-0.1-1.3-0.1
			C62.8,22.3,63.5,27.9,65,33.8L65,33.8L65,33.8z" />
            <path id="XMLID_175_" fill="#E04C89" d="M29.5,28.6c0.5-0.1,1-0.1,1.5-0.1c-2.4-3.2-5-8.2-6-15.3h-1.3
			C24.7,20.2,27,25.2,29.5,28.6L29.5,28.6L29.5,28.6z" />
            <path id="XMLID_174_" fill="#E04C89" d="M60.1,153.2c0.3,0.3,0.7,0.6,1,0.9c3.7-4.9,8.6-10.4,14.2-14.4c-0.3-0.3-0.7-0.6-1-0.9
			C68.6,142.9,63.8,148.3,60.1,153.2L60.1,153.2L60.1,153.2z" />
            <path id="XMLID_173_" fill="#E04C89" d="M100.8,156.9c-0.4-0.2-0.8-0.4-1.2-0.6c-3.1,4.7-6.8,10.9-10.1,18
			c0.4,0.2,0.8,0.4,1.1,0.6C94,167.8,97.7,161.6,100.8,156.9L100.8,156.9L100.8,156.9z" />
            <path id="XMLID_172_" fill="#E04C89" d="M100.4,37.5c0.4,0,0.9,0.1,1.3,0.1c-1.2-5.2-2.6-11.8-3.4-18.5H97
			C97.8,25.8,99.2,32.3,100.4,37.5L100.4,37.5L100.4,37.5z" />
            <path id="XMLID_171_" fill="#E04C89" d="M130.6,167c-0.4-0.1-0.9-0.2-1.3-0.2c-2.6,7.8-4.1,15.2-4.9,21.1c0.4,0.1,0.8,0.2,1.3,0.3
			C126.6,182.2,128.1,174.9,130.6,167L130.6,167L130.6,167z" />
            <path id="XMLID_170_" fill="#E04C89" d="M190.6,164.3c3.1,9.1,7.6,16.2,11.6,21.3c0.4-0.2,0.8-0.4,1.2-0.5
			c-4-5-8.5-12.1-11.6-21.2C191.4,164,191,164.2,190.6,164.3L190.6,164.3L190.6,164.3z" />
            <path id="XMLID_169_" fill="#E04C89" d="M17.8,42.9c-6.2-1.5-12.4-4.6-17.3-7.6c0,0.5,0,1-0.1,1.5c5,3,11.1,6,17.4,7.4L17.8,42.9
			L17.8,42.9z" />
            <path id="XMLID_168_" fill="#E04C89" d="M36.3,89.5c-0.2-0.4-0.4-0.8-0.6-1.1c-7.1,2.8-12.2,6.8-15.8,10.5
			c0.2,0.4,0.4,0.8,0.6,1.2C24.1,96.4,29.1,92.3,36.3,89.5L36.3,89.5L36.3,89.5z" />
            <path id="XMLID_167_" fill="#E04C89" d="M131.2,38.8h1.3l-1.9-19.6h-1.3L131.2,38.8L131.2,38.8z" />
            <path id="XMLID_166_" fill="#E04C89" d="M165.1,169.2h-0.5h-0.8c-0.7,7.1-1.3,15.8-1.6,23.6h1.3
			C163.8,185,164.5,176.3,165.1,169.2L165.1,169.2L165.1,169.2z" />
            <path id="XMLID_165_" fill="#E04C89" d="M23.1,62.2c-0.2-0.4-0.4-0.9-0.6-1.3c-4.2,0.3-9.6,1.5-16.3,4c0.1,0.4,0.3,0.8,0.4,1.2
			C13.4,63.5,18.9,62.5,23.1,62.2L23.1,62.2L23.1,62.2z" />
            <path id="XMLID_164_" fill="#E04C89" d="M53.9,116.7c-0.3-0.4-0.5-0.7-0.8-1.1c-4.9,2-11.1,5.4-16.6,10.7c0.3,0.4,0.5,0.7,0.8,1.1
			C42.8,122.1,49,118.7,53.9,116.7L53.9,116.7L53.9,116.7z" />
        </g>
        <g transform="translate(213.582846, 0.000000)">
            <path id="XMLID_163_" opacity="0.5" fill="#CE4920" enable-background="new    " d="M0.9,50.6c0,0,2.8,14.8,36.4,14.8
			s32.3-15.7,32.3-15.7s-5.7,12-31.9,12S0.9,50.6,0.9,50.6L0.9,50.6L0.9,50.6z" />
            <path id="XMLID_162_" fill="#CE4920" d="M68.4,45.7c0,5.7-14.5,10.2-32.3,10.2S3.8,51.3,3.8,45.7c0-5.7,14.5-10.2,32.3-10.2
			S68.4,40.1,68.4,45.7L68.4,45.7L68.4,45.7z" />
            <linearGradient id="XMLID_262_" gradientUnits="userSpaceOnUse" x1="-1664.8209" y1="-1.9567" x2="-1663.8206" y2="-1.9567" gradientTransform="matrix(58.4858 0 0 52.4975 97375.2188 129.0205)">
                <stop offset="0" style="stop-color:#CEBC99" />
                <stop offset="0.5266" style="stop-color:#FFFFFF" />
                <stop offset="1" style="stop-color:#CEBC99" />
            </linearGradient>
            <path id="XMLID_161_" fill="url(#XMLID_262_)" d="M36.1,0C21,0,8.6,23.2,6.9,44.9c0,0,2.9,7.7,30.2,7.7c24.2,0,28.2-7.7,28.2-7.7
			C63.7,23.2,51.2,0,36.1,0L36.1,0L36.1,0z" />
            <linearGradient id="XMLID_263_" gradientUnits="userSpaceOnUse" x1="-1659.6243" y1="-1.7636" x2="-1659.6243" y2="-2.438" gradientTransform="matrix(34.3329 0 0 40.3218 57015.8203 105.2128)">
                <stop offset="0" style="stop-color:#FFFFFF;stop-opacity:0" />
                <stop offset="1" style="stop-color:#FFFFFF" />
            </linearGradient>
            <path id="XMLID_160_" fill="url(#XMLID_263_)" d="M53.3,27.5c0,9.4-7.7,17-17.2,17s-17.2-7.6-17.2-17S26.6,4.1,36.1,4.1
			S53.3,18.2,53.3,27.5L53.3,27.5L53.3,27.5z" />
        </g>
        <path id="XMLID_159_" opacity="0.7" fill="#961307" enable-background="new    " d="M480.5,396c0,0-20.8-48-37.7-121.7
		c-5.1,27.2-15.9,93.5-10.4,133.5c7,51.4,26.8,262-64.8,294.1c0,0-27.6,4.4-62.7-35.3c-35-39.7-82.6-87.2-82.6-87.2l23.9-10.5
		c0,0,12.3,16.3,37.4,8.8c0,0-16.3,2.9-27.9-9.3c0,0,16.9,5.8,27.9-8.2c0,0,7.6,2.3,5.3,7.6c0,0,8.8-7,2.3-15.8
		c0,0,49-42.6,29.1-91.1l-14-18.7c0,0,11.7-9.9,12.3-12.8c0.6-2.9-3.5-32.1-3.5-32.1s35.2-34.5,59.7-72.6
		c-26.8,39.9-66.4,74.7-104.5,75.7c-87.2,2.3-137.3-51.5-162-115.8H108c0,0,0.2,0.6,0.6,1.8c4.1,11.9,30.7,81.6,95.2,111.5
		l-37.4,8.2c0,0,133.6,39.1,139.4,70.1c5.8,30.9-214.4,81.1-281.4,29.1c-21.1-16.4-21.6-46-19.5-71c-9,35.1-7,64,18.5,99.1
		c0,0,0,112,94.2,207.1c0,0,36.1,29.4,61.6-7.1c25.5-36.7,60.1-57.5,89.5-49.9c29.4,7.6,56.5,44.8,67.7,57
		c11.2,12.2,58,50.4,117.1-110.5C453.5,630.1,564.5,569,480.5,396L480.5,396L480.5,396z" />
        <linearGradient id="XMLID_264_" gradientUnits="userSpaceOnUse" x1="-388.1983" y1="-2.3855" x2="-388.1966" y2="-1.5484" gradientTransform="matrix(299.5021 0 0 166.3488 116439.1797 796.3542)">
            <stop offset="0" style="stop-color:#CE4920;stop-opacity:0" />
            <stop offset="0.5364" style="stop-color:#AB2C13;stop-opacity:0.4455" />
            <stop offset="1" style="stop-color:#7A0400" />
        </linearGradient>
        <path id="XMLID_158_" opacity="0.6" fill="url(#XMLID_264_)" enable-background="new    " d="M190.7,568.9
		c116.8-17.5,142.9-76.5,129.5-108C306.8,429.4,166.1,406,166.1,406s145.1,28.6,149.4,68.3c5.8,54.9-161.8,116.4-292.2,59.1
		c0,0,0,4.7,0.8,13C49.7,559.6,106.8,581.6,190.7,568.9L190.7,568.9L190.7,568.9z" />
        <path id="XMLID_157_" fill="#020202" d="M227,174.4c0.3-1.7,0.5-3.4,0.5-5.1c0-16-13-28.8-28.8-28.8s-28.8,13-28.8,28.8
		c0,2.9,0.4,5.6,1.2,8.3c0.4,0,0.7,0.1,1,0.1C199.2,179.8,216.9,177.1,227,174.4L227,174.4L227,174.4z" />
        <linearGradient id="XMLID_265_" gradientUnits="userSpaceOnUse" x1="-388.7284" y1="-1.6561" x2="-388.6445" y2="-1.9963" gradientTransform="matrix(473.8713 0 0 325.8868 184456.9375 1184.1656)">
            <stop offset="0" style="stop-color:#770501" />
            <stop offset="1" style="stop-color:#991000" />
        </linearGradient>
        <path id="XMLID_156_" fill="url(#XMLID_265_)" d="M500.4,445.4c2.8,39.2,1.7,106.6-34.2,132.7c0,0,4.7-95.2-25.1-151.1
		c0,0,52.5,128.3-37.9,273.8c0,0-25.6,64.2-83.4,5.3c-57.8-59-134.9-27.9-134.9-27.9l29.7,4.1c0,0-29.7,7.6-41.5,32.1
		c-11.5,24.1-68.7,23.4-135.9-106.4c12.4,38.8,35.8,87.5,80.4,132.6c0,0,36.1,29.4,61.6-7.1c25.5-36.7,60.1-57.5,89.5-49.9
		c29.4,7.6,56.5,44.8,67.7,57c11.2,12.2,58,50.4,117.1-110.5C453.5,630.1,543,580.9,500.4,445.4L500.4,445.4L500.4,445.4z" />
        <path id="XMLID_155_" fill="#4A0100" d="M250.5,562.9c0,0,17.8,9.9,30.9-4.9c0,0,4.9-1.9,7.1,0.4
		C288.3,558.4,269.1,543.6,250.5,562.9L250.5,562.9L250.5,562.9z" />
        <g transform="translate(249.512671, 551.922027)">
            <path id="XMLID_154_" fill="#4A0100" d="M37.6,5.6c0.8,0.5,1.2,0.8,1.2,0.8C38.5,6.1,38.1,5.8,37.6,5.6L37.6,5.6L37.6,5.6z" />
            <path id="XMLID_153_" fill="#4A0100" d="M37.6,5.6C33.1,2.8,16.8-5.5,0.9,10.9c0,0,18,2.8,27.1-6.2L31.6,6
			C31.7,6,35.2,4.7,37.6,5.6L37.6,5.6L37.6,5.6z" />
        </g>
        <linearGradient id="SVGID_1_" gradientUnits="userSpaceOnUse" x1="178.2041" y1="619.4576" x2="178.2041" y2="689.6475" gradientTransform="matrix(1 0 0 -1 -9.094947e-13 798)">
            <stop offset="0" style="stop-color:#CEA7C7" />
            <stop offset="1" style="stop-color:#CEA7C7;stop-opacity:0.9" />
        </linearGradient>
        <path fill="url(#SVGID_1_)" d="M183.7,108.5c-52.8-3.5-64.7,55-64.7,55s5.8,10.3,52.8,14.2s65.6-7.1,65.6-7.1
		S236.3,112,183.7,108.5L183.7,108.5L183.7,108.5z M172.2,175.4c-43.8-3.6-49.2-13.2-49.2-13.2s11.1-54.7,60.4-51.4s50.2,58,50.2,58
		S216.1,179,172.2,175.4L172.2,175.4L172.2,175.4z" />
        <path id="XMLID_150_" fill="#020202" d="M280.4,172c-0.3-1.6-0.4-3.3-0.4-5c0-15.5,12.6-28,28-28s28,12.6,28,28
		c0,2.8-0.4,5.5-1.2,8c-0.3,0-0.7,0.1-1,0.1C307.4,177.3,290.1,174.6,280.4,172L280.4,172L280.4,172z" />
        <linearGradient id="SVGID_2_" gradientUnits="userSpaceOnUse" x1="270.407" y1="656.1269" x2="385.3108" y2="656.1269" gradientTransform="matrix(1 0 0 -1 -9.094947e-13 798)">
            <stop offset="0" style="stop-color:#CEA7C7" />
            <stop offset="1" style="stop-color:#CEA7C7;stop-opacity:0.9" />
        </linearGradient>
        <path fill="url(#SVGID_2_)" d="M322.5,108c51.2-3.4,62.8,53.4,62.8,53.4s-5.6,10-51.2,13.7s-63.7-6.9-63.7-6.9
		S271.3,111.4,322.5,108L322.5,108L322.5,108z M333.5,173c42.6-3.5,47.9-12.8,47.9-12.8s-10.8-53.1-58.7-49.9
		c-47.9,3.2-48.7,56.3-48.7,56.3S290.9,176.5,333.5,173L333.5,173L333.5,173z" />
        <linearGradient id="XMLID_266_" gradientUnits="userSpaceOnUse" x1="-372.4884" y1="-2.5984" x2="-372.4884" y2="-1.5285" gradientTransform="matrix(22.9552 0 0 53.0963 8803.6533 259.9676)">
            <stop offset="0" style="stop-color:#CE4920;stop-opacity:0" />
            <stop offset="1" style="stop-color:#CE4920" />
        </linearGradient>
        <path id="XMLID_147_" fill="url(#XMLID_266_)" d="M241.6,149.1L249,161l-1.2-14.2l4.3,9.4l-0.4-19.7l3.1,16.5l3.1-23.2l0.4,29.4
		l6.3-15.3c0,0-8.7,27.8-8.7,39l-2-20.9v18l-3.1-14.6l0.4,13L241.6,149.1L241.6,149.1z" />
        <path id="XMLID_146_" opacity="0.3" fill="#FFFFFF" enable-background="new    " d="M120.7,171.2c0,0,46,27.3,110.9,5.5
		C231.5,176.7,173.6,217.7,120.7,171.2L120.7,171.2L120.7,171.2z" />
        <path id="XMLID_145_" opacity="0.3" fill="#FFFFFF" enable-background="new    " d="M131.7,191.4c0,0,41.6,23.7,93.2,2.1
		C224.9,193.4,178.5,233,131.7,191.4L131.7,191.4L131.7,191.4z" />
        <path id="XMLID_144_" opacity="0.3" fill="#FFFFFF" enable-background="new    " d="M274.4,174.2c0,0,55.5,22.3,108.6-5.1
		C383,169.1,336.4,212.9,274.4,174.2L274.4,174.2L274.4,174.2z" />
        <path id="XMLID_143_" opacity="0.3" fill="#FFFFFF" enable-background="new    " d="M281,190.4c0,0,43.3,19.8,87.3,0.5
		C368.5,190.9,328.4,225.7,281,190.4L281,190.4L281,190.4z" />
        <path id="XMLID_142_" opacity="0.3" fill="#FFFFFF" enable-background="new    " d="M133.3,123.4c0,0,18.3-25.1,47.2-24.3
		c28.8,0.8,42.6,18.6,48.7,28.4C229.1,127.6,188,76.2,133.3,123.4L133.3,123.4L133.3,123.4z" />
        <path id="XMLID_141_" opacity="0.3" fill="#FFFFFF" enable-background="new    " d="M281.6,121.9c0,0,38-49.5,85.5-3
		C367.2,118.8,325,84.9,281.6,121.9L281.6,121.9L281.6,121.9z" />
        <path id="XMLID_140_" opacity="0.4" fill="#660300" enable-background="new    " d="M509,544.9c-16.8,37.5-38,55-38,55
		c0.7-7.4,1.3-18.3,1.7-27.1c-2,2-4.2,3.9-6.5,5.6c0,0,0.2-3.9,0.2-10.7c-4.9,38-12.9,62.6-12.9,62.6S497.4,605.9,509,544.9
		L509,544.9L509,544.9z" />
        <path id="XMLID_139_" opacity="0.15" fill="#FFFFFF" enable-background="new    " d="M261.8,571.7c0,0,15.5,1.4,22.4-8.5
		C284.1,563.2,289.9,580.9,261.8,571.7L261.8,571.7L261.8,571.7z" />
        <path id="XMLID_138_" opacity="0.25" fill="#FFFFFF" enable-background="new    " d="M105.6,261.7c0,0-15-40.8,18.5-37.3
		S250,234.9,317.9,221c68.1-13.8,72.3-15.4,84.5,0.8c0,0-12.7-14.2-36.2-6.5c-23.5,7.7-118.8,31.9-241.8,13.8
		C124.5,229.1,100.6,225.3,105.6,261.7L105.6,261.7L105.6,261.7z" />
        <radialGradient id="XMLID_267_" cx="-388.1232" cy="-1.8503" r="0.429" gradientTransform="matrix(283.646 0 0 156.7657 110355.5859 611.8614)" gradientUnits="userSpaceOnUse">
            <stop offset="0" style="stop-color:#E04C89" />
            <stop offset="1" style="stop-color:#96003A" />
        </radialGradient>
        <path id="XMLID_137_" fill="url(#XMLID_267_)" d="M258.3,394.2c-70.3-2.7-111.7-42.4-134.3-76.6c27.9,48.6,74.6,84.5,146.2,82.6
		c64.7-1.6,133.5-101,137.8-156.9C393.9,296,348.5,397.5,258.3,394.2L258.3,394.2L258.3,394.2z" />
        <g transform="translate(112.779727, 217.575049)">
            <radialGradient id="XMLID_268_" cx="-1064.8002" cy="-1.8467" r="0.4359" gradientTransform="matrix(283.3736 0 0 166.8517 301878.8125 407.3287)" gradientUnits="userSpaceOnUse">
                <stop offset="0" style="stop-color:#E04C89" />
                <stop offset="1" style="stop-color:#96003A" />
            </radialGradient>
            <path id="XMLID_136_" opacity="0.7" fill="url(#XMLID_268_)" fill-opacity="0.5" enable-background="new    " d="M281.9,15.7
			c-0.9,30.7-47.5,138.8-132.1,143.5C57.1,164.3,22.4,84.1,5.7,46.8c0,0-7.2-17.4,1.3-24.4c2.8-2.3,4.9-3.5,7.6-3.9l0,0
			c0,0-17.3-3.8-13.4,33.2c1.4,13.1,3.4,29.3,9,46.7c27.8,49.4,74.7,86.2,147.2,84.2c33.9-0.9,68.8-28.4,95.1-62.5
			C272.8,86.4,291.3,44.5,281.9,15.7L281.9,15.7L281.9,15.7z" />
            <radialGradient id="XMLID_269_" cx="-1064.4058" cy="-2.087" r="0.3786" gradientTransform="matrix(220.2698 0 0 27.4445 234610.9531 72.3787)" gradientUnits="userSpaceOnUse">
                <stop offset="0" style="stop-color:#E04C89" />
                <stop offset="1" style="stop-color:#96003A" />
            </radialGradient>
            <path id="XMLID_135_" opacity="0.7" fill="url(#XMLID_269_)" fill-opacity="0.5" enable-background="new    " d="M244.8,7.1
			c0,0,10.2-5.1,20-5.5c-6.8-0.6-16-0.2-25.3,4.3C223.3,13.7,124,31.1,44.2,23.1C78.4,28.2,172,38.3,244.8,7.1L244.8,7.1L244.8,7.1z
			" />
        </g>
        <path id="XMLID_134_" opacity="0.25" fill="#FFFFFF" enable-background="new    " d="M130,297.4c0,0,36.7,89,129.8,83.8
		C353,376,393.1,252.6,393.1,252.6s-33.8,135-135,136.2C156.8,389.9,130,297.4,130,297.4L130,297.4L130,297.4z" />
        <radialGradient id="XMLID_270_" cx="-387.7947" cy="-1.87" r="0.4157" gradientTransform="matrix(229.0526 0 0 108.8325 89086.5312 526.1896)" gradientUnits="userSpaceOnUse">
            <stop offset="0" style="stop-color:#E04C89" />
            <stop offset="1" style="stop-color:#96003A" />
        </radialGradient>
        <path id="XMLID_133_" opacity="0.5" fill="url(#XMLID_270_)" enable-background="new    " d="M228.6,275.6
		c-40.9,11.1-70.3,31.8-82.2,41.3c22.4,32.5,57.8,63.2,116.2,60c53.7-3,92.2-47.7,113.3-87.7c-35.4-16.5-68.6-21.9-98.2-20.9
		c14.7,2,56.9,9.6,65.6,30.4c10.5,25.3-48.3,49.1-78.5,52.6c-30.4,3.4-81.2-4-79.5-36.7C185.8,295.7,209.1,282.9,228.6,275.6
		L228.6,275.6L228.6,275.6z" />
        <radialGradient id="SVGID_3_" cx="-387.7951" cy="-1.8712" r="0.4159" gradientTransform="matrix(229.0526 0 0 108.8605 89086.5312 526.3216)" gradientUnits="userSpaceOnUse">
            <stop offset="0" style="stop-color:#E04C89" />
            <stop offset="1" style="stop-color:#96003A" />
        </radialGradient>
        <path opacity="0.7" fill="url(#SVGID_3_)" enable-background="new    " d="M146.3,316.9c22.4,32.5,57.8,63.2,116.2,60
		c53.7-3,92.2-47.7,113.3-87.7C261.4,235.9,170,298.1,146.3,316.9L146.3,316.9L146.3,316.9z M212.2,336.2
		c-35.6-32.6,26.4-59.9,36.4-58.4c9.9,1.5,15.9,55.4,15.9,55.4l0.8-56.9c0,0,38.7-3.8,53.8,25.7
		C334.2,331.6,247.8,368.8,212.2,336.2L212.2,336.2L212.2,336.2z" />
        <linearGradient id="XMLID_271_" gradientUnits="userSpaceOnUse" x1="-387.7973" y1="-1.5612" x2="-387.7973" y2="-3.0283" gradientTransform="matrix(229.352 0 0 99.336 89202.8047 513.7328)">
            <stop offset="0" style="stop-color:#FFFFFF;stop-opacity:0" />
            <stop offset="1" style="stop-color:#FFFFFF" />
        </linearGradient>
        <path id="XMLID_130_" opacity="0.35" fill="url(#XMLID_271_)" enable-background="new    " d="M375.6,289.1
		c-10.3-4.8-20.5-8.7-30.4-11.7c0,1.4,0,2.7-0.3,3.9c-3,1.2-6.6-0.2-9.5,1.6c5.6,8-4.9,7-9.9,7.3c-0.8,5,3.7,6.5,4.5,10.8
		c1,5.1-2,11.5-6.8,10.3c-3.9-1-7-6.5-10.3-8.8c-6.8-4.8-8.6-3.1-9.7,3c-1,5.8-0.9,9.8-7.8,7.1c-4-1.6-10.1-10.4-15.2-6.2
		c-4.3,3.6,2.4,17-3.1,19.7c-5.4,2.6-8-7.2-8.9-9.9c-2.3-7.3-8.9-7.9-13.8-1.2c-3.3,4.6-2.1,22.9-11.9,18.7
		c-4.5-1.9-5.6-11.9-11.9-7.2c-4.5,3.3-2.5,16.6-10.7,16.5c-3.9,0-3.3-1.8-4.6-5c-0.6-1.4-0.8-3.4-1.7-4.8c-0.7-1.2-2-0.5-2.6-1.4
		c-3.3-4.7-0.7-10.5-3.8-14.9c-4.9-6.9-8.8,0.2-9.4,5.6c-0.5,5-0.1,13.8-7.6,10.6c-0.1-3.3,1.3-7,0-10.2c-2-5.4-5.7-3.9-10.3-5.7
		c-0.9-5.3,5-8.9,4.6-13.3c-0.5-4.8-5.3-0.8-8.1-3.2c-0.1-1.5,0-2.9,0.1-4.3c-14.2,7.8-24.7,15.5-30.7,20.3
		c22.4,32.5,57.8,63.2,116.2,60C316,373.9,354.3,329.2,375.6,289.1L375.6,289.1L375.6,289.1z" />
        <linearGradient id="XMLID_272_" gradientUnits="userSpaceOnUse" x1="-387.7929" y1="-1.522" x2="-387.7929" y2="-2.1858" gradientTransform="matrix(228.7532 0 0 93.9605 88970.0703 506.8605)">
            <stop offset="0" style="stop-color:#FFFFFF;stop-opacity:0" />
            <stop offset="1" style="stop-color:#FFFFFF" />
        </linearGradient>
        <path id="XMLID_129_" opacity="0.2" fill="url(#XMLID_272_)" enable-background="new    " d="M262.5,376.8
		c53.7-3,92.2-47.7,113.3-87.7c-4.8-2.3-9.6-4.3-14.4-6.1c0.3,4-0.5,7.8-3.7,8.9c-4.8,1.5-5.6-2.5-7.4,3.5c-1.5,4.8-3.1,2.2-7.1,3.3
		c-3.8,1-2.6,4.1-2.4,7.1c0.4,8-0.3,16.8-9.9,16.7c-3.8,0-7.3-2.3-11.1-1.9c-1.5,0.2-2,0.3-3.2,1.1c-1.3,0.9-2.2,3.9-3.6,4.1
		c-2.4,0.3-3.5-5.5-6.7-2.5c-2.8,2.6,1.1,8.4-3.8,9.6c-3.5,0.9-5.7-3.6-9.5-2.5c-3.5,1-2.3,5.1-2.5,8.5c-0.4,5.2-2,5.4-6.7,3.7
		c-1.9-0.7-2.5-0.9-4.4-0.7c-1.7,0.2-3.5,1.1-5.6,0c-2.4-1.3-2.1-4.2-4.3-6c-1.5-1.3-6.5-4.5-8.4-2.5c-1.5,1.6,0.8,7.9,0.7,10.3
		c-0.1,2.8,1.6,9.6-0.9,10.8c-1.7,0.8-7.5-0.4-9-1.6c-2.5-2.1-3.1-7-5.7-9.5c-2.3-2.2-6.7-3-9.2-0.6c-2.4,2.4,0,7.3-1.5,10.3
		c-1.6,3.3-5.9,4.2-9.1,3c-3.6-1.4-3.4-4.7-5.5-6.8c-2.9-2.7-8.6,0.1-11.4-2.4c-2.8-2.5-0.8-6.8-1.9-9.9c-0.3-0.8-1.9-3.5-2.8-3.7
		c-1.9-0.6-2.3,1.1-3.7,1.8c-1,0.5-3.2,0.4-4.2,1.3c-1.5,1.3-0.7,2.7-1.2,4.5c-1.2,4.8-5.3,3.7-9,2.2c-3.2-1.2-3.4-2.8-3.4-6.2
		c0-2.6-0.2-6.9-1.9-8.9c-2-2.3-5.2-0.8-7.9-1.7c-0.5-3.2,3.1-5.7,0.7-8.1c-1.3-1.3-3-0.6-3.8-2.4c-0.7-1.4,0.3-3.8-0.1-5.3
		c-1.3-5.1-4.8-0.8-6.8-3.3c-0.4-0.5-0.4-1.4-0.1-2.4c-7.3,4.7-12.9,8.9-16.8,12C168.6,349.4,204,380.1,262.5,376.8L262.5,376.8
		L262.5,376.8z" />
        <radialGradient id="XMLID_273_" cx="-354.6158" cy="-1.9373" r="1.9374" gradientTransform="matrix(11.1957 0 0 56.6893 4228.4341 408.4315)" gradientUnits="userSpaceOnUse">
            <stop offset="0" style="stop-color:#E04C89" />
            <stop offset="1" style="stop-color:#96003A" />
        </radialGradient>
        <path id="XMLID_128_" opacity="0.5" fill="url(#XMLID_273_)" enable-background="new    " d="M260.7,270.2c0,0,4.3,32.2,2.8,56.8
		c0,0-1.9-44.5-10.9-54.4L260.7,270.2L260.7,270.2z" />
        <linearGradient id="XMLID_274_" gradientUnits="userSpaceOnUse" x1="-387.7818" y1="-2.683" x2="-387.7818" y2="-0.2723" gradientTransform="matrix(227.2561 0 0 25.7273 88370.4297 282.8209)">
            <stop offset="0" style="stop-color:#FFFFFF;stop-opacity:0" />
            <stop offset="1" style="stop-color:#FFFFFF" />
        </linearGradient>
        <path id="XMLID_127_" fill="url(#XMLID_274_)" d="M130.8,228.8c0,0,130.6,16.8,227.7-13C358.4,215.8,254.2,263.7,130.8,228.8
		L130.8,228.8L130.8,228.8z" />
        <linearGradient id="XMLID_275_" gradientUnits="userSpaceOnUse" x1="-387.871" y1="-1.6529" x2="-387.871" y2="-0.7145" gradientTransform="matrix(239.7318 0 0 99.4105 93242.7266 532.9504)">
            <stop offset="0" style="stop-color:#FFFFFF;stop-opacity:0" />
            <stop offset="1" style="stop-color:#FFFFFF" />
        </linearGradient>
        <path id="XMLID_126_" fill="url(#XMLID_275_)" d="M137.6,318.3c0,0,45.3,69.6,123.1,64.2s117.1-86,117.1-86s-31.4,98.9-121,99.6
		C167.1,396.8,137.6,318.3,137.6,318.3L137.6,318.3L137.6,318.3z" />
        <linearGradient id="XMLID_276_" gradientUnits="userSpaceOnUse" x1="-387.9724" y1="-1.3967" x2="-387.9724" y2="-3.0593" gradientTransform="matrix(255.5011 0 0 86.6308 99300.3438 586.105)">
            <stop offset="0" style="stop-color:#FFFFFF;stop-opacity:0" />
            <stop offset="1" style="stop-color:#FFFFFF;stop-opacity:0.3" />
        </linearGradient>
        <path id="XMLID_125_" fill="url(#XMLID_276_)" d="M45,379.2c0,0,175.6,26.9,255.9,86.7C301.1,466,177.7,417.8,45,379.2L45,379.2
		L45,379.2z" />
        <linearGradient id="XMLID_277_" gradientUnits="userSpaceOnUse" x1="-381.0602" y1="-1.175" x2="-381.0602" y2="-1.993" gradientTransform="matrix(46.2602 0 0 84.2048 17894.0469 637.1534)">
            <stop offset="0" style="stop-color:#CE4920;stop-opacity:0" />
            <stop offset="1" style="stop-color:#CE4920" />
        </linearGradient>
        <path id="XMLID_124_" fill="url(#XMLID_277_)" d="M284.9,470.7c-0.4-1.6,0.6-4,0.8-5.6c0.7-5.2,4.2-6.4,3.5-13.6
		c-16.2-5.9-32.1-12-44.2-15.6c0.1,0.1,0.1,0.1,0.2,0.2v1.4c-8.1,4.7,8.6,6.5,3.3,13c6.3-0.8,3.2,5.3,2.2,8
		c-1.6,4.3-1.5,7.1,0.2,11.1c1.9,4.4,1.8,6.2,1.8,10.9c0,1.9,0.7,3.7,0.5,5.6c-0.2,1.7-1.7,3.1-1.9,4.7c-0.4,4.8,3.3,4,5.7,7.5
		c2.5,3.6,0.2,6.8-1.1,10.3c-0.9,2.3-3.7,8.3-0.8,10.7c3.8,3.1,6.1-2,6.5-4.6c0.4-2.4-0.8-4.6-0.8-6.6c0-3,0.9-3.6,1.7-6.1
		c1.8-5.7-1.2-6.6-2.9-11.5c-1.8-5.1,2-7.4,2-12.3c0-3.1-4.7-9.7-0.6-11.3c0.1-1-0.7-3.1-0.5-3.6c0.6-1.7,0.6-1.2,1.5-2.7
		c1.2-1.8,3.3-4.5,5.6-2.9c2.1,1.5,0.4,5.2,0.9,7.5c0.6,2.4,3,4,1.8,7.5c-0.7,2.1-4.2,3.2-4.5,5.6c-0.4,3,2.3,3.5,2.7,6.1
		c0.5,3.1-2.1,4.3-1.9,7.5c0.2,2.8,2.7,4.3,2.4,7.4c3.1,1.3,5.2-0.2,6.6-3.1c2-4.1-0.9-4.6-1.5-8.1c-0.3-2,1-3,1.1-4.7
		c0.1-2.6-0.2-2.2-0.6-4.1c-0.7-2.9-1.4-5.6-1.4-9c0-5.3,5.2-14,7-5.1c0.7,3.2,0.2,5,1.5,8.3c1.2,3.1,0.9,5,0.9,8.5
		c3.8,2.2,5.3-4,4.6-6.9C286.9,473.2,285.3,472.4,284.9,470.7L284.9,470.7L284.9,470.7z" />
        <g transform="translate(357.302144, 325.364522)">
            <path id="XMLID_123_" fill="#920B04" fill-opacity="0.779" d="M6.1,40.6c-1.4,10.3-3,40,19.3,40s18.5-32.2,18.5-32.2
			S43.5,23.2,19.4,1.1C19,2.6,8.1,26.3,6.1,40.6L6.1,40.6L6.1,40.6z" />
            <linearGradient id="XMLID_278_" gradientUnits="userSpaceOnUse" x1="-2522.9521" y1="-1.9005" x2="-2523.6526" y2="-1.9073" gradientTransform="matrix(39.0922 0 0 73.9556 98662.3672 178.6812)">
                <stop offset="0" style="stop-color:#FFFFFF;stop-opacity:0.7861" />
                <stop offset="1" style="stop-color:#FFADA6;stop-opacity:0.69" />
            </linearGradient>
            <path id="XMLID_122_" fill="url(#XMLID_278_)" d="M19.4,1.1c0,1.3-16.1,25.3-18,39.6C0,51-1.1,74.9,21.1,74.9
			c22.3,0,18.6-32.2,18.6-32.2S38.7,24.5,19.4,1.1V0.8V1.1L19.4,1.1z" />
            <linearGradient id="XMLID_279_" gradientUnits="userSpaceOnUse" x1="-2519.9453" y1="-2.2139" x2="-2519.7351" y2="-1.4892" gradientTransform="matrix(28.9715 0 0 47.6624 73023.4766 118.5474)">
                <stop offset="0.1255" style="stop-color:#85211B" />
                <stop offset="1" style="stop-color:#FFFFFF" />
            </linearGradient>
            <path id="XMLID_121_" fill="url(#XMLID_279_)" fill-opacity="0.7" d="M20.9,48.9c16.5,0,13.8-19.6,13.8-19.6s-0.9-14-15.2-28.1
			c0,0-11,19-13.1,26.9C5.3,34.3,4.4,48.9,20.9,48.9z" />
            <linearGradient id="XMLID_280_" gradientUnits="userSpaceOnUse" x1="-2521.6995" y1="-1.8444" x2="-2521.6995" y2="-1.0064" gradientTransform="matrix(33.6359 0 0 54.5934 84840.0938 149.9188)">
                <stop offset="0" style="stop-color:#FFFFFF;stop-opacity:0" />
                <stop offset="1" style="stop-color:#FFFFFF" />
            </linearGradient>
            <path id="XMLID_120_" fill="url(#XMLID_280_)" d="M37.1,42.2c0,0-0.5-10.7-9.5-25.6c6,11.9,6.4,20,6.4,20s3.3,29-16.8,29
			c-6.5,0-10.8-2.2-13.6-5.6c2.2,6.2,7,11.2,16.7,11.2C40.4,71.4,37.1,42.2,37.1,42.2L37.1,42.2L37.1,42.2z" />
        </g>
        <path id="XMLID_119_" opacity="0.3" fill="#FFFFFF" enable-background="new    " d="M162.6,77.3c0,0,56.1-6.8,74.7,35.9
		c0,0-5.5-25.3-0.8-27.3c4.6-2.1,11.4,38.8,11.4,38.8s2.5-22.4,4.2-22.8c1.7-0.4,1.7,16.5,1.7,16.5s3.4-38.8,10.5-39.2
		c7.2-0.4,0.8,41.4,0.8,41.4s12.7-43.9,67.9-42.2c0,0-37.1-8.9-61.6,16c0,0,2.5-24.9-5.9-24.9s-12.7,25.3-12.7,25.3
		s-0.4-5.9-1.7-5.9c-1.3,0-3,17.3-3,17.3s-8.9-33.3-13.9-32.1c-5.1,1.3-3,19.4-3,19.4S208.6,68.6,162.6,77.3L162.6,77.3L162.6,77.3z
		" />
        <g transform="translate(234.541910, 202.604288)">
            <g>
                <path id="XMLID_118_" fill="#AF2419" d="M17.6,7.2c0,0,0.7-7.2-7-6.7C2.9,0.9-9.5,9,17.6,7.2L17.6,7.2L17.6,7.2z" />
                <path id="XMLID_117_" fill="#95110A" d="M10.6,0.5C6.9,0.7,2,2.8,1.2,4.6c1.6,0.6,7.1,2.5,14.5,0.5l1.9,2.1
				C17.6,7.2,18.3,0,10.6,0.5L10.6,0.5L10.6,0.5z" />
                <path id="XMLID_116_" fill="#6E0301" d="M16.9,3.5c-0.8-1.7-2.6-3.2-6.2-3C7.1,0.7,2.4,2.7,1.3,4.4C4.3,4.8,12.5,5.6,16.9,3.5
				L16.9,3.5L16.9,3.5z" />
            </g>
            <g transform="translate(20.959064, 0.000000)">
                <path id="XMLID_115_" fill="#AF2419" d="M1.3,7.2c0,0-0.7-7.2,7-6.7C15.9,0.9,28.2,9,1.3,7.2L1.3,7.2L1.3,7.2z" />
                <path id="XMLID_114_" fill="#95110A" d="M8.2,0.5c3.7,0.2,8.6,2.3,9.4,4.1c-1.5,0.6-7.1,2.5-14.5,0.5L1.2,7.2
				C1.3,7.2,0.6,0,8.2,0.5L8.2,0.5L8.2,0.5z" />
                <path id="XMLID_113_" fill="#6E0301" d="M2,3.5c0.8-1.7,2.6-3.2,6.2-3c3.6,0.2,8.3,2.2,9.4,3.9C14.6,4.8,6.4,5.6,2,3.5L2,3.5
				L2,3.5z" />
            </g>
        </g>
        <linearGradient id="XMLID_281_" gradientUnits="userSpaceOnUse" x1="254.9494" y1="572.3387" x2="254.5309" y2="580.279" gradientTransform="matrix(1 0 0 -1 -9.094947e-13 798)">
            <stop offset="0" style="stop-color:#B62A1D;stop-opacity:0.8" />
            <stop offset="0.6214" style="stop-color:#B3281B;stop-opacity:0.6136" />
            <stop offset="0.9987" style="stop-color:#AB2015;stop-opacity:0.5004" />
            <stop offset="1" style="stop-color:#AB2015;stop-opacity:0.5" />
        </linearGradient>
        <path id="XMLID_112_" fill="url(#XMLID_281_)" d="M241,226.5c9.1-0.4,18.4-0.9,28-1.7c4-1.9,7.6-4.3,9.3-7.1
		c3.5-5.7-0.1-12.3-2.2-15.3c1.7,3.4,1.2,9.5-2.7,11.3c-4.7,2.1-31,3.8-38.1-0.5c-7.1-4.2-2.3-11.3-2.3-11.3
		C223.3,215.4,232,222.7,241,226.5L241,226.5L241,226.5z" />
        <linearGradient id="XMLID_282_" gradientUnits="userSpaceOnUse" x1="-381.7008" y1="-2.6209" x2="-381.6773" y2="-1.8039" gradientTransform="matrix(50.0023 0 0 24.3524 19339.5566 265.8419)">
            <stop offset="0" style="stop-color:#B2251A;stop-opacity:6.926769e-02" />
            <stop offset="0" style="stop-color:#CB4928;stop-opacity:0.9" />
            <stop offset="0.4927" style="stop-color:#CA4727;stop-opacity:0.9493" />
            <stop offset="0.7442" style="stop-color:#C43F25;stop-opacity:0.9744" />
            <stop offset="0.9406" style="stop-color:#BC3220;stop-opacity:0.9941" />
            <stop offset="1" style="stop-color:#B82C1E" />
        </linearGradient>
        <path id="XMLID_111_" fill="url(#XMLID_282_)" d="M232.5,214.6c5.3,5.7,10.3,9.4,13.7,11.7c6.6-0.3,13.4-0.7,20.3-1.3
		c4.2-2.9,12.3-9.5,12.6-16.8c-0.8-2.4-2-4.5-3-5.8c1.7,3.4,1.2,9.5-2.7,11.3c-4.7,2.1-31,3.8-38.1-0.5c-7.1-4.2-2.3-11.3-2.3-11.3
		c-2.2,3-3.4,5.7-4,8.1C229.9,211.3,230.9,212.9,232.5,214.6L232.5,214.6L232.5,214.6z" />
        <path id="XMLID_110_" opacity="0.3" fill="#FFFFFF" enable-background="new    " d="M235.2,200c0,0,17.8-7.2,38.9,0
		C274.2,200,254.9,186.5,235.2,200L235.2,200L235.2,200z" />
        <radialGradient id="XMLID_283_" cx="-383.3168" cy="-1.9744" r="0.5038" gradientTransform="matrix(63.1559 0 0 120.0655 24476.7539 602.1301)" gradientUnits="userSpaceOnUse">
            <stop offset="0" style="stop-color:#000000;stop-opacity:0" />
            <stop offset="1" style="stop-color:#000000" />
        </radialGradient>
        <path id="XMLID_109_" fill="url(#XMLID_283_)" fill-opacity="0.2" d="M282.8,438.4c0,0,15.5-0.1,16.7-13c1.1-13.1-7-88.7-7-88.7
		s-0.6-18.5-24.4-18.5c-23.6,0-24.3,18.5-24.3,18.5s-8,75.5-7.3,88.7c0.7,13,17,13,17,13h14.7L282.8,438.4L282.8,438.4z" />
        <g transform="translate(239.532164, 432.155945)">
            <linearGradient id="XMLID_284_" gradientUnits="userSpaceOnUse" x1="-1819.1312" y1="-1.8892" x2="-1818.0476" y2="-1.8892" gradientTransform="matrix(48.3641 0 0 84.2048 87981.0781 202.8809)">
                <stop offset="0" style="stop-color:#3ED8BB" />
                <stop offset="1" style="stop-color:#3FB5BA" />
            </linearGradient>
            <path id="XMLID_108_" fill="url(#XMLID_284_)" d="M42.9,36.4c-0.4-1.6,0.6-4,0.8-5.6c0.7-5.2,4-9.2,5.7-14.1
			C33.2,10.8,15.1,5.2,3,1.6c0.1,0.1,0.1,0.1,0.2,0.2v1.4c-8.1,4.7,8.6,6.5,3.3,13c6.3-0.8,3.2,5.3,2.2,8c-1.6,4.3-1.5,7.1,0.2,11.1
			c1.9,4.4,1.8,6.2,1.8,10.9c0,1.9,0.7,3.7,0.5,5.6c-0.2,1.7-1.7,3.1-1.9,4.7c-0.4,4.8,3.3,4,5.7,7.5c2.5,3.6,0.2,6.8-1.1,10.3
			c-0.9,2.3-3.7,8.3-0.8,10.7c3.8,3.1,6.1-2,6.5-4.6c0.4-2.4-0.8-4.6-0.8-6.7c0-3,0.9-3.6,1.7-6.1c1.8-5.7-1.2-6.6-2.9-11.5
			c-1.8-5.1,2-7.4,2-12.3c0-3.1-4.7-9.7-0.6-11.3c0.1-1-0.7-3.1-0.5-3.6c0.6-1.7,0.6-1.2,1.5-2.7c1.2-1.8,3.3-4.5,5.6-2.9
			c2.1,1.5,0.4,5.2,0.9,7.5c0.5,2.4,3,4,1.8,7.5c-0.7,2.1-4.2,3.2-4.5,5.6c-0.4,3,2.3,3.5,2.7,6.1c0.5,3.1-2.1,4.3-1.9,7.5
			c0.2,2.8,2.7,4.3,2.4,7.4c3.1,1.3,5.2-0.2,6.6-3.1c2-4.1-0.9-4.6-1.5-8.1c-0.3-2,1-3,1.1-4.7c0.1-2.6-0.2-2.2-0.6-4.1
			c-0.7-2.9-1.4-5.6-1.4-9c0-5.3,5.2-14,7-5.1c0.7,3.2,0.2,5,1.5,8.3c1.2,3.1,0.9,5,0.9,8.5c3.8,2.2,5.3-4,4.6-6.9
			C44.8,38.9,43.3,38.1,42.9,36.4L42.9,36.4L42.9,36.4z" />
            <linearGradient id="XMLID_285_" gradientUnits="userSpaceOnUse" x1="-1819.3658" y1="-2.0416" x2="-1818.3622" y2="-2.0416" gradientTransform="matrix(49.8908 0 0 31.239 90770.5703 80.9421)">
                <stop offset="0" style="stop-color:#F6D62C" />
                <stop offset="0.3846" style="stop-color:#FBB316" />
                <stop offset="0.6509" style="stop-color:#F6D60E" />
                <stop offset="1" style="stop-color:#FBB316" />
            </linearGradient>
            <path id="XMLID_107_" fill="url(#XMLID_285_)" d="M3.2,1.7v1.4c-8.1,4.7,8.6,6.5,3.3,13c5-0.7,4.1,3,3,6c0.2,0,0.4-0.1,0.6-0.1
			c2.3-0.2,2.4,0.9,4.2,1.5c0.6,0.2,2.5,0.1,2.9,0.5c0.9,0.8,0.4,2.8,0.9,3.5c0.2,0.3,0.4,0.4,0.7,0.6c0.3-0.8,0.5-0.7,1.2-1.9
			c1.2-1.8,3.3-4.5,5.6-2.9c1.8,1.3,0.8,4.2,0.8,6.5c1.6-0.4,2.7-1,4.8-0.9c0.6,0.5,1,1.1,1.3,1.6c1.7-3.7,4.5-5.8,5.7,0.2
			c0.2,0.8,0.3,1.5,0.3,2.1c1.6-0.5,3.1-1.2,5-1c0.1-0.4,0.2-0.8,0.2-1.1c0.7-5.1,12.6-11.3,4.3-15.1C31.7,9.7,15,5.1,2.9,1.5
			C3.1,1.6,3.1,1.7,3.2,1.7L3.2,1.7L3.2,1.7z" />
            <g transform="translate(7.984405, 32.935673)">
                <linearGradient id="XMLID_286_" gradientUnits="userSpaceOnUse" x1="-1837.6764" y1="-2.2585" x2="-1836.6658" y2="-2.2585" gradientTransform="matrix(10.4346 0 0 16.2682 19191.2461 55.2069)">
                    <stop offset="0" style="stop-color:#6CAF11" />
                    <stop offset="1" style="stop-color:#52840A" />
                </linearGradient>
                <path id="XMLID_106_" fill="url(#XMLID_286_)" d="M24,26.1c0.7,0.2,1.5,0.4,2.3,0.5c0.2-2.2-1.7-3.1-2.2-5.8c-0.3-2,1-3,1.1-4.7
				c0.1-2.6-0.2-2.2-0.6-4.1c-0.1-0.4-0.2-0.8-0.3-1.2c-2.7-0.4-5.5-0.4-8.3-0.5c-0.1,0.2-0.1,0.4-0.1,0.6c-0.4,3,2.3,3.5,2.7,6.1
				c0.3,2.1-0.7,3.3-1.4,4.9C20.2,21.4,23.1,23.6,24,26.1L24,26.1L24,26.1z" />
                <linearGradient id="XMLID_287_" gradientUnits="userSpaceOnUse" x1="-1839.5316" y1="-2.0952" x2="-1838.5311" y2="-2.0952" gradientTransform="matrix(10.9786 0 0 25.2812 20196.0488 67.1489)">
                    <stop offset="0" style="stop-color:#6CAF11" />
                    <stop offset="1" style="stop-color:#52840A" />
                </linearGradient>
                <path id="XMLID_105_" fill="url(#XMLID_287_)" d="M2.8,2.7C2.1,2.2,1.4,1.8,0.6,1.5C0.7,1.8,0.8,2,0.9,2.3
				c1.9,4.4,1.8,6.2,1.8,10.9c0,1.9,0.7,3.7,0.5,5.6c-0.2,1.7-1.7,3.1-1.9,4.7c0,0,0,0,0,0.1c0.1,0,0.1,0,0.2-0.1
				c3.4-0.9,4.9,4.2,8.7,3.2c0.3-0.1,0.6-0.2,0.9-0.4c-0.5-0.9-1-1.9-1.5-3.1c-1.8-5.1,2-7.4,2-12.3c0-0.3,0-0.6-0.1-0.9
				C10.3,9.9,9.1,9.7,8,9.3C6.4,7.4,4.8,4.2,2.8,2.7L2.8,2.7L2.8,2.7z" />
            </g>
            <g transform="translate(6.986355, 18.962963)">
                <linearGradient id="XMLID_288_" gradientUnits="userSpaceOnUse" x1="-1815.5006" y1="-2.4275" x2="-1814.5081" y2="-2.4275" gradientTransform="matrix(7.2858 0 0 11.8768 13258.5996 46.4965)">
                    <stop offset="0" style="stop-color:#FE980E" />
                    <stop offset="1" style="stop-color:#FF5906" />
                </linearGradient>
                <path id="XMLID_104_" fill="url(#XMLID_288_)" d="M38.4,23.3c0-0.6,0-1.2-0.2-1.7c-0.4-1.6-2-2.4-2.4-4.2c-0.4-1.6,0.6-4,0.8-5.6
				v-0.1c-1.7,0-3.7,0.1-5.5,0v0.1c0.7,3.2,0.2,5,1.5,8.3c0.5,1.3,0.8,2.4,0.9,3.5C35.2,23.2,36.9,23.1,38.4,23.3L38.4,23.3
				L38.4,23.3z" />
                <linearGradient id="XMLID_289_" gradientUnits="userSpaceOnUse" x1="-1827.9279" y1="-2.2132" x2="-1826.9241" y2="-2.2132" gradientTransform="matrix(9.4815 0 0 17.9984 17348.3379 57.8007)">
                    <stop offset="0" style="stop-color:#FE980E" />
                    <stop offset="1" style="stop-color:#FF5906" />
                </linearGradient>
                <path id="XMLID_103_" fill="url(#XMLID_289_)" d="M24.3,17c0-2.2,0.9-5.1,2.1-7c-0.8-0.5-1.6-0.9-2.7-1c-1.5-0.2-2.8,0.1-4.1,0.4
				c-0.1,0.9-0.1,1.8,0,2.5c0.5,2.4,3,4,1.8,7.5c-0.7,2.1-4.2,3.2-4.5,5.6v0.5c1.6,0,2.2,0.5,3.6,1c1.3,0.5,3.4,0.6,5.3,0.3
				c-0.1-0.2-0.1-0.4-0.2-0.7C25,23.1,24.3,20.4,24.3,17L24.3,17L24.3,17z" />
                <linearGradient id="XMLID_290_" gradientUnits="userSpaceOnUse" x1="-1837.1465" y1="-2.1192" x2="-1836.1428" y2="-2.1192" gradientTransform="matrix(12.2162 0 0 23.3544 22443.4941 62.9084)">
                    <stop offset="0" style="stop-color:#FE980E" />
                    <stop offset="1" style="stop-color:#FF5906" />
                </linearGradient>
                <path id="XMLID_102_" fill="url(#XMLID_290_)" d="M12,13.6c0.1-1-0.7-3.1-0.5-3.6c0.6-1.5,0.6-1.3,1.3-2.3
				c-0.3-0.5-0.4-1.2-0.7-2.1c-0.5-1.7-1.2-2.2-3-2.3c-0.8,0-1.6,0.3-2.3,0.2C6,3.3,5.2,2.6,4.4,2.2C3.9,2,3.4,1.8,3,1.7
				C2.6,3,2,4.4,1.7,5.3c-1.6,4.3-1.5,7.1,0.2,11.1c0.3,0.6,0.5,1.2,0.7,1.8c1.2,0.9,2.3,1.9,3.1,3.1c1.9,2.9,2.8,3.6,6.4,3.8h0.5
				v-0.2C12.6,21.9,7.9,15.3,12,13.6L12,13.6L12,13.6z" />
            </g>
            <path id="XMLID_101_" opacity="0.3" fill="#FFFFFF" enable-background="new    " d="M28.1,18.8c1.2,0.4,1.7,0.9,1.7,2.2
			c0,0.8,0,1.7,0.1,2.5c0,0.7,0,0.7,0.6,0.8c0.5,0.1,2.6-0.5,2.6,0.2c0.8,0.2,1.5-1.6,2.2-2c0.7-0.4,1.6,0.1,2,0.8
			c0.3,0.4,0.2,1.1,0.7,1.4c0.5,0.2,0.8-0.1,1.2-0.1c0.5,0,0.4,0.4,0.8,0.5c0.6,0.2,0.6-0.5,0.8-0.9c0.4-0.7,0.9-1.4,1.6-1.7
			c0.4-0.2,1-0.5,1.5-0.5c0.2,0,0.5,0.4,0.8,0.1c0.6-0.4,0.5-2.3,0.3-2.9c-0.3-0.9-1.6-1.5-2.6-1.3c-0.4,0.1-0.8,0.3-1.1,0.6
			c-0.2,0.2-0.3,0.8-0.4,0.9c-0.7,0.5-1.3-0.5-1.5-1c-0.3-0.7-0.5-1.5-1.1-2c-1.1-1-2.9-0.7-3.9,0.3c-0.7,0.6-0.7,1.7-1.3,2.4
			c-0.5,0.5-0.8-0.7-1.3-1.1c-1.2-1-2.7-0.1-3.9,0.4" />
            <path id="XMLID_100_" opacity="0.3" fill="#FFFFFF" enable-background="new    " d="M12.4,23.9c-0.8,0.1-1.3,1.6-1.3,2.3
			c0,1.1,1.1,1.4,1.4,2.4c0.4,1.5-1.3,2.6-1.7,3.9c-0.5,2.3,2.4,1.9,2.6,3.9c0,0.3-0.1,0.7,0.1,0.9c0.3,0.4,1.3,0.6,1.7,0.4
			c0.6-0.3,0.9-1.6,1.2-2.1c0.4-0.9,0.5-1.9,0.7-2.9c0.3-1.2,1.2-2.4,0.6-3.7c-0.5-1.1-1.5-1.5-2.3-2.2c-0.6-0.6-0.9-1.3-1.6-1.7
			c-0.7-0.3-0.8-0.6-0.9-1.4" />
            <path id="XMLID_99_" opacity="0.3" fill="#FFFFFF" enable-background="new    " d="M13.8,44.5c-0.1,1,0.9,1.5,0.7,2.5
			c-0.2,0.8-0.7,1.5-0.8,2.4c-0.1,0.9,0.7,1.9,0.4,2.7c-0.2,0.9-1.4,1.6-1.9,2.3c-0.6,1-1,1.5-0.3,2.6c0.6,0.9,1.5,1.6,2.7,1.2
			c2.4-0.7,1.3-3.8,1.1-5.4c-0.1-0.8-0.1-1.4,0.2-2.2c0.3-0.9,0.2-1.4-0.1-2.3c-0.3-1.1,0.3-3.5-1.4-3.6" />
            <path id="XMLID_98_" opacity="0.3" fill="#FFFFFF" enable-background="new    " d="M15.9,74.9c-1,1.1-1.9,2.6-2.3,4
			c-0.2,0.6-0.4,1.5-0.2,2.1c0.5,1.6,1.9,1.6,2.9,0.5c0.9-1,1.5-2.4,1.7-3.8c0.1-0.9,0-1.3-0.6-1.8c-0.4-0.4-0.5-0.9-0.9-1.3" />
            <path id="XMLID_97_" opacity="0.3" fill="#FFFFFF" enable-background="new    " d="M28.9,40.7c-0.2,0.6-0.9,1.1-1.3,1.5
			c-0.6,0.6-1.3,1.2-1.8,1.8c-0.5,0.7-1.2,2.3-0.5,3c0.3,0.3,0.8,0.4,1.1,0.8c0.3,0.4,0.7,0.9,0.9,1.4c0.3,0.5,0.4,2,0.9,2.3
			c0.7,0.4,1.5-0.5,1.6-1.1c0.2-1-0.2-2,0.3-3c0.6-1,0.8-1.9,0.5-3.1c-0.1-0.4-0.3-0.8-0.5-1.2c-0.2-0.4-0.6-0.6-0.9-1
			c-0.1-0.2-0.2-0.4-0.2-0.6" />
            <path id="XMLID_96_" opacity="0.3" fill="#FFFFFF" enable-background="new    " d="M27.3,54.5c-0.5,0.6-1,1.8-1.1,2.6
			c-0.2,1.2,1,1.3,1.7,2c0.7,0.7,0.4,1.2,0.7,2c0.3,0.7,1.1,0.6,1.6,0.2c1.6-0.9,1.9-4.1,0.6-5.4c-0.4-0.3-1-0.9-1.4-1.1
			c-0.5-0.2-1.3-0.2-1.8-0.4" />
            <path id="XMLID_95_" opacity="0.3" fill="#FFFFFF" enable-background="new    " d="M41.2,38.6c0.8,0.8,0.9,3.1,0.8,4.1
			c-0.1,0.7-0.3,1.3-0.5,2c-0.4,1.6,1.1,2,1.9,0.6c0.5-0.8,1-2,0.9-3c-0.1-1-0.7-1.1-1.1-1.8c-0.4-0.5-0.3-0.7-0.8-1.1
			c-0.3-0.2-0.6-0.5-0.8-0.8" />
        </g>
        <linearGradient id="XMLID_291_" gradientUnits="userSpaceOnUse" x1="-382.9779" y1="-1.8666" x2="-381.9759" y2="-1.8666" gradientTransform="matrix(55.6064 0 0 113.5782 21536.4609 587.8692)">
            <stop offset="0" style="stop-color:#3ED8BB" />
            <stop offset="0.3846" style="stop-color:#3FB5BA" />
            <stop offset="0.6509" style="stop-color:#3ED8BB" />
            <stop offset="1" style="stop-color:#3FB5BA" />
        </linearGradient>
        <path id="XMLID_94_" fill="url(#XMLID_291_)" d="M268.3,432.7h14.1c0,0,12.5-0.1,13.6-12.3c1.1-12.4-4.3-83.9-4.3-83.9
		s-0.6-17.5-23.5-17.5h0.1c-22.8,0-23.5,17.5-23.5,17.5s-5,71.5-4.3,83.9c0.7,12.3,13.6,12.3,13.6,12.3H268.3L268.3,432.7z" />
        <linearGradient id="XMLID_292_" gradientUnits="userSpaceOnUse" x1="-382.4251" y1="-0.3015" x2="-382.4251" y2="-2.1043" gradientTransform="matrix(55.1922 0 0 13.5735 21375.4395 457.8905)">
            <stop offset="0" style="stop-color:#FFFFFF;stop-opacity:0.3387" />
            <stop offset="1" style="stop-color:#2CAB98" />
        </linearGradient>
        <path id="XMLID_93_" fill="url(#XMLID_292_)" fill-opacity="0.7" d="M268.2,432.7h12.7c12.8,0,15.3-8.8,15.3-13.6
		c-4.3,4.8-11.8,6.1-16,7.8c-5.5,2.3-10.6,1.9-13.3,1.4c-2.8-0.5-2.9-2.1-12.1-1c-4.8,0.5-10-1.9-13.9-4.3c1.5,5.7,5.1,9.7,14.6,9.7
		H268.2L268.2,432.7z" />
        <linearGradient id="XMLID_293_" gradientUnits="userSpaceOnUse" x1="-382.9869" y1="-2.085" x2="-381.9868" y2="-2.085" gradientTransform="matrix(55.6912 0 0 27.0886 21569.4004 459.4627)">
            <stop offset="0" style="stop-color:#6CAF11" />
            <stop offset="0.3846" style="stop-color:#52840A" />
            <stop offset="0.6509" style="stop-color:#6CAF11" />
            <stop offset="1" style="stop-color:#52840A" />
        </linearGradient>
        <path id="XMLID_92_" fill="url(#XMLID_293_)" d="M295,389.4L295,389.4c0.1,1.2,0.1,2.4,0.2,3.6c-4.7-2.3-9.8-1.2-15.8,1.4
		c-7.8,3.5-16.6,1.2-25.3-1.9c-4.6-1.7-9.5-0.6-13,0.8c-0.4,7.9-0.7,14.9-0.9,19.4c2.2,0.9,5.3,1.5,8.8,0.5c0,0,8.3,2.4,12.5,1.7
		c0,0,1.6-0.5,4,0.7c2.4,1.2,5.4,1.2,6.9,0.3c0,0,4.9,0.2,6.8-1c0,0,3.1-0.3,4.3-0.9c0,0,4.8-0.2,7.3-2.6c0,0,2.5,0,5.2-0.3
		C295.8,406.1,295.4,398.3,295,389.4L295,389.4L295,389.4z" />
        <linearGradient id="XMLID_294_" gradientUnits="userSpaceOnUse" x1="-382.927" y1="-2.3705" x2="-381.925" y2="-2.3705" gradientTransform="matrix(55.1922 0 0 13.3022 21375.2891 434.7819)">
            <stop offset="0" style="stop-color:#81C819" />
            <stop offset="0.3846" style="stop-color:#71B612" />
            <stop offset="0.6509" style="stop-color:#81C819" />
            <stop offset="1" style="stop-color:#71B612" />
        </linearGradient>
        <path id="XMLID_91_" fill="url(#XMLID_294_)" d="M287.9,409.4c3.9,0.3,6.5,0.3,8.1,0.2c-0.2-3.6-0.4-8-0.6-12.9
		c-1.3,0-2.8,0-3.8-0.1c-2-0.2-5.8,0.7-7.8,1.6c-2,0.9-3.9,0.8-6.3,0.4c-2.4-0.4-2.9-1.4-6.1-0.2c-3.3,1.2-6.5,1.6-6.5,1.6
		s-0.8-0.4-2.2-0.3c-1.4,0.1-4.8-0.2-4.8-0.2l-4.3,0.4c-3.6,1.7-10.1,0.6-12.6,0.1c-0.1,2.2-0.2,4.3-0.3,6.2
		c6.7-1,10.4,2.9,10.4,2.9c6.2-2,9.8,0.8,9.8,0.8C269.5,407.4,279.3,408.8,287.9,409.4L287.9,409.4L287.9,409.4z" />
        <linearGradient id="XMLID_295_" gradientUnits="userSpaceOnUse" x1="-382.449" y1="-1.9318" x2="-381.4488" y2="-1.9318" gradientTransform="matrix(51.699 0 0 58.7348 20014.8398 461.0978)">
            <stop offset="0" style="stop-color:#F6D62C" />
            <stop offset="0.3846" style="stop-color:#FBB316" />
            <stop offset="0.6509" style="stop-color:#F6D60E" />
            <stop offset="1" style="stop-color:#FBB316" />
        </linearGradient>
        <path id="XMLID_90_" fill="url(#XMLID_295_)" d="M291.7,335.5c-2-17.6-23.2-17.3-23.2-17.3s-21.8-0.3-23.7,17.3
		c-0.7,6.2-1.5,18.3-2.2,31.4c2.2,3.6,5.1,7.2,8.2,8.2c7.1,2.4,7.8-2.1,17.8,0.9c10,2.9,13.5-0.9,18.4-3.1c2.1-1,4.9-0.3,7.4,0.8
		C293.4,358.2,292.5,342.8,291.7,335.5L291.7,335.5L291.7,335.5z" />
        <linearGradient id="XMLID_296_" gradientUnits="userSpaceOnUse" x1="-382.7683" y1="-2.0638" x2="-381.7682" y2="-2.0638" gradientTransform="matrix(53.9945 0 0 29.3011 20908.6875 442.1146)">
            <stop offset="0" style="stop-color:#FE980E" />
            <stop offset="0.3846" style="stop-color:#FF5906" />
            <stop offset="0.6509" style="stop-color:#FE980E" />
            <stop offset="1" style="stop-color:#FF5906" />
        </linearGradient>
        <path id="XMLID_89_" fill="url(#XMLID_296_)" d="M294.2,372.7c0,0.4,0,0.7,0.1,1.1c-2.5-1.1-5.2-1.8-7.4-0.8
		c-4.8,2.3-8.3,6.1-18.4,3.1c-10-2.9-10.7,1.6-17.8-0.9c-3.1-1-5.9-4.6-8.2-8.2c-0.5,8.9-1,18.3-1.3,26.4c3.5-1.4,8.3-2.5,13-0.8
		c8.7,3.1,17.5,5.4,25.3,1.9c6-2.7,11.1-3.7,15.8-1.4C294.9,386.6,294.5,379.7,294.2,372.7L294.2,372.7L294.2,372.7z" />
        <linearGradient id="XMLID_297_" gradientUnits="userSpaceOnUse" x1="-382.7683" y1="-2.0638" x2="-381.7682" y2="-2.0638" gradientTransform="matrix(53.9945 0 0 29.3011 20908.6875 442.1146)">
            <stop offset="0" style="stop-color:#FE980E" />
            <stop offset="0.3846" style="stop-color:#FF5906" />
            <stop offset="0.6509" style="stop-color:#FE980E" />
            <stop offset="1" style="stop-color:#FF5906" />
        </linearGradient>
        <path id="XMLID_88_" fill="url(#XMLID_297_)" d="M294.2,372.7c0,0.4,0,0.7,0.1,1.1c-2.5-1.1-5.2-1.8-7.4-0.8
		c-4.8,2.3-8.3,6.1-18.4,3.1c-10-2.9-10.7,1.6-17.8-0.9c-3.1-1-5.9-4.6-8.2-8.2c-0.5,8.9-1,18.3-1.3,26.4c3.5-1.4,8.3-2.5,13-0.8
		c8.7,3.1,17.5,5.4,25.3,1.9c6-2.7,11.1-3.7,15.8-1.4C294.9,386.6,294.5,379.7,294.2,372.7L294.2,372.7L294.2,372.7z" />
        <path id="XMLID_87_" fill="#3FB5BA" d="M255.3,420.4c-0.1-0.3-0.4-0.6-0.6-0.9c-0.2-0.2-0.2-0.5-0.3-0.8c-0.1,0.5,0,1.1,0.3,1.5
		c0.2,0.3,0.5,0.5,0.6,0.9v0.2C255.3,421,255.4,420.6,255.3,420.4L255.3,420.4L255.3,420.4z" />
        <g transform="translate(242.000000, 325.000000)">
            <radialGradient id="XMLID_298_" cx="-1730.5032" cy="-3.0885" r="0.728" gradientTransform="matrix(3.5179 0 0 5.8555 6095.6172 79.5109)" gradientUnits="userSpaceOnUse">
                <stop offset="0" style="stop-color:#FFFFFF;stop-opacity:0" />
                <stop offset="0.9171" style="stop-color:#FFFFFF;stop-opacity:0.9171" />
                <stop offset="1" style="stop-color:#FFFFFF" />
            </radialGradient>
            <path id="XMLID_86_" opacity="0.3" fill="url(#XMLID_298_)" enable-background="new    " d="M8.1,58.5c-2.3-0.4-2.7,5.1-0.6,5.7
			c2.1,0.6,2.5-3,1.9-4.2c-0.3-0.7-0.8-1.5-1.6-1.6" />
            <path id="XMLID_85_" opacity="0.3" fill="#FFFFFF" enable-background="new    " d="M8.1,59.2c-1.7-0.6-0.6,1.8-0.4,2.5
			c0.8,0.1,0.7-1.8,0.5-2.2" />
            <path id="XMLID_84_" opacity="0.3" fill="#FE980E" enable-background="new    " d="M7.5,64.2c-0.9-0.2-1.3-1.3-1.4-2.4
			c-0.1,1.4,0.4,2.8,1.4,3.1c1.7,0.4,2.2-1.7,2.1-3.3C9.5,63,8.9,64.5,7.5,64.2L7.5,64.2L7.5,64.2z" />
            <radialGradient id="XMLID_299_" cx="-1776.6038" cy="-3.9957" r="0.4322" gradientTransform="matrix(6.0182 0 0 3.4868 10724.9844 70.4777)" gradientUnits="userSpaceOnUse">
                <stop offset="0" style="stop-color:#FFFFFF;stop-opacity:0" />
                <stop offset="0.9171" style="stop-color:#FFFFFF;stop-opacity:0.9171" />
                <stop offset="1" style="stop-color:#FFFFFF" />
            </radialGradient>
            <path id="XMLID_83_" opacity="0.3" fill="url(#XMLID_299_)" enable-background="new    " d="M33.6,54.8c-1,0-2.3,0.4-3.1,1
			c-0.3,0.2-0.6,0.6-0.5,1c0.1,0.5,0.5,0.7,0.9,0.9c0.9,0.6,1.6,0.7,2.7,0.5c0.7-0.2,2-0.6,2.3-1.3C36.5,55.7,34.5,54.8,33.6,54.8" />
            <path id="XMLID_82_" opacity="0.3" fill="#FFFFFF" enable-background="new    " d="M31.2,56.6c-0.4-0.1-0.1-0.6,0.2-0.8
			c0.4-0.2,0.9-0.3,1.4-0.4c0.8-0.2,1.7-0.3,2.3,0.2c-0.7,0-1.6,0-2.1,0.3C32.8,56,31.4,57.2,31.2,56.6" />
            <path id="XMLID_81_" opacity="0.3" fill="#FE980E" enable-background="new    " d="M35.9,56.8c-0.4,0.7-1.6,1.1-2.3,1.3
			c-1.1,0.2-1.7,0.1-2.7-0.5c-0.3-0.2-0.7-0.3-0.9-0.7c-0.1,0.1-0.1,0.3-0.1,0.5c0.1,0.5,0.5,0.7,0.9,0.9c0.9,0.6,1.6,0.7,2.7,0.5
			c0.7-0.2,2-0.6,2.3-1.3C36.1,57.2,36,57,35.9,56.8L35.9,56.8L35.9,56.8z" />
            <radialGradient id="XMLID_300_" cx="-1763.2634" cy="-2.4616" r="0.9391" gradientTransform="matrix(4.9922 0 0 11.432 8847.7402 90.4216)" gradientUnits="userSpaceOnUse">
                <stop offset="0" style="stop-color:#FFFFFF;stop-opacity:0" />
                <stop offset="0.9171" style="stop-color:#FFFFFF;stop-opacity:0.9171" />
                <stop offset="1" style="stop-color:#FFFFFF" />
            </radialGradient>
            <path id="XMLID_80_" opacity="0.3" fill="url(#XMLID_300_)" enable-background="new    " d="M45.9,57.8c0.1-1-1-1.4-1.8-1.3
			c-1.1,0.2-1,1.5-1.2,2.3c-0.2,0.8-0.5,1.8-0.2,2.7c0.2,0.8,0.9,1.5,1.3,2.3c0.4,0.9,0.2,1.9,0.4,2.9c0.2,0.9,1.2,1.4,2.1,1
			c1.6-0.7,1.1-4.2,0.5-5.4c-0.3-0.7-0.8-1.2-1-2c-0.1-0.6,0.2-2.4-0.2-2.8" />
            <path id="XMLID_79_" opacity="0.3" fill="#FFFFFF" enable-background="new    " d="M44.1,57.2c-0.1-0.1-0.2-0.1-0.3-0.1
			c-0.2,0.5-1.1,3.7-0.2,3.7c0.1-0.5,0.3-1.2,0.5-1.7c0.2-0.6,0.6-0.8,0.6-1.5c-0.2-0.1-0.4-0.2-0.5-0.2" />
            <path id="XMLID_78_" opacity="0.3" fill="#FE980E" enable-background="new    " d="M46.5,67.8c-0.8,0.3-1.9-0.2-2.1-1
			c-0.2-1,0-1.9-0.4-2.9c-0.3-0.8-1-1.5-1.3-2.3c-0.3-0.9,0-2,0.2-2.8c0.1-0.4,0.1-0.9,0.2-1.3c-0.5,0.5-0.4,1.4-0.5,2
			c-0.2,0.8-0.5,1.9-0.2,2.8c0.2,0.8,0.9,1.5,1.3,2.3c0.4,0.9,0.2,1.9,0.4,2.9c0.2,0.9,1.2,1.4,2.1,1c0.4-0.2,0.7-0.6,0.9-1.1
			C46.9,67.6,46.7,67.7,46.5,67.8L46.5,67.8L46.5,67.8z" />
            <radialGradient id="XMLID_301_" cx="-1764.5153" cy="-3.1353" r="0.5682" gradientTransform="matrix(5.0729 0 0 5.7462 8995.1973 90.086)" gradientUnits="userSpaceOnUse">
                <stop offset="0" style="stop-color:#FFFFFF;stop-opacity:0" />
                <stop offset="0.9171" style="stop-color:#FFFFFF;stop-opacity:0.9171" />
                <stop offset="1" style="stop-color:#FFFFFF" />
            </radialGradient>
            <path id="XMLID_77_" opacity="0.3" fill="url(#XMLID_301_)" enable-background="new    " d="M44.8,71.1c-0.2-0.4-0.1-0.9-0.2-1.3
			h-0.1c-0.2-0.9-1.7-0.5-2.2-0.1c-0.6,0.6-1.1,1.6-0.9,2.4c0.3,1.5,2.7,3.4,4.3,2.8c1-0.4,0.9-1.6,0.2-2.2
			c-0.5-0.4-1.4-0.7-1.3-1.5" />
            <path id="XMLID_76_" opacity="0.3" fill="#FFFFFF" enable-background="new    " d="M42.9,69.9c-0.5,0.2-1.7,1.3-0.3,1.5
			c0.2-0.3,0.6-0.6,0.8-0.9c0.2-0.3,0.2-0.8-0.3-0.6" />
            <path id="XMLID_75_" opacity="0.3" fill="#6CAF11" enable-background="new    " d="M45.7,74.8c-1.6,0.7-3.9-1.2-4.3-2.8v-0.1v0.8
			c0.3,1.5,2.7,3.4,4.3,2.8c0.6-0.3,0.8-0.9,0.7-1.5C46.3,74.4,46,74.6,45.7,74.8L45.7,74.8L45.7,74.8z" />
            <radialGradient id="XMLID_302_" cx="-1752.9288" cy="-2.5179" r="0.9726" gradientTransform="matrix(4.4096 0 0 10.6382 7736.4927 102.2737)" gradientUnits="userSpaceOnUse">
                <stop offset="0" style="stop-color:#FFFFFF;stop-opacity:0" />
                <stop offset="0.9171" style="stop-color:#FFFFFF;stop-opacity:0.9171" />
                <stop offset="1" style="stop-color:#FFFFFF" />
            </radialGradient>
            <path id="XMLID_74_" opacity="0.3" fill="url(#XMLID_302_)" enable-background="new    " d="M8.1,74c-0.1-0.3,0.2-1,0.2-1.4
			s0.2-1.1,0-1.5c-0.4-0.9-1.6-1.2-2.4-0.7c-2.3,1.3-1.5,4.4,0.5,5.4c-0.8,0.8-1.5,1.5-1.5,2.7c0,1,0.8,2.2,1.9,2.3
			c1.4,0.2,1.5-1.3,1-2.2C7.5,78,7.5,77.8,8,77.3c0.4-0.3,0.8-0.5,0.9-1.1c0.1-0.6-0.2-0.7-0.5-1C8.1,74.8,8.2,74.5,8.1,74" />
            <path id="XMLID_73_" opacity="0.3" fill="#FFFFFF" enable-background="new    " d="M7.1,70.8C6.6,70,4,72.4,5.3,73.5
			c1,0.9,0.6-0.6,0.7-1.1c0.1-0.4,1.1-1.3,0.9-1.5" />
            <path id="XMLID_72_" opacity="0.3" fill="#FFFFFF" enable-background="new    " d="M6.8,75.6C7,75.3,7.4,75,7.6,75.5
			c0.1,0.4-0.4,0.7-0.6,1c-0.2,0.3-0.5,0.6-0.6,0.9c-0.1,0.4,0.1,1-0.2,1.3c-0.7,0.9-1-0.7-0.7-1.2C5.8,76.8,6.7,76.5,6.8,75.6" />
            <path id="XMLID_71_" opacity="0.3" fill="#6CAF11" enable-background="new    " d="M5.9,76.3c0.2-0.2,0.4-0.4,0.6-0.6
			c-1.4-0.7-2.2-2.4-1.7-3.9C3.7,73.3,4.4,75.4,5.9,76.3L5.9,76.3L5.9,76.3z" />
            <path id="XMLID_70_" opacity="0.3" fill="#6CAF11" enable-background="new    " d="M6.8,80.7c-1-0.1-1.9-1.3-1.9-2.3
			c0-0.3,0.1-0.6,0.2-0.9c-0.3,0.4-0.5,0.9-0.5,1.5c0,1,0.8,2.2,1.8,2.3c0.8,0.1,1.2-0.3,1.2-0.9C7.5,80.7,7.2,80.8,6.8,80.7
			L6.8,80.7L6.8,80.7z" />
            <radialGradient id="XMLID_303_" cx="-1724.0114" cy="-3.1289" r="0.745" gradientTransform="matrix(3.3232 0 0 5.6997 5764.6348 98.6022)" gradientUnits="userSpaceOnUse">
                <stop offset="0" style="stop-color:#FFFFFF;stop-opacity:0" />
                <stop offset="0.9171" style="stop-color:#FFFFFF;stop-opacity:0.9171" />
                <stop offset="1" style="stop-color:#FFFFFF" />
            </radialGradient>
            <path id="XMLID_69_" opacity="0.3" fill="url(#XMLID_303_)" enable-background="new    " d="M35.7,77.9c-1.5,0-1.7,2-1.8,3.1
			c-0.1,1-0.2,2.4,1,2.6c1.2,0.1,1.5-0.5,1.7-1.6c0.1-0.8,0.8-2.2,0.5-3c-0.1-0.3-0.8-0.9-1.1-1.1" />
            <path id="XMLID_68_" opacity="0.3" fill="#FFFFFF" enable-background="new    " d="M35.3,78.5c-0.8-0.3-1.1,2.9-1,3.5
			c0.4,0,0.8-1.3,1-1.7c0.2-0.4,0.9-1,0.7-1.5c-0.2-0.1-0.5-0.3-0.8-0.1" />
            <path id="XMLID_67_" opacity="0.3" fill="#6CAF11" enable-background="new    " d="M36.5,82c-0.2,1.1-0.4,1.7-1.7,1.6
			c-0.7-0.1-1-0.7-1-1.3c-0.1,0.9,0,1.9,1,2c1.2,0.1,1.5-0.5,1.7-1.6c0.1-0.7,0.7-1.9,0.5-2.8C36.9,80.7,36.6,81.5,36.5,82L36.5,82
			L36.5,82z" />
            <radialGradient id="XMLID_304_" cx="-1769.3018" cy="-2.687" r="0.7034" gradientTransform="matrix(5.4095 0 0 8.5634 9586.1016 117.1666)" gradientUnits="userSpaceOnUse">
                <stop offset="0" style="stop-color:#FFFFFF;stop-opacity:0" />
                <stop offset="0.9171" style="stop-color:#FFFFFF;stop-opacity:0.9171" />
                <stop offset="1" style="stop-color:#FFFFFF" />
            </radialGradient>
            <path id="XMLID_66_" opacity="0.3" fill="url(#XMLID_304_)" enable-background="new    " d="M15.7,92.7c0.3-0.9,0.6-2.1-0.4-2.6
			c-1.2-0.6-2,0.1-2.5,1.2c-0.4,1-0.8,2.3-0.2,3.2c0.2,0.3,0.5,0.5,0.6,0.9c0.2,0.5,0,1.1,0.1,1.6c0.5,2.5,3.6,1.4,4.3-0.4
			c0.3-1,0-1.7-0.8-2.2C16.2,93.9,15.3,93.4,15.7,92.7" />
            <path id="XMLID_65_" opacity="0.3" fill="#FFFFFF" enable-background="new    " d="M14.1,90.4c0,0-1.6,2.3-0.5,2.1
			c0.5-0.1,1.6-2.2,0.7-2.2" />
            <path id="XMLID_64_" opacity="0.3" fill="#FFFFFF" enable-background="new    " d="M13.6,96.3c0.6,0.5,1.5,0.7,2.1,0.3
			c0.3-0.2,0.6-0.7,0.9-0.8c0.5-0.1,0.3,0.3,0.2,0.7c-0.3,0.8-1,1.2-1.7,1.3c-0.7,0.1-1.7-0.1-1.6-1.1" />
            <path id="XMLID_63_" opacity="0.3" fill="#3FB5BA" enable-background="new    " d="M17.6,96.6c-0.7,1.8-3.8,2.9-4.3,0.4l0,0v0.7
			c0.5,2.5,3.6,1.4,4.3-0.4c0.1-0.4,0.2-0.7,0.1-1C17.7,96.3,17.7,96.4,17.6,96.6L17.6,96.6L17.6,96.6z" />
            <radialGradient id="XMLID_305_" cx="-1685.9922" cy="-4.5318" r="0.5606" gradientTransform="matrix(2.5115 0 0 2.7619 4253.9106 105.0023)" gradientUnits="userSpaceOnUse">
                <stop offset="0" style="stop-color:#FFFFFF;stop-opacity:0" />
                <stop offset="0.9171" style="stop-color:#FFFFFF;stop-opacity:0.9171" />
                <stop offset="1" style="stop-color:#FFFFFF" />
            </radialGradient>
            <path id="XMLID_62_" opacity="0.3" fill="url(#XMLID_305_)" enable-background="new    " d="M19.3,91.1c-1.4-0.3-1.6,3.2,0.5,2.7
			c0.7-0.2,1.1-1,0.9-1.7c-0.2-0.6-1-0.9-1.6-0.9" />
            <path id="XMLID_61_" opacity="0.3" fill="#FFFFFF" enable-background="new    " d="M19.2,91.7c-0.7-0.1-0.6,0.8,0.2,0.6
			C20.2,92.2,19.6,91.5,19.2,91.7" />
            <path id="XMLID_60_" opacity="0.3" fill="#3FB5BA" enable-background="new    " d="M19.8,93.8c-0.9,0.2-1.4-0.4-1.6-1.1
			c-0.2,0.9,0.3,2,1.6,1.8c0.7-0.2,1.1-1,0.9-1.6C20.6,93.3,20.3,93.7,19.8,93.8L19.8,93.8L19.8,93.8z" />
            <radialGradient id="XMLID_306_" cx="-1753.4473" cy="-3.3447" r="0.5594" gradientTransform="matrix(4.4348 0 0 4.9154 7818.3066 109.5689)" gradientUnits="userSpaceOnUse">
                <stop offset="0" style="stop-color:#FFFFFF;stop-opacity:0" />
                <stop offset="0.9171" style="stop-color:#FFFFFF;stop-opacity:0.9171" />
                <stop offset="1" style="stop-color:#FFFFFF" />
            </radialGradient>
            <path id="XMLID_59_" opacity="0.3" fill="url(#XMLID_306_)" enable-background="new    " d="M44.2,91.3c-0.4-0.9-1.8-0.7-2.5-0.2
			c-0.8,0.6-1.6,1.7-1.8,2.7c-0.2,0.9,0.3,1.8,1.3,1.8c0.9,0,2-0.8,2.4-1.6C44.1,93.1,44.3,92.2,44.2,91.3L44.2,91.3" />
            <path id="XMLID_58_" opacity="0.3" fill="#FFFFFF" enable-background="new    " d="M43.1,91.1c-1-0.6-3.7,2.6-2.5,3.1
			c0.5-0.3,0.9-0.8,1.3-1.3c0.2-0.3,0.4-0.6,0.7-0.9C42.8,91.7,42.9,91.3,43.1,91.1" />
            <path id="XMLID_57_" opacity="0.3" fill="#3FB5BA" enable-background="new    " d="M44.2,91.9c-0.1,0.8-0.3,1.5-0.7,2.1
			c-0.4,0.7-1.6,1.5-2.4,1.6c-0.7,0-1.2-0.5-1.3-1c-0.2,0.9,0.3,1.8,1.3,1.7c0.9,0,2-0.8,2.4-1.5C44.1,93.8,44.3,92.9,44.2,91.9
			L44.2,91.9L44.2,91.9z" />
            <radialGradient id="XMLID_307_" cx="-1726.7467" cy="-3.0271" r="0.7703" gradientTransform="matrix(3.4038 0 0 6.0991 5920.8447 122.0084)" gradientUnits="userSpaceOnUse">
                <stop offset="0" style="stop-color:#FFFFFF;stop-opacity:0" />
                <stop offset="0.9171" style="stop-color:#FFFFFF;stop-opacity:0.9171" />
                <stop offset="1" style="stop-color:#FFFFFF" />
            </radialGradient>
            <path id="XMLID_56_" opacity="0.3" fill="url(#XMLID_307_)" enable-background="new    " d="M44.7,102c0.2-0.8-1.2-1.6-1.8-1.6
			c-1.1,0-1.3,1.3-1.4,2.3c-0.1,1.2,0.5,4.7,2.5,3.6c0.6-0.3,0.8-1.2,0.8-1.8c0-0.4,0.1-0.8,0.1-1.2C44.9,102.8,44.6,102.5,44.7,102
			" />
            <path id="XMLID_55_" opacity="0.3" fill="#FFFFFF" enable-background="new    " d="M42.8,101.1c-0.7-0.2-0.9,3-0.1,3.3
			c0.7,0.4,0.7-1.4,0.7-1.8c0-0.8-0.3-1.2-0.9-1.4" />
            <path id="XMLID_54_" opacity="0.3" fill="#3FB5BA" enable-background="new    " d="M44,106.3c-2,1.1-2.6-2.4-2.5-3.6
			c0-0.3,0.1-0.8,0.2-1.1c-0.4,0.5-0.5,1.2-0.5,1.8c-0.1,1.2,0.5,4.7,2.5,3.6c0.3-0.2,0.6-0.6,0.7-1C44.3,106.2,44.2,106.3,44,106.3
			L44,106.3L44,106.3z" />
            <radialGradient id="XMLID_308_" cx="-1806.8247" cy="-2.6539" r="0.4768" gradientTransform="matrix(11.2598 0 0 8.9589 20359.3262 29.3767)" gradientUnits="userSpaceOnUse">
                <stop offset="0" style="stop-color:#FFFFFF;stop-opacity:0" />
                <stop offset="0.9171" style="stop-color:#FFFFFF;stop-opacity:0.9171" />
                <stop offset="1" style="stop-color:#FFFFFF" />
            </radialGradient>
            <path id="XMLID_53_" opacity="0.3" fill="url(#XMLID_308_)" enable-background="new    " d="M11,6.4c-0.9,0.4-1.9,1.2-1.7,2.3
			c0.1,1.2,1.6,1.7,2.4,0.8c0.5-0.5,0.2-1.2,0.6-1.7c0.2-0.2,1.1-0.2,1.4-0.5c0.8-0.7,1.2-1.8,0.8-2.9c1.6,0.1,4.3,1.6,5.7,0.1
			s-1.7-2.4-2.9-2.7c-1.8-0.4-3.8-1.5-5.2-0.2c-0.5,0.5-1,1-1.1,1.8c-0.1,0.7,0.5,2.1,0.3,2.6c0,0.1-0.1,0.1-0.2,0.1" />
            <path id="XMLID_52_" opacity="0.3" fill="#FFFFFF" enable-background="new    " d="M11.5,6.7c-0.4,0.1-1.3,0.8-0.7,1.1
			c0.6,0.2,1-0.6,0.9-1.1" />
            <path id="XMLID_51_" opacity="0.3" fill="#FFFFFF" enable-background="new    " d="M11.6,3v0.5c0.6,0.3,0.9-0.7,1.4-0.8
			c0.5-0.2,1.6,0,2.1,0.1c0.7,0.2,1.3,0.4,2,0.5c0.4,0,0.7,0,1,0.1c0.3,0.1,0.5,0.3,0.9,0.2c0-0.1,0-0.1,0.1-0.2
			c-1.1-0.7-2.6-0.8-3.8-1.2c-0.9-0.3-3.3-0.8-3.5,0.7" />
            <g transform="translate(8.510721, 3.358674)">
                <path id="XMLID_50_" fill="#FBB316" d="M11.6,1.2c-1.4,1.5-4.1,0-5.7-0.1C6,1.3,6,1.6,6,1.8c1.6,0.2,4.2,1.6,5.5,0.1
				c0.4-0.4,0.4-0.8,0.3-1.1C11.8,0.9,11.7,1,11.6,1.2L11.6,1.2L11.6,1.2z" />
                <path id="XMLID_49_" fill="#FBB316" d="M2.8,2.7c0.1-0.4-0.2-1.2-0.3-2v0.1C2.4,1.3,2.6,2.1,2.8,2.7L2.8,2.7L2.8,2.7z" />
                <path id="XMLID_48_" fill="#FBB316" d="M5.1,3.9C4.8,4.1,3.9,4.2,3.7,4.4C3.3,4.9,3.6,5.6,3.1,6.1C2.3,7,0.9,6.6,0.7,5.5v0.6
				c0.1,1.2,1.6,1.7,2.4,0.8c0.5-0.5,0.2-1.2,0.6-1.7C3.9,5,4.8,5,5.1,4.7c0.7-0.5,1-1.5,0.9-2.3C6,2.9,5.6,3.5,5.1,3.9L5.1,3.9
				L5.1,3.9z" />
            </g>
            <radialGradient id="XMLID_309_" cx="-1737.8744" cy="-3.3606" r="0.6198" gradientTransform="matrix(3.7686 0 0 4.9671 6566.9653 37.9682)" gradientUnits="userSpaceOnUse">
                <stop offset="0" style="stop-color:#FFFFFF;stop-opacity:0" />
                <stop offset="0.9171" style="stop-color:#FFFFFF;stop-opacity:0.9171" />
                <stop offset="1" style="stop-color:#FFFFFF" />
            </radialGradient>
            <path id="XMLID_47_" opacity="0.3" fill="url(#XMLID_309_)" enable-background="new    " d="M18.2,18.8c-1.2,0.7-2.4,2-2.5,3.5
			c-0.1,1.2,0.7,1.8,1.8,1.3c1-0.4,1.7-1.4,1.9-2.4c0.2-0.8,0-2.4-1.2-2.2" />
            <path id="XMLID_46_" opacity="0.3" fill="#FFFFFF" enable-background="new    " d="M17.9,19.3c-0.5,0.1-1.6,1.5-1.6,2
			C17,21.5,18.2,19.9,17.9,19.3" />
            <path id="XMLID_45_" opacity="0.3" fill="#FBB316" enable-background="new    " d="M17.5,23.5c-1,0.4-1.8,0-1.8-0.9c0,0,0,0-0.1,0
			v0.1c0,1.2,1.2,2,2.4,1.5c0.9-0.4,1.4-1.7,1.3-2.7C19.1,22.3,18.4,23.2,17.5,23.5L17.5,23.5L17.5,23.5z" />
            <radialGradient id="XMLID_310_" cx="-1698.9299" cy="-3.2502" r="0.8168" gradientTransform="matrix(2.7391 0 0 5.2897 4655.7471 52.654)" gradientUnits="userSpaceOnUse">
                <stop offset="0" style="stop-color:#FFFFFF;stop-opacity:0" />
                <stop offset="0.9171" style="stop-color:#FFFFFF;stop-opacity:0.9171" />
                <stop offset="1" style="stop-color:#FFFFFF" />
            </radialGradient>
            <path id="XMLID_44_" opacity="0.3" fill="url(#XMLID_310_)" enable-background="new    " d="M1.2,32.8L1.2,32.8
			c-0.2,1.7-0.3,3.5-0.4,5.3C1.2,38,1.7,38,2.1,37.9c0.4-0.2,0.8-0.5,1-0.8c0.4-0.7,0.6-2,0.3-2.8C3,33.4,2.1,32.8,1.2,32.8
			L1.2,32.8L1.2,32.8z" />
            <path id="XMLID_43_" opacity="0.3" fill="#FFFFFF" enable-background="new    " d="M1.3,33.4C1.3,33.3,1.2,33.2,1.3,33.4
			c0.4,0.6,0.3,1.1,1.3,1.1c0.1-0.8-0.7-1.6-1.5-1.3" />
            <path id="XMLID_42_" opacity="0.3" fill="#FBB316" enable-background="new    " d="M3.6,35.1c0,0.7-0.1,1.5-0.4,1.9
			c-0.2,0.4-0.6,0.7-1,0.8C1.8,38,1.3,37.9,0.9,38c0,0.4,0,0.8-0.1,1.3c0.3-0.1,0.7-0.2,0.8-0.2c0.8-0.3,1.4-0.9,1.8-1.7
			C3.7,36.9,3.9,35.8,3.6,35.1L3.6,35.1L3.6,35.1z" />
            <radialGradient id="XMLID_311_" cx="-1759.3741" cy="-3.3536" r="0.5419" gradientTransform="matrix(4.7548 0 0 4.9511 8394.9883 45.054)" gradientUnits="userSpaceOnUse">
                <stop offset="0" style="stop-color:#FFFFFF;stop-opacity:0" />
                <stop offset="0.9171" style="stop-color:#FFFFFF;stop-opacity:0.9171" />
                <stop offset="1" style="stop-color:#FFFFFF" />
            </radialGradient>
            <path id="XMLID_41_" opacity="0.3" fill="url(#XMLID_311_)" enable-background="new    " d="M31.2,26c-2.1-0.6-6.2,4.6-2.6,4.9
			c1.2,0.1,2-0.4,2.7-1.3c0.6-0.7,0.8-1.9,0.5-2.8C31.7,26.5,31.5,26,31.2,26" />
            <path id="XMLID_40_" opacity="0.3" fill="#FFFFFF" enable-background="new    " d="M30.8,26.3c-0.8,0-2.7,1.4-2.5,2.3
			c0.7,0.1,2.5-1.6,2.3-2.2" />
            <path id="XMLID_39_" opacity="0.3" fill="#FBB316" enable-background="new    " d="M31.3,29.5c-0.7,0.9-1.5,1.5-2.7,1.3
			c-0.8-0.1-1.3-0.4-1.4-0.9c-0.2,0.8,0.2,1.5,1.4,1.6c1.2,0.1,2-0.4,2.7-1.3c0.4-0.6,0.7-1.5,0.6-2.2
			C31.8,28.6,31.6,29.1,31.3,29.5L31.3,29.5L31.3,29.5z" />
            <radialGradient id="XMLID_312_" cx="-1719.5762" cy="-3.3438" r="0.6849" gradientTransform="matrix(3.2032 0 0 4.9754 5549.334 46.1368)" gradientUnits="userSpaceOnUse">
                <stop offset="0" style="stop-color:#FFFFFF;stop-opacity:0" />
                <stop offset="0.9171" style="stop-color:#FFFFFF;stop-opacity:0.9171" />
                <stop offset="1" style="stop-color:#FFFFFF" />
            </radialGradient>
            <path id="XMLID_38_" opacity="0.3" fill="url(#XMLID_312_)" enable-background="new    " d="M41.5,27c-1.1-0.1-2,2.3-2,3.2
			c-0.1,1.1,0.6,2.2,1.8,1.6c1-0.5,1.3-1.6,1.4-2.6C42.7,28.6,42.4,26.8,41.5,27C41.5,27,41.5,27.1,41.5,27" />
            <path id="XMLID_37_" opacity="0.3" fill="#FFFFFF" enable-background="new    " d="M41.1,27.6c-0.5,0.1-1.1,1.6-1,2.1
			C40.8,30.1,41.9,27.5,41.1,27.6" />
            <path id="XMLID_36_" opacity="0.3" fill="#FBB316" enable-background="new    " d="M41.3,31.7c-1,0.5-1.6-0.2-1.8-1v0.2
			c-0.1,1.1,0.6,2.2,1.8,1.6c1-0.5,1.3-1.6,1.4-2.6v-0.4C42.5,30.3,42.2,31.3,41.3,31.7L41.3,31.7L41.3,31.7z" />
            <radialGradient id="XMLID_313_" cx="-1764.1505" cy="-3.4937" r="0.5045" gradientTransform="matrix(5.0484 0 0 4.5061 8915.3408 58.1388)" gradientUnits="userSpaceOnUse">
                <stop offset="0" style="stop-color:#FFFFFF;stop-opacity:0" />
                <stop offset="0.9171" style="stop-color:#FFFFFF;stop-opacity:0.9171" />
                <stop offset="1" style="stop-color:#FFFFFF" />
            </radialGradient>
            <path id="XMLID_35_" opacity="0.3" fill="url(#XMLID_313_)" enable-background="new    " d="M9.7,40.1c-1.8-0.2-4.1,2.3-2.5,3.8
			c1.1,1,4.2,1.1,4.5-0.8C11.9,42.2,10.5,40.1,9.7,40.1" />
            <path id="XMLID_34_" opacity="0.3" fill="#FFFFFF" enable-background="new    " d="M8,41.2c-0.4-0.1-0.7,0.2-0.7,0.6
			c0.5,0.2,0.8-0.2,1.2-0.4c0.6-0.2,1,0,1.6-0.1c0.1-1.2-2.2-0.6-2.5,0" />
            <path id="XMLID_33_" opacity="0.3" fill="#FBB316" enable-background="new    " d="M7.2,43.9c-0.3-0.3-0.5-0.6-0.5-0.9
			c-0.1,0.5,0,1.1,0.5,1.6c1.1,1,4.2,1.1,4.5-0.8v-0.6C11.2,45,8.2,44.8,7.2,43.9L7.2,43.9L7.2,43.9z" />
            <radialGradient id="XMLID_314_" cx="-1697.5265" cy="-3.4273" r="0.7542" gradientTransform="matrix(2.7125 0 0 4.6908 4630.4282 57.6965)" gradientUnits="userSpaceOnUse">
                <stop offset="0" style="stop-color:#FFFFFF;stop-opacity:0" />
                <stop offset="0.9171" style="stop-color:#FFFFFF;stop-opacity:0.9171" />
                <stop offset="1" style="stop-color:#FFFFFF" />
            </radialGradient>
            <path id="XMLID_32_" opacity="0.3" fill="url(#XMLID_314_)" enable-background="new    " d="M26.7,39.2c-1.3,0-1.8,1.4-2,2.5
			c-0.2,0.8-0.5,2.2,0.7,2.2C26.7,43.9,27.9,40,26.7,39.2C26.8,39.2,26.8,39.2,26.7,39.2" />
            <path id="XMLID_31_" opacity="0.3" fill="#FFFFFF" enable-background="new    " d="M26.1,39.7c-0.7,0.1-1.1,1.9-1,2.5
			c0.6,0.1,0.9-0.8,1-1.2C26.2,40.8,26.7,39.5,26.1,39.7" />
            <path id="XMLID_30_" opacity="0.3" fill="#FBB316" enable-background="new    " d="M25.4,43.9c-0.6,0-0.8-0.3-0.9-0.7
			c-0.1,0.7,0,1.4,0.9,1.4c1,0,2-2.4,1.8-3.8C27.1,42.2,26.3,43.9,25.4,43.9L25.4,43.9L25.4,43.9z" />
            <radialGradient id="XMLID_315_" cx="-1777.4275" cy="-3.2573" r="0.4977" gradientTransform="matrix(6.0957 0 0 5.2211 10879.5332 54.2933)" gradientUnits="userSpaceOnUse">
                <stop offset="0" style="stop-color:#FFFFFF;stop-opacity:0" />
                <stop offset="0.9171" style="stop-color:#FFFFFF;stop-opacity:0.9171" />
                <stop offset="1" style="stop-color:#FFFFFF" />
            </radialGradient>
            <path id="XMLID_29_" opacity="0.3" fill="url(#XMLID_315_)" enable-background="new    " d="M46.1,34.9c-1.5-0.8-4.4,0.1-4.4,2.1
			c0,1.9,2.8,3.3,4.4,2.7c0.9-0.3,1.8-1.4,1.7-2.5C47.7,36.3,46.9,35.4,46.1,34.9" />
            <path id="XMLID_28_" opacity="0.3" fill="#FFFFFF" enable-background="new    " d="M46.5,35.9c-0.8-0.8-3.7-1-4,0.5
			c-0.3,1.2,1.3,0.4,1.7,0.2C44.9,36.3,45.9,36.5,46.5,35.9" />
            <path id="XMLID_27_" opacity="0.3" fill="#FBB316" enable-background="new    " d="M47.8,37.8c-0.2,0.9-0.9,1.6-1.6,1.9
			c-1.5,0.6-4.1-0.7-4.4-2.4v0.4c0,1.9,2.8,3.3,4.4,2.7C47.1,40.1,48,39,47.8,37.8C47.8,37.9,47.8,37.9,47.8,37.8L47.8,37.8
			L47.8,37.8z" />
        </g>
        <g transform="translate(260.491228, 431.157895)">
            <g>
                <linearGradient id="XMLID_316_" gradientUnits="userSpaceOnUse" x1="-1923.2466" y1="-2.5551" x2="-1923.2466" y2="-2.7252" gradientTransform="matrix(13.3739 0 0 16.6674 25729.1152 47.4498)">
                    <stop offset="0" style="stop-color:#E3C091" />
                    <stop offset="1" style="stop-color:#7F5327" />
                </linearGradient>
                <path id="XMLID_26_" fill="url(#XMLID_316_)" d="M7.8,1.5L7.8,1.5H1.1v14.9c0,1,3,1.8,6.7,1.8s6.7-0.8,6.7-1.8V1.5H7.8L7.8,1.5z" />
                <path id="XMLID_25_" opacity="0.5" fill="#CB9257" enable-background="new    " d="M12.5,1.5v14.4c0,1-3,1.8-6.7,1.8
				c-1.3,0-2.5-0.1-3.5-0.3c1.2,0.5,3.2,0.8,5.5,0.8c3.7,0,6.7-0.8,6.7-1.8V1.5H12.5L12.5,1.5z" />
                <g transform="translate(0.998051, 0.000000)">
                    <path id="XMLID_24_" fill="#CB9257" d="M0.9,17.3c0,0,0.1,0,0.1,0.1V1.6H0.9V17.3L0.9,17.3z" />
                    <path id="XMLID_23_" fill="#CB9257" d="M9.8,18L9.8,18L9.9,1.5H9.8V18L9.8,18z" />
                    <path id="XMLID_22_" fill="#CB9257" d="M5.8,18.2h1H7V1.5H6.8h-1V18.2L5.8,18.2z" />
                    <path id="XMLID_21_" fill="#CB9257" d="M11.6,17.6c0.2-0.1,0.4-0.1,0.6-0.2v-16h-0.6V17.6L11.6,17.6z" />
                    <path id="XMLID_20_" fill="#CB9257" d="M1.9,17.6L1.9,17.6L2,1.4H1.9V17.6L1.9,17.6z" />
                    <path id="XMLID_19_" fill="#CB9257" d="M3.7,18c0.2,0,0.4,0.1,0.6,0.1V1.5H3.7V18L3.7,18z" />
                    <path id="XMLID_18_" fill="#CB9257" d="M7.8,18.2L7.8,18.2L7.9,1.5H7.8V18.2L7.8,18.2z" />
                </g>
            </g>
            <g transform="translate(0.998051, 5.988304)">
                <radialGradient id="XMLID_317_" cx="-1915.9318" cy="-2.5814" r="0.5509" gradientTransform="matrix(9.1893 0 0 9.7554 17612.2695 31.1912)" gradientUnits="userSpaceOnUse">
                    <stop offset="0" style="stop-color:#FFFFFF;stop-opacity:0" />
                    <stop offset="0.9171" style="stop-color:#FFFFFF;stop-opacity:0.9171" />
                    <stop offset="1" style="stop-color:#FFFFFF" />
                </radialGradient>
                <path id="XMLID_17_" opacity="0.5" fill="url(#XMLID_317_)" enable-background="new    " d="M4.2,2.7c0,0-1.3-1.4-2.3-0.3
				c-1,1,0,3.6,2.2,3c0,0,0.6,0.6,0.6,1.3c0,0.7-0.7,2-0.7,3S6.8,12,6.5,9.5c0,0,2.1-2.8,1-4c0,0,0.8-1.1,1.5-1.1s2.3-1,1.5-2
				C9.7,1.5,9,0.2,6.7,2.3C4.5,4.2,4.2,2.7,4.2,2.7L4.2,2.7L4.2,2.7z" />
                <path id="XMLID_16_" opacity="0.7" fill="#FFFFFF" enable-background="new    " d="M5.2,12.1c-0.3,0-1-0.1-1,0.4
				c0.3,0.1,0.9,0.5,1.2,0.4c0.2-0.1,0.5-0.2,0.4-0.5C5.7,12.1,5.5,12.2,5.2,12.1" />
                <path id="XMLID_15_" opacity="0.7" fill="#FFFFFF" enable-background="new    " d="M3.2,2.6c-0.3,0-0.7-0.1-0.9,0.1
				C2.1,3,2.5,3.2,2.8,3.4s0.7,0.4,0.8,0C3.7,3.1,3.5,2.7,3.2,2.6" />
                <path id="XMLID_14_" opacity="0.7" fill="#FFFFFF" enable-background="new    " d="M4.7,3.7C5.3,3.5,5.9,3.2,6.6,3c0,0,0,0,0-0.1
				c0.3-0.1,0.7-0.2,1-0.4S8.1,2.1,8.3,2C8.9,1.7,9.9,2.4,9,2.7C8.3,2.9,7.7,3.1,7,3.4S5.5,3.8,4.8,3.9" />
                <path id="XMLID_13_" opacity="0.7" fill="#FFFFFF" enable-background="new    " d="M5.4,7c0,0.3-0.9,1.8-0.4,1.8
				C5.4,8.8,5.9,7.3,5.4,7" />
                <g transform="translate(0.000000, 1.996101)">
                    <path id="XMLID_12_" fill="#CB9257" d="M4.7,5V4.6c0-0.7-0.6-1.3-0.6-1.3C2.7,3.7,1.7,2.7,1.5,1.7C1.3,2.9,2.3,4.5,4.1,4
					C4.1,4.1,4.5,4.5,4.7,5L4.7,5L4.7,5z" />
                    <path id="XMLID_11_" fill="#CB9257" d="M9.1,2.2c-0.7,0-1.5,1.1-1.5,1.1c0.1,0.1,0.2,0.3,0.2,0.4c0.3-0.3,0.8-0.9,1.3-0.9
					c0.6,0,2.1-0.9,1.6-1.8C10.4,1.7,9.5,2.2,9.1,2.2L9.1,2.2L9.1,2.2z" />
                    <path id="XMLID_10_" fill="#CB9257" d="M7.8,4.6C7.6,5.9,6.5,7.4,6.5,7.4C6.7,9.7,4.4,8.8,4,7.9v0.5c0,1,2.8,2.3,2.5-0.2
					C6.5,8.1,8.1,6,7.8,4.6L7.8,4.6L7.8,4.6z" />
                </g>
            </g>
        </g>
        <path id="XMLID_9_" fill="#FBB040" d="M261.8,441.4c0.5,0.1-2.7,0.3,0,2.3c2.7,2,7.7,4,12.7,5c0.4,0.1,0.5-2,0.7-1.8
		c2,1.3,4.1,3,6.2,5c0,0-20.1,2.8-25.7-10.9C255.7,441,258,440.7,261.8,441.4L261.8,441.4L261.8,441.4z" />
        <path id="XMLID_8_" fill="#EA6709" d="M255.9,441.2c13.3,12.9,12.1,7.5,25.4,10.6c-2-1.9-4.1-3.5-6-4.9c-1-0.6-0.3,2-1.7,1.7
		c-3.3-0.5-9.2-3.4-11-4c-1.9-0.6,0.5-3.1-1-3.4c-3.6-0.6-5.8-0.3-5.8-0.3C255.8,441.1,255.9,441.1,255.9,441.2L255.9,441.2
		L255.9,441.2z" />
        <linearGradient id="XMLID_318_" gradientUnits="userSpaceOnUse" x1="-385.2628" y1="-2.8995" x2="-385.2628" y2="-1.9982" gradientTransform="matrix(92.1201 0 0 23.2912 35681.6523 216.6424)">
            <stop offset="0" style="stop-color:#578E1A" />
            <stop offset="0.4177" style="stop-color:#558B19" />
            <stop offset="0.7716" style="stop-color:#4F8017" />
            <stop offset="1" style="stop-color:#487515" />
        </linearGradient>
        <path id="XMLID_7_" fill="url(#XMLID_318_)" fill-opacity="0" d="M235,155.1c-32.1,10.5-71.8,5-88.4,1.8c-1,4-1.5,8.2-1.5,12.5
		c0,1.6,0.1,3.1,0.2,4.7c6.9,1.4,15.6,2.6,26.4,3.5c47,3.9,65.6-7.1,65.6-7.1S237.2,164,235,155.1L235,155.1L235,155.1z" />
        <path id="XMLID_6_" opacity="0.3" fill="#FFFFFF" enable-background="new    " d="M246.9,439.6c-0.4,0.2-0.8,1.3-0.6,1.7
		c0.4,0.8,1.9,1.1,2.5,1.9c0.5,0.7,0.3,1.3,0.2,2.1c0,0.4-0.1,0.2,0.2,0.5c0.2,0.2,0.6,0.5,0.8,0.6c0.8,0.5,2.2,0.3,2.4,1.3
		c0.2,0.8-0.1,1.7,0,2.5c0.2,0.7,0.9,0.7,1.6,0.6c0.9-0.1,1.6-0.3,2.4,0.3c0.4,0.3,0.5,0.9,1.1,1.1c1,0.4,1.8-0.5,2.2-1.3
		c0.4-0.7,1.1-1.5,2-1.4c0.5,0,1.1,0.6,1.5,0.5c0.7-0.2,0.8-1.9,0.7-2.4c-0.1-0.9-0.6-1.3-1.6-1.2c-0.6,0.1-2,1.2-2.5,0.8
		c-0.2-0.1-0.3-1-0.4-1.2c-0.1-0.5-0.3-0.9-0.6-1.3c-0.8-1.1-2-1.5-3.3-1.1c-1.3,0.4-2.4-0.2-3-1.4c-1-1.7-2.4-1-4-1.2
		c-1.1-0.2-1.6-1.5-2.6-1.9" />
        <circle id="XMLID_5_" fill="#FFFFFF" cx="176" cy="138.2" r="15.6" />
        <circle id="XMLID_4_" fill="#FFFFFF" cx="191" cy="154.6" r="8.5" />
        <linearGradient id="XMLID_319_" gradientUnits="userSpaceOnUse" x1="-385.1384" y1="-2.9141" x2="-385.1384" y2="-2.0111" gradientTransform="matrix(89.5252 0 0 22.4786 34794.5 213.1073)">
            <stop offset="0" style="stop-color:#578E1A" />
            <stop offset="0.4177" style="stop-color:#558B19" />
            <stop offset="0.7716" style="stop-color:#4F8017" />
            <stop offset="1" style="stop-color:#487515" />
        </linearGradient>
        <path id="XMLID_3_" fill="url(#XMLID_319_)" fill-opacity="0" d="M333.9,175.1c10.6-0.9,19-2.1,25.6-3.4c0.1-1.5,0.2-3,0.2-4.5
		c0-4.8-0.7-9.4-2-13.8c-32.8,6.9-71.8,2.7-85.6,0.8c-1.9,8.2-2,14.1-2,14.1S288.3,178.9,333.9,175.1L333.9,175.1L333.9,175.1z" />
        <circle id="XMLID_2_" fill="#FFFFFF" cx="329.2" cy="139.4" r="15.6" />
        <circle id="XMLID_1_" fill="#FFFFFF" cx="314.1" cy="155.8" r="8.5" />
    </g>
</svg>
